<svg xmlns="http://www.w3.org/2000/svg" width="865" height="627" viewBox="0 0 865 627">
  <g id="Box_3" transform="translate(-0.418 8.067)">
    <g id="Group_622" data-name="Group 622" transform="translate(0 0)">
      <rect id="Rectangle_3" data-name="Rectangle 3" width="865" height="428" rx="33" transform="translate(0.418 190.933)" fill="#006cb7"/>
      <g id="Ellipse_1" data-name="Ellipse 1" transform="translate(240.418 -0.067)" fill="#fff" stroke="#006cb7" stroke-width="8">
        <circle cx="192" cy="192" r="192" stroke="none"/>
        <circle cx="192" cy="192" r="196" fill="none"/>
      </g>
    </g>
    <text id="Scaled_growth" data-name="Scaled growth" transform="translate(429.418 519.933)" fill="#fff" font-size="92" font-family="BoschSans-Bold, Bosch Sans" font-weight="700" letter-spacing="-0.04em"><tspan x="-309" y="0">Scaled growth</tspan></text>
    <g id="Icon_3" transform="translate(334.978 88.963)">
      <path id="Path_726" data-name="Path 726" d="M131.2,11a9.11,9.11,0,0,0-6.853,15.113l12.239,13.972a1.3,1.3,0,0,1-.1,1.814L108.768,67.458a1.3,1.3,0,0,1-1.731.03L91.69,54.293a9.11,9.11,0,0,0-11.988.1L26.474,101.647a9.11,9.11,0,0,0-3.062,6.813V127.8a9.11,9.11,0,0,0,15.354,6.634l46.02-43.311a1.3,1.3,0,0,1,1.789,0l15.165,14.423a9.11,9.11,0,0,0,12.538.018l44.337-41.927a1.3,1.3,0,0,1,1.915.139l10.944,13.855a9.11,9.11,0,0,0,16.183-4.471l6.752-51.874A9.11,9.11,0,0,0,185.373,11Zm-.979,9.968a1.3,1.3,0,0,1,.979-2.159h54.172a1.3,1.3,0,0,1,1.29,1.469l-6.751,51.874a1.3,1.3,0,0,1-2.312.639L166.656,58.936a9.11,9.11,0,0,0-13.408-.972L108.911,99.891a1.3,1.3,0,0,1-1.791,0L91.955,85.465a9.11,9.11,0,0,0-12.522-.033L33.414,128.744a1.3,1.3,0,0,1-2.193-.948V108.459a1.3,1.3,0,0,1,.437-.973L84.887,60.227a1.3,1.3,0,0,1,1.713-.014l15.347,13.195a9.11,9.11,0,0,0,12.115-.21L141.783,47.64a9.11,9.11,0,0,0,.678-12.7ZM169.175,98.2a9.11,9.11,0,0,1,9.11-9.11h20.823a9.11,9.11,0,0,1,9.11,9.11V207.52a9.11,9.11,0,0,1-9.11,9.11H178.285a9.11,9.11,0,0,1-9.11-9.11Zm9.11-1.3a1.3,1.3,0,0,0-1.3,1.3V207.52a1.3,1.3,0,0,0,1.3,1.3h20.823a1.3,1.3,0,0,0,1.3-1.3V98.2a1.3,1.3,0,0,0-1.3-1.3Zm-52.058,15.618a9.11,9.11,0,0,0-9.11,9.11v85.9a9.11,9.11,0,0,0,9.11,9.11H147.05a9.11,9.11,0,0,0,9.11-9.11v-85.9a9.11,9.11,0,0,0-9.11-9.11Zm-1.3,9.11a1.3,1.3,0,0,1,1.3-1.3H147.05a1.3,1.3,0,0,1,1.3,1.3v85.9a1.3,1.3,0,0,1-1.3,1.3H126.227a1.3,1.3,0,0,1-1.3-1.3ZM65.058,150.256a9.11,9.11,0,0,1,9.11-9.11H94.992a9.11,9.11,0,0,1,9.11,9.11V207.52a9.11,9.11,0,0,1-9.11,9.11H74.169a9.11,9.11,0,0,1-9.11-9.11Zm9.11-1.3a1.3,1.3,0,0,0-1.3,1.3V207.52a1.3,1.3,0,0,0,1.3,1.3H94.992a1.3,1.3,0,0,0,1.3-1.3V150.256a1.3,1.3,0,0,0-1.3-1.3ZM13,171.08a9.11,9.11,0,0,1,9.11-9.11H42.934a9.11,9.11,0,0,1,9.11,9.11V207.52a9.11,9.11,0,0,1-9.11,9.11H22.11A9.11,9.11,0,0,1,13,207.52Zm9.11-1.3a1.3,1.3,0,0,0-1.3,1.3V207.52a1.3,1.3,0,0,0,1.3,1.3H42.934a1.3,1.3,0,0,0,1.3-1.3V171.08a1.3,1.3,0,0,0-1.3-1.3Z" transform="translate(-13 -11)" fill="#006cb7" fill-rule="evenodd"/>
      <circle id="Ellipse_8" data-name="Ellipse 8" cx="10" cy="10" r="10" transform="translate(9.44 144.97)" fill="#006cb7"/>
      <circle id="Ellipse_9" data-name="Ellipse 9" cx="10" cy="10" r="10" transform="translate(61.44 123.97)" fill="#006cb7"/>
      <circle id="Ellipse_10" data-name="Ellipse 10" cx="10" cy="10" r="10" transform="translate(113.44 94.97)" fill="#006cb7"/>
      <circle id="Ellipse_11" data-name="Ellipse 11" cx="10" cy="10" r="10" transform="translate(165.44 71.97)" fill="#006cb7"/>
    </g>
  </g>
</svg>
