<svg xmlns="http://www.w3.org/2000/svg" width="865" height="627" viewBox="0 0 865 627">
  <g id="Box_1" transform="translate(0 8.067)">
    <g id="Group_1" data-name="Group 1" transform="translate(0 0)">
      <rect id="Rectangle_3" data-name="Rectangle 3" width="865" height="428" rx="33" transform="translate(0 190.933)" fill="#006cb7"/>
      <g id="Ellipse_1" data-name="Ellipse 1" transform="translate(241 -0.067)" fill="#fff" stroke="#006cb7" stroke-width="8">
        <ellipse cx="191.5" cy="192" rx="191.5" ry="192" stroke="none"/>
        <ellipse cx="191.5" cy="192" rx="195.5" ry="196" fill="none"/>
      </g>
    </g>
    <text id="High_ROI" data-name="High ROI" transform="translate(430 517.933)" fill="#fff" font-size="92" font-family="BoschSans-Bold, Bosch Sans" font-weight="700" letter-spacing="-0.04em"><tspan x="-192" y="0">High ROI</tspan></text>
    <g id="Icon_1" transform="translate(267.299 48.78)">
      <path id="Path_733" data-name="Path 733" d="M235.012,164.789a20.069,20.069,0,0,0-27.345-7.328l-52.887,30.53a21.835,21.835,0,0,0-15.894-18.761L79.21,152.989a3.744,3.744,0,0,0-.525-.108A31.942,31.942,0,0,0,54.272,159.4L38.287,171.643l-.678-2.529h0a7.537,7.537,0,0,0-9.222-5.326l-14.2,3.806a7.537,7.537,0,0,0-5.32,9.219l20.585,76.823a7.535,7.535,0,0,0,9.222,5.326l14.2-3.806a7.537,7.537,0,0,0,5.337-9.222l-.8-2.975a28.84,28.84,0,0,1,25.72-5.986l34.179,7.835a38.707,38.707,0,0,0,8.646,1.018,32.044,32.044,0,0,0,16.266-4.353L227.7,192.131a20.043,20.043,0,0,0,7.313-27.342ZM37.059,251.1,16.721,175.2,30,171.643l20.338,75.9Zm186.624-65.9L138.2,234.549a25.309,25.309,0,0,1-19.119,2.464l-34.179-7.852a35.852,35.852,0,0,0-29.719,5.552l-14.658-54.7,18.611-14.253a23.877,23.877,0,0,1,18.234-4.971l59.406,16.164a13.712,13.712,0,1,1-7.2,26.46L97.7,194.735a4,4,0,0,0-2.1,7.725l31.877,8.675A21.776,21.776,0,0,0,153.438,198l58.232-33.615a12.017,12.017,0,0,1,12.012,20.817ZM142.753,35.819A51.546,51.546,0,1,0,194.3,87.366a51.546,51.546,0,0,0-51.543-51.547Zm0,95.08a43.545,43.545,0,1,1,43.537-43.534A43.537,43.537,0,0,1,142.753,130.9Zm0-82.2a38.668,38.668,0,1,0,38.668,38.671A38.668,38.668,0,0,0,142.753,48.7Zm0,69.329a30.663,30.663,0,1,1,30.66-30.658,30.664,30.664,0,0,1-30.66,30.658Zm12.262-23.233a11.454,11.454,0,0,1-8.258,10.983v1.31a4,4,0,0,1-8.008,0V105.95a11.5,11.5,0,0,1-6.769-4.472,4,4,0,1,1,6.48-4.7,3.445,3.445,0,0,0,2.776,1.438h2.34a3.426,3.426,0,0,0,0-6.851h-1.662a11.431,11.431,0,0,1-3.17-22.425V67.63a4,4,0,1,1,8.008,0v1.134a11.51,11.51,0,0,1,6.772,4.472,4,4,0,1,1-6.488,4.69,3.445,3.445,0,0,0-2.779-1.435h-2.34a3.426,3.426,0,1,0,0,6.851h1.662a11.442,11.442,0,0,1,11.437,11.448ZM90.266,124.238l-2.646-1.117a65.716,65.716,0,0,0,96.668,15.154,4,4,0,1,1,5.065,6.2A73.73,73.73,0,0,1,79.916,125.9l-1.061,3.865A4,4,0,0,1,75,132.711a3.954,3.954,0,0,1-1.063-.145,4,4,0,0,1-2.8-4.92l3.757-13.688a4.007,4.007,0,0,1,5.422-2.629l13.073,5.535a4,4,0,0,1-3.119,7.373Zm-20.3-25.1a74.652,74.652,0,0,1-.941-11.783,73.815,73.815,0,0,1,71.745-73.7l-2.813-2.836a4.006,4.006,0,0,1,5.706-5.626l9.976,10.1a4,4,0,0,1-.437,6.006l-11.343,8.555a4,4,0,1,1-4.821-6.392l2.291-1.73A65.761,65.761,0,0,0,77.877,97.865a4,4,0,0,1-3.318,4.585,3.787,3.787,0,0,1-.641.054,4,4,0,0,1-3.947-3.358Zm93.807-78.383a4.01,4.01,0,0,1,5.167-2.32A73.772,73.772,0,0,1,207.582,122.5l3.851-1.007a4,4,0,0,1,2.028,7.747l-13.748,3.584a4.115,4.115,0,0,1-1.012.13,4.01,4.01,0,0,1-3.97-3.513l-1.741-14.088a4,4,0,1,1,7.94-.984l.354,2.881a65.222,65.222,0,0,0,7.186-29.883A66.073,66.073,0,0,0,166.1,25.916a4,4,0,0,1-2.32-5.164Z" transform="translate(29.551 0)" fill="#006cb7"/>
      <circle id="Ellipse_3" data-name="Ellipse 3" cx="8.5" cy="8.5" r="8.5" transform="translate(94.701 87.153)" fill="#006cb7"/>
      <circle id="Ellipse_4" data-name="Ellipse 4" cx="8.5" cy="8.5" r="8.5" transform="translate(191.701 16.153)" fill="#006cb7"/>
      <circle id="Ellipse_5" data-name="Ellipse 5" cx="8.5" cy="8.5" r="8.5" transform="translate(204.701 136.153)" fill="#006cb7"/>
    </g>
  </g>
</svg>
