<svg xmlns="http://www.w3.org/2000/svg" width="865" height="627" viewBox="0 0 865 627">
  <g id="Box_2" transform="translate(0.291 8.067)">
    <g id="Group_621" data-name="Group 621" transform="translate(0 0)">
      <rect id="Rectangle_3" data-name="Rectangle 3" width="865" height="428" rx="33" transform="translate(-0.291 190.933)" fill="#006cb7"/>
      <g id="Ellipse_1" data-name="Ellipse 1" transform="translate(240.709 -0.067)" fill="#fff" stroke="#006cb7" stroke-width="8">
        <circle cx="192" cy="192" r="192" stroke="none"/>
        <circle cx="192" cy="192" r="196" fill="none"/>
      </g>
    </g>
    <text id="Happy_customers" data-name="Happy customers" transform="translate(427.709 519.933)" fill="#fff" font-size="92" font-family="BoschSans-Bold, Bosch Sans" font-weight="700" letter-spacing="-0.04em"><tspan x="-373" y="0">Happy customers</tspan></text>
    <g id="Icon_2">
      <path id="Path_736" data-name="Path 736" d="M227.208,157.823a30.628,30.628,0,1,0-34.321.026,53.628,53.628,0,0,0-28.914,23.778,53,53,0,0,0-13.167-6.68,30.628,30.628,0,1,0-34.358,0,53.108,53.108,0,0,0-13.167,6.683,53.628,53.628,0,0,0-28.914-23.778,30.628,30.628,0,1,0-34.321-.026A53.3,53.3,0,0,0,4,208.191a4.067,4.067,0,0,0,4.067,4.067H82.029a53.179,53.179,0,0,0-1.622,13.057,4.067,4.067,0,0,0,4.067,4.067h98.3a4.067,4.067,0,0,0,4.067-4.067,53.2,53.2,0,0,0-1.622-13.057h73.962a4.067,4.067,0,0,0,4.067-4.067A53.313,53.313,0,0,0,227.208,157.823Zm-39.676-25.342a22.5,22.5,0,1,1,22.5,22.5A22.524,22.524,0,0,1,187.532,132.481Zm-76.407,17.124a22.5,22.5,0,1,1,22.511,22.5h-.023A22.526,22.526,0,0,1,111.125,149.605Zm-76.4-17.124a22.5,22.5,0,1,1,22.5,22.5A22.524,22.524,0,0,1,34.72,132.481Zm-22.4,71.643A45.053,45.053,0,0,1,96.881,186.85a53.474,53.474,0,0,0-12.069,17.271h-72.5Zm76.4,17.122A45.145,45.145,0,0,1,133.61,180.23h.017a45.143,45.143,0,0,1,44.889,41.015Zm93.708-17.122a53.443,53.443,0,0,0-12.069-17.271,45.055,45.055,0,0,1,84.568,17.274h-72.5ZM114.253,73.057l-4.845,20.656a4.066,4.066,0,0,0,6.066,4.4l18.147-10.989,18.15,10.989a4.068,4.068,0,0,0,6.066-4.407l-4.845-20.656L169.054,59.19a4.068,4.068,0,0,0-2.316-7.132L145.6,50.284l-8.221-19.558a4.064,4.064,0,0,0-7.495,0l-8.221,19.558-21.143,1.774A4.068,4.068,0,0,0,98.2,59.19Zm10.531-14.872a4.06,4.06,0,0,0,3.408-2.477l5.43-12.91,5.427,12.91a4.073,4.073,0,0,0,3.408,2.477l13.956,1.172-10.6,9.151a4.064,4.064,0,0,0-1.3,4.007l3.2,13.636L135.727,78.9a4.066,4.066,0,0,0-4.211,0l-11.98,7.256,3.2-13.636a4.064,4.064,0,0,0-1.3-4.007l-10.6-9.151Zm65.873-2.25-4.845,20.656a4.066,4.066,0,0,0,6.066,4.4l18.147-10.989L228.173,81a4.068,4.068,0,0,0,6.066-4.407l-4.845-20.656,16.061-13.864a4.068,4.068,0,0,0-2.316-7.132L222,33.162,213.776,13.6a4.064,4.064,0,0,0-7.495,0L198.06,33.162l-21.143,1.774a4.068,4.068,0,0,0-2.316,7.132Zm10.534-14.872a4.06,4.06,0,0,0,3.408-2.477l5.427-12.913,5.427,12.913a4.073,4.073,0,0,0,3.408,2.477l13.956,1.172-10.6,9.151a4.064,4.064,0,0,0-1.3,4.007l3.2,13.636-11.974-7.256a4.066,4.066,0,0,0-4.211,0l-11.98,7.256,3.2-13.636a4.064,4.064,0,0,0-1.3-4.007l-10.6-9.151ZM37.846,55.935,33,76.591A4.067,4.067,0,0,0,39.067,81L57.214,70.009,75.361,81a4.066,4.066,0,0,0,6.066-4.4L76.582,55.938,92.644,42.074a4.068,4.068,0,0,0-2.316-7.132L69.185,33.168,60.964,13.609a4.064,4.064,0,0,0-7.495,0L45.248,33.168,24.106,34.942a4.068,4.068,0,0,0-2.316,7.132ZM48.379,41.063a4.06,4.06,0,0,0,3.408-2.477l5.427-12.913,5.427,12.913a4.073,4.073,0,0,0,3.408,2.477L80,42.235,69.4,51.387a4.064,4.064,0,0,0-1.3,4.007L71.3,69.03,59.322,61.774a4.072,4.072,0,0,0-4.214,0L43.128,69.03l3.2-13.636a4.064,4.064,0,0,0-1.3-4.007l-10.6-9.151Z" transform="translate(299.002 68.03)" fill="#006cb7"/>
      <circle id="Ellipse_12" data-name="Ellipse 12" cx="10" cy="10" r="10" transform="translate(344.709 264.933)" fill="#006cb7"/>
      <circle id="Ellipse_13" data-name="Ellipse 13" cx="10" cy="10" r="10" transform="translate(422.709 282.933)" fill="#006cb7"/>
      <circle id="Ellipse_14" data-name="Ellipse 14" cx="10" cy="10" r="10" transform="translate(500.709 264.933)" fill="#006cb7"/>
    </g>
  </g>
</svg>
