<svg xmlns="http://www.w3.org/2000/svg" xmlns:xlink="http://www.w3.org/1999/xlink" width="163.873" height="300.483" viewBox="0 0 163.873 300.483">
  <defs>
    <clipPath id="clip-path">
      <rect id="Rectangle_321" data-name="Rectangle 321" width="100.37" height="114.104" fill="#e0e0e0"/>
    </clipPath>
    <clipPath id="clip-path-2">
      <rect id="Rectangle_49" data-name="Rectangle 49" width="76.027" height="171.851" fill="none"/>
    </clipPath>
    <clipPath id="clip-path-3">
      <rect id="Rectangle_45" data-name="Rectangle 45" width="46.674" height="58.677" fill="none"/>
    </clipPath>
    <clipPath id="clip-path-4">
      <rect id="Rectangle_46" data-name="Rectangle 46" width="51.682" height="36.47" fill="none"/>
    </clipPath>
  </defs>
  <g id="element_06" transform="translate(2164.945 12402.25)">
    <g id="Group_400" data-name="Group 400" transform="translate(-2164.945 -12402.25)">
      <g id="Group_343" data-name="Group 343" opacity="0.423" clip-path="url(#clip-path)">
        <path id="Path_405" data-name="Path 405" d="M27.9,64.336a4.069,4.069,0,1,1,1.538,5.546A4.071,4.071,0,0,1,27.9,64.336" transform="translate(19.206 43.694)" fill="#bebbbb"/>
        <path id="Path_406" data-name="Path 406" d="M54.455,17.4a4.069,4.069,0,1,1,1.538,5.546A4.071,4.071,0,0,1,54.455,17.4" transform="translate(37.84 10.758)" fill="#bebbbb"/>
        <path id="Path_407" data-name="Path 407" d="M54.727,48.533a4.07,4.07,0,1,1,1.538,5.546,4.071,4.071,0,0,1-1.538-5.546" transform="translate(38.031 32.605)" fill="#00a8b0"/>
        <path id="Path_408" data-name="Path 408" d="M34.44,6.074A4.07,4.07,0,1,1,32.9.528,4.071,4.071,0,0,1,34.44,6.074" transform="translate(18.825 -0.001)" fill="#bebbbb"/>
        <path id="Path_409" data-name="Path 409" d="M7.883,53.012a4.07,4.07,0,1,1-1.538-5.546,4.071,4.071,0,0,1,1.538,5.546" transform="translate(0.19 32.936)" fill="#bebbbb"/>
        <path id="Path_410" data-name="Path 410" d="M7.612,21.876a4.069,4.069,0,1,1-1.538-5.546,4.069,4.069,0,0,1,1.538,5.546" transform="translate(0 11.088)" fill="#bebbbb"/>
        <path id="Path_411" data-name="Path 411" d="M99.7,59.91a4.06,4.06,0,0,0-1.161-1.258,3.711,3.711,0,0,0-.427-.282,4.06,4.06,0,0,0-4.025.014l0-.007c-1.225.7-3.458.185-5.294-.944-1.62-1.021-2.91-2.524-2.884-4.089l-.005.009c0-.09.007-.18.005-.272-.087-3.349,5.833-6.492,8.183-5.2l0-.007a4.065,4.065,0,0,0,3.96-7.1c-.032-.02-.061-.043-.1-.061a4.066,4.066,0,0,0-6.07,3.524l0,0c-.014,2.59-5.267,6.085-8.223,4.778-.07-.034-.14-.066-.206-.107-.146-.087-.3-.165-.451-.238a5.08,5.08,0,0,0-4.773.129l.005-.009a4.557,4.557,0,0,1-3.807.386,3.894,3.894,0,0,1-1.746-1.363l-.056.019a5.069,5.069,0,0,1-.907-3.174c0-.129-.005-.257-.01-.386l.007.012c-.158-4.195,3.49-5.85,6.443-4.253l0-.005a5.084,5.084,0,1,0-2.66-4.516l0,0c-.032,3.357-3.25,5.747-6.841,3.574l.007.014c-.056-.036-.109-.073-.167-.107s-.117-.056-.175-.087l.014,0c-3.71-1.959-3.322-5.947-.461-7.7h0a5.067,5.067,0,0,0,2.418-4.511l.005.01c-.111-3.356,5.825-6.518,8.18-5.228l0-.005a4.069,4.069,0,1,0-2.112-3.582l0,0c-.012,2.687-5.655,6.344-8.537,4.62l.007.009c-.039-.022-.073-.048-.112-.07s-.08-.039-.119-.06h.01c-2.961-1.583-2.731-8.3-.437-9.7h0a4.07,4.07,0,1,0-4.159.036l-.005,0c2.319,1.353,2.665,8.069-.267,9.7h.01a5.055,5.055,0,0,0-2.621,4.4l0,0c-.032,3.356-3.25,5.745-6.841,3.574l.007.012c-.056-.036-.109-.073-.167-.106s-.117-.058-.175-.088h.014c-3.71-1.96-3.322-5.947-.461-7.705h0a5.087,5.087,0,1,0-5.24.046h-.007c2.891,1.707,3.351,5.687-.327,7.712h.014c-.112.061-.226.121-.335.189-3.551,2.229-6.807-.1-6.9-3.456l-.005.01a5.081,5.081,0,0,0-2.575-4.3c-.039-.022-.08-.037-.119-.058l.01,0c-2.961-1.581-2.731-8.3-.436-9.7h-.005a4.068,4.068,0,1,0-4.157.036h0c2.318,1.355,2.665,8.071-.269,9.7h.01c-.078.044-.158.085-.237.133-2.854,1.756-8.543-1.8-8.6-4.477l-.005.007a4.068,4.068,0,1,0-2.044,3.613l0,.007c2.33-1.329,8.3,1.717,8.269,5.068A5.084,5.084,0,0,0,32.037,31.5h-.007c2.891,1.707,3.351,5.687-.327,7.71h.014c-.112.061-.225.121-.335.189-3.55,2.229-6.807-.1-6.9-3.454l-.005.009a5.086,5.086,0,1,0-2.575,4.552l-.005.009c2.922-1.651,6.6-.06,6.514,4.13,0,.129.005.259.01.388l-.007-.012c.158,4.193-3.49,5.849-6.443,4.251l.005.007a5.084,5.084,0,0,0-5.117.148c-2.85,1.77-8.553-1.787-8.614-4.47l0,.007A4.068,4.068,0,1,0,6.2,48.578l0,.007c2.33-1.329,8.3,1.717,8.269,5.066,0,.092.005.182.009.274l-.005-.01c.111,3.356-5.825,6.518-8.18,5.228l0,0A4.071,4.071,0,1,0,8.4,62.729l0,0c.012-2.685,5.656-6.342,8.536-4.618l-.005-.01c.037.024.073.049.112.071a5.079,5.079,0,0,0,5.01-.005l-.005.009c2.924-1.649,6.6-.058,6.516,4.135,0,.128,0,.255.01.383l-.009-.01c.158,4.193-3.488,5.849-6.441,4.251l0,.005a5.084,5.084,0,1,0,2.66,4.516l0,0c.032-3.357,3.25-5.745,6.841-3.574l-.007-.014c.056.036.107.075.165.107s.117.056.177.087h-.015c3.711,1.96,3.322,5.947.461,7.705h0A5.067,5.067,0,0,0,30,80.282l0-.01c.109,3.356-5.825,6.518-8.182,5.228l0,0a4.072,4.072,0,1,0,2.11,3.584l0,0c.014-2.685,5.656-6.342,8.537-4.618l-.005-.009c.037.022.073.048.112.07s.078.039.119.06h-.012c2.963,1.583,2.733,8.3.437,9.7h0a4.068,4.068,0,1,0,4.159-.037l0,0c-2.319-1.355-2.665-8.071.269-9.7h-.012a5.061,5.061,0,0,0,2.622-4.4v0c.034-3.356,3.25-5.745,6.843-3.574L47,76.569c.054.036.107.073.165.105s.117.058.177.089h-.015c3.711,1.96,3.322,5.947.461,7.705h0a5.087,5.087,0,1,0,5.24-.046h.009c-2.891-1.707-3.351-5.687.325-7.712h-.012c.111-.061.225-.121.334-.189a5.922,5.922,0,0,1,1.549-.7l.009.036a4.242,4.242,0,0,1,2.5-.007,1,1,0,0,1,.1.036c.06.02.116.044.174.068a4.389,4.389,0,0,1,2.564,4.021l0-.008a5.078,5.078,0,0,0,2.576,4.3c.037.022.078.039.117.06h-.01c2.961,1.583,2.731,8.3.437,9.7h0a4.149,4.149,0,1,0,4.528.208c-.066-.049-.138-.094-.209-.14-.037-.024-.071-.051-.109-.073h0c-2.318-1.358-2.656-8.075.277-9.7h-.01c.039-.022.08-.039.117-.061s.073-.049.111-.073l-.005.009c1.513-.938,3.824-.378,5.672.756,1.612,1,2.857,2.437,2.886,3.682l0-.007A4.068,4.068,0,0,0,78.3,91.531c.075.073.155.14.235.206l.056.046a4.066,4.066,0,0,0,5.153-6.289c-.034-.031-.071-.06-.109-.09s-.088-.071-.133-.1a4,4,0,0,0-4.481-.291l0-.007c-1.232.7-3.483.18-5.325-.961-1.618-1.023-2.907-2.524-2.881-4.089l-.005.01a5.061,5.061,0,0,0-2.491-4.47h0c-2.888-1.71-3.344-5.69.335-7.712h-.015c.058-.031.117-.056.175-.09s.109-.073.165-.109l-.007.014a4.591,4.591,0,0,1,4.465-.511,4.424,4.424,0,0,1,2.36,3.931l0-.008a5.138,5.138,0,1,0,2.655-4.511l.005-.007c-2.925,1.647-6.6.051-6.511-4.145l-.007.012c0-.128.008-.255,0-.385-.151-4.191,3.5-5.842,6.446-4.241l-.005-.009a5.076,5.076,0,0,0,5.008-.077c.039-.022.075-.049.111-.071l-.005.009c1.426-.885,3.563-.437,5.352.567,1.751,1,3.148,2.534,3.179,3.856l0-.007a4.073,4.073,0,0,0,1.409,2.986l0,0c.08.07.158.138.245.2a4.069,4.069,0,0,0,6-5.277M30.011,57.556a3.918,3.918,0,1,1,3.866-3.968,3.917,3.917,0,0,1-3.866,3.968m7.981-24.983A3.917,3.917,0,1,1,36.6,37.936a3.915,3.915,0,0,1,1.392-5.362M36.276,51.445a3.934,3.934,0,1,1,1.487,5.362,3.933,3.933,0,0,1-1.487-5.362M43.6,72.931a3.918,3.918,0,1,1-1.48-5.338,3.917,3.917,0,0,1,1.48,5.338m4.826-8.444a3.935,3.935,0,1,1-1.487-5.362,3.935,3.935,0,0,1,1.487,5.362m0-18.191a3.935,3.935,0,1,1-1.487-5.362A3.935,3.935,0,0,1,48.425,46.3m8.359-12.4a3.917,3.917,0,1,1,1.48,5.338,3.917,3.917,0,0,1-1.48-5.338m-4.894,8.522a3.934,3.934,0,1,1,1.486,5.362,3.933,3.933,0,0,1-1.486-5.362m1.486,23.41a3.935,3.935,0,1,1,5.362-1.487c-.037.065-.08.126-.119.187a3.291,3.291,0,0,1-2.153,1.634,3.928,3.928,0,0,1-3.09-.334m9.016,8.427a3.918,3.918,0,1,1,1.392-5.364,3.919,3.919,0,0,1-1.392,5.364m2.076-19.081a3.935,3.935,0,1,1-1.487-5.362,3.936,3.936,0,0,1,1.487,5.362m6.007,1.931a3.918,3.918,0,1,1,3.866-3.97,3.918,3.918,0,0,1-3.866,3.97" transform="translate(0.079 3.596)" fill="#c3bfbf"/>
      </g>
      <g id="Group_342" data-name="Group 342" transform="translate(12.447 52.773)">
        <g id="Group_304" data-name="Group 304" transform="translate(0 0)">
          <g id="Group_28" data-name="Group 28" transform="translate(0 0)" clip-path="url(#clip-path-2)">
            <path id="Path_86" data-name="Path 86" d="M60.358,34.312c-.06,0-.119-.005-.179-.005A37.855,37.855,0,0,0,22.33,71.8c.06,0,.119,0,.179,0a37.853,37.853,0,0,0,37.849-37.49" transform="translate(15.669 24.073)" fill="#33b071" fill-rule="evenodd"/>
            <path id="Path_87" data-name="Path 87" d="M0,34.312c.06,0,.119-.005.179-.005A37.855,37.855,0,0,1,38.028,71.8c-.06,0-.119,0-.179,0A37.853,37.853,0,0,1,0,34.312" transform="translate(0 24.073)" fill="#33b071" fill-rule="evenodd"/>
            <path id="Path_88" data-name="Path 88" d="M60.358,11.641c-.06,0-.119-.005-.179-.005A37.855,37.855,0,0,0,22.33,49.128c.06,0,.119,0,.179,0a37.853,37.853,0,0,0,37.849-37.49" transform="translate(15.669 8.165)" fill="#33b071" fill-rule="evenodd"/>
            <path id="Path_89" data-name="Path 89" d="M0,11.641c.06,0,.119-.005.179-.005A37.855,37.855,0,0,1,38.028,49.128c-.06,0-.119,0-.179,0A37.853,37.853,0,0,1,0,11.641" transform="translate(0 8.165)" fill="#33b071" fill-rule="evenodd"/>
            <path id="Path_90" data-name="Path 90" d="M19.774,4.255h0A4.255,4.255,0,1,0,21.9.571a4.255,4.255,0,0,0-2.127,3.684" transform="translate(13.875 0.001)" fill="#33b071" fill-rule="evenodd"/>
            <line id="Line_1" data-name="Line 1" y2="96.578" transform="translate(38.014 0.9)" fill="none" stroke="#33b071" stroke-width="1.5"/>
            <path id="Path_91" data-name="Path 91" d="M0,56.311a38.014,38.014,0,0,0,76.027,0Z" transform="translate(0 39.513)" fill="#007ec3" fill-rule="evenodd"/>
            <path id="Path_92" data-name="Path 92" d="M76.027,116.7A38.236,38.236,0,0,0,38.013,78.6,38.235,38.235,0,0,0,0,116.7Z" transform="translate(0 55.154)" fill="#b81e78" fill-rule="evenodd"/>
          </g>
        </g>
      </g>
    </g>
    <g id="Group_398" data-name="Group 398" transform="translate(-2076.712 -12254.08)">
      <rect id="Rectangle_323" data-name="Rectangle 323" width="76.454" height="75.421" transform="translate(75.421) rotate(90)" fill="#502c7e"/>
      <g id="Group_345" data-name="Group 345" transform="translate(14.897 6.989)">
        <g id="Group_19" data-name="Group 19" transform="translate(0 0)" clip-path="url(#clip-path-3)">
          <path id="Path_52" data-name="Path 52" d="M18.786.725l1.859,3.768a1.306,1.306,0,0,0,.979.713l4.159.6a1.3,1.3,0,0,1,.722,2.22L23.5,10.963a1.3,1.3,0,0,0-.374,1.151l.71,4.142a1.3,1.3,0,0,1-1.888,1.371l-3.719-1.954a1.3,1.3,0,0,0-1.212,0l-3.719,1.954a1.3,1.3,0,0,1-1.888-1.371l.71-4.142a1.3,1.3,0,0,0-.374-1.151L8.732,8.03a1.3,1.3,0,0,1,.722-2.22l4.159-.6a1.3,1.3,0,0,0,.979-.713L16.451.725a1.3,1.3,0,0,1,2.335,0" transform="translate(5.718 -0.001)" fill="#fff" fill-rule="evenodd"/>
          <path id="Path_53" data-name="Path 53" d="M27.38,7.289l1.013,2.053a.711.711,0,0,0,.534.389l2.267.329a.709.709,0,0,1,.393,1.21l-1.64,1.6a.714.714,0,0,0-.2.629l.388,2.257a.71.71,0,0,1-1.03.748l-2.028-1.067a.712.712,0,0,0-.659,0L24.386,16.5a.709.709,0,0,1-1.028-.748l.386-2.257a.709.709,0,0,0-.2-.629l-1.64-1.6a.709.709,0,0,1,.393-1.21l2.267-.329a.708.708,0,0,0,.534-.389l1.013-2.053a.71.71,0,0,1,1.273,0" transform="translate(14.87 4.727)" fill="#fff" fill-rule="evenodd"/>
          <path id="Path_54" data-name="Path 54" d="M5.695,7.289,6.708,9.342a.711.711,0,0,0,.534.389l2.267.329a.709.709,0,0,1,.393,1.21l-1.64,1.6a.714.714,0,0,0-.2.629l.388,2.257a.71.71,0,0,1-1.03.748L5.388,15.436a.712.712,0,0,0-.659,0L2.7,16.5a.709.709,0,0,1-1.028-.748L2.059,13.5a.709.709,0,0,0-.2-.629l-1.64-1.6a.709.709,0,0,1,.393-1.21l2.267-.329a.708.708,0,0,0,.534-.389L4.422,7.289a.71.71,0,0,1,1.273,0" transform="translate(0 4.727)" fill="#fff" fill-rule="evenodd"/>
          <path id="Path_55" data-name="Path 55" d="M20.779,16.836a11.139,11.139,0,0,1,3.334-2.192,11.61,11.61,0,0,1,16.124,9.535,11.049,11.049,0,0,1-3.2,9.181C32.027,38.446,26.949,43.467,21.9,48.511a2.5,2.5,0,0,1-4.289-1.92,2.559,2.559,0,0,1,.821-1.677q2.832-2.817,5.652-5.644c.157-.158.315-.315.472-.474.393-.4.474-.754.2-.978-.383-.312-.664-.084-.944.2-.942.951-1.893,1.895-2.841,2.841C19.825,42,18.7,43.145,17.546,44.27a2.489,2.489,0,0,1-3.94-2.95,3.089,3.089,0,0,1,.555-.711q3.034-3.052,6.081-6.094c.034-.034.069-.066.1-.1.282-.258.416-.565.121-.872s-.6-.18-.872.091Q18.415,34.825,17.231,36c-1.32,1.318-2.635,2.643-3.962,3.951a2.364,2.364,0,0,1-2.6.578,2.376,2.376,0,0,1-1.628-2.008,2.437,2.437,0,0,1,.769-2.166q3.047-3.042,6.091-6.084c.479-.479.556-.765.27-1.042s-.55-.194-1.042.3Q12.065,32.591,9,35.646a2.37,2.37,0,0,1-2.6.609,2.388,2.388,0,0,1-1.667-2.082,2.33,2.33,0,0,1,.693-2.008q4.625-4.64,9.265-9.267a1.48,1.48,0,0,1,2.279.069c1.684,1.676,3.355,3.363,5.042,5.034a6.585,6.585,0,0,0,7.942,1,1.67,1.67,0,0,0,.354-2.8q-4.493-4.5-9-8.992a4.024,4.024,0,0,0-.533-.369" transform="translate(3.233 9.398)" fill="#fff"/>
          <path id="Path_56" data-name="Path 56" d="M5.569,33.825a11.209,11.209,0,0,1-2.842-4.1A11.5,11.5,0,0,1,9.639,14.4a11.093,11.093,0,0,1,12.07,2.79c3.243,3.181,6.431,6.418,9.644,9.631.651.649.6.968-.221,1.4a5.48,5.48,0,0,1-6.372-.947c-1.74-1.686-3.436-3.419-5.152-5.128a2.372,2.372,0,0,0-2.355-.72,2.926,2.926,0,0,0-1.285.676c-3.144,3.1-6.258,6.231-9.378,9.354a3.868,3.868,0,0,0-1.022,2.372" transform="translate(1.277 9.382)" fill="#fff"/>
        </g>
      </g>
    </g>
    <g id="Group_401" data-name="Group 401" transform="translate(-2152.588 -12177.626)">
      <rect id="Rectangle_322" data-name="Rectangle 322" width="75.657" height="75.657" transform="translate(75.657 0) rotate(90)" fill="#007ec3"/>
      <g id="Group_344" data-name="Group 344" transform="translate(12.125 19.687)">
        <g id="Group_21" data-name="Group 21" transform="translate(0 0)" clip-path="url(#clip-path-4)">
          <path id="Path_57" data-name="Path 57" d="M44.277,13.426c0-.123.01-.245.01-.369A13.053,13.053,0,0,0,37.544,1.628l-10.8,10.71v7.268a3.013,3.013,0,1,1-1.9-.045V11.544L35.7.786A13.069,13.069,0,0,0,19.773,6.793,7.811,7.811,0,0,0,7.5,13.207c0,.085,0,.168.007.252A11.93,11.93,0,0,0,11.9,36.468v0h1.85V32.954l-4-4a3.013,3.013,0,1,1,1.38-1.311l4.526,4.526V36.47h5.442V30.743l-6.9-6.9V17.9a3.016,3.016,0,1,1,1.9-.088v5.238l6.9,6.9V36.47h5.947v-6.7l6.5-6.5V16.652a3.017,3.017,0,1,1,1.9.078v7.322l-6.5,6.5V36.47H35.7V31.976l4.981-4.981a3.028,3.028,0,1,1,1.34,1.351L37.6,32.763V36.47h2v0c.037,0,.073,0,.11,0a11.974,11.974,0,0,0,4.569-23.043" transform="translate(0 0.001)" fill="#fff"/>
        </g>
      </g>
    </g>
    <g id="Group_399" data-name="Group 399" transform="translate(-2076.931 -12177.626)">
      <path id="Path_413" data-name="Path 413" d="M46.391,30.914H14.126a3.137,3.137,0,0,1,0-6.274H46.391a3.137,3.137,0,0,1,0,6.274" transform="translate(7.671 21.741)" fill="#00a8b0" fill-rule="evenodd"/>
      <path id="Path_414" data-name="Path 414" d="M46.391,37.842H14.126a3.137,3.137,0,0,1,0-6.274H46.391a3.137,3.137,0,0,1,0,6.274" transform="translate(7.671 26.576)" fill="#00a8b0" fill-rule="evenodd"/>
      <path id="Path_415" data-name="Path 415" d="M31.616,44.289H20.087a2.783,2.783,0,1,1,0-5.566H31.616a2.783,2.783,0,1,1,0,5.566" transform="translate(12.077 31.57)" fill="#00a8b0" fill-rule="evenodd"/>
      <path id="Path_412" data-name="Path 412" d="M0,0A38.07,38.07,0,0,0,37.931,37.849,38.069,38.069,0,0,0,75.86,0Z" fill="#00a8b0" fill-rule="evenodd"/>
    </g>
  </g>
</svg>
