<svg xmlns="http://www.w3.org/2000/svg" xmlns:xlink="http://www.w3.org/1999/xlink" width="296.625" height="292.383" viewBox="0 0 296.625 292.383">
  <defs>
    <clipPath id="clip-path">
      <rect id="Rectangle_321" data-name="Rectangle 321" width="130.647" height="148.524" fill="#e0e0e0"/>
    </clipPath>
    <clipPath id="clip-path-2">
      <rect id="Rectangle_49" data-name="Rectangle 49" width="98.961" height="223.691" fill="none"/>
    </clipPath>
    <clipPath id="clip-path-3">
      <rect id="Rectangle_45" data-name="Rectangle 45" width="60.753" height="76.377" fill="none"/>
    </clipPath>
    <clipPath id="clip-path-4">
      <rect id="Rectangle_46" data-name="Rectangle 46" width="67.273" height="47.472" fill="none"/>
    </clipPath>
  </defs>
  <g id="Element_04" transform="translate(2148.861 12303.398)">
    <g id="Group_400" data-name="Group 400" transform="translate(-2066.155 -12303.398)">
      <g id="Group_343" data-name="Group 343" opacity="0.423" clip-path="url(#clip-path)">
        <path id="Path_405" data-name="Path 405" d="M28.058,64.959a5.3,5.3,0,1,1,2,7.219,5.3,5.3,0,0,1-2-7.219" transform="translate(33.256 75.659)" fill="#bebbbb"/>
        <path id="Path_406" data-name="Path 406" d="M54.614,18.021a5.3,5.3,0,1,1,2,7.219,5.3,5.3,0,0,1-2-7.219" transform="translate(65.523 18.628)" fill="#bebbbb"/>
        <path id="Path_407" data-name="Path 407" d="M54.886,49.156a5.3,5.3,0,1,1,2,7.219,5.3,5.3,0,0,1-2-7.219" transform="translate(65.853 56.458)" fill="#00a8b0"/>
        <path id="Path_408" data-name="Path 408" d="M36.736,7.906a5.3,5.3,0,1,1-2-7.219,5.3,5.3,0,0,1,2,7.219" transform="translate(32.597 -0.001)" fill="#bebbbb"/>
        <path id="Path_409" data-name="Path 409" d="M10.179,54.844a5.3,5.3,0,1,1-2-7.219,5.3,5.3,0,0,1,2,7.219" transform="translate(0.329 57.03)" fill="#bebbbb"/>
        <path id="Path_410" data-name="Path 410" d="M9.908,23.709a5.3,5.3,0,1,1-2-7.219,5.3,5.3,0,0,1,2,7.219" transform="translate(0 19.2)" fill="#bebbbb"/>
        <path id="Path_411" data-name="Path 411" d="M129.735,76.436a5.285,5.285,0,0,0-1.511-1.637,4.831,4.831,0,0,0-.556-.368,5.285,5.285,0,0,0-5.239.018l0-.009c-1.595.91-4.5.241-6.891-1.229-2.109-1.329-3.788-3.285-3.754-5.323l-.007.011c0-.117.009-.235.007-.354-.113-4.359,7.593-8.45,10.652-6.771l0-.009a5.292,5.292,0,0,0,5.154-9.243c-.042-.027-.08-.055-.124-.08a5.293,5.293,0,0,0-7.9,4.587l0,0c-.018,3.371-6.856,7.921-10.7,6.22-.091-.044-.182-.086-.268-.14-.19-.113-.388-.215-.587-.31a6.613,6.613,0,0,0-6.213.168l.007-.011a5.932,5.932,0,0,1-4.955.5,5.069,5.069,0,0,1-2.273-1.774l-.073.024a6.6,6.6,0,0,1-1.181-4.131c0-.168-.007-.334-.013-.5l.009.016c-.206-5.46,4.543-7.615,8.386-5.535l0-.007a6.618,6.618,0,1,0-3.462-5.879l0,0c-.042,4.37-4.231,7.48-8.9,4.652l.009.018c-.073-.047-.142-.1-.217-.14s-.153-.073-.228-.113l.018,0c-4.829-2.549-4.324-7.742-.6-10.027h0a6.6,6.6,0,0,0,3.148-5.872l.007.013c-.144-4.368,7.582-8.484,10.648-6.8l0-.007a5.3,5.3,0,1,0-2.749-4.663l0,0c-.016,3.5-7.361,8.258-11.113,6.014l.009.011c-.051-.029-.1-.062-.146-.091s-.1-.051-.155-.078h.013c-3.854-2.06-3.555-10.807-.569-12.623h0A5.3,5.3,0,1,0,81.977,15l-.007,0c3.019,1.761,3.469,10.5-.348,12.63h.013a6.58,6.58,0,0,0-3.411,5.721l0,0c-.042,4.368-4.231,7.478-8.9,4.652l.009.016c-.073-.047-.142-.1-.217-.137s-.153-.075-.228-.115H68.9c-4.829-2.552-4.324-7.742-.6-10.03h0a6.622,6.622,0,1,0-6.82.06h-.009c3.763,2.222,4.361,7.4-.425,10.039h.018c-.146.08-.295.157-.436.246-4.623,2.9-8.86-.133-8.98-4.5l-.007.013A6.614,6.614,0,0,0,48.286,28c-.051-.029-.1-.049-.155-.075l.013,0c-3.854-2.058-3.555-10.8-.567-12.621h-.007a5.3,5.3,0,1,0-5.411.047h0c3.017,1.763,3.469,10.506-.35,12.63h.013c-.1.058-.206.111-.308.173-3.715,2.286-11.119-2.337-11.2-5.828l-.007.009a5.3,5.3,0,1,0-2.66,4.7l0,.009c3.032-1.73,10.8,2.235,10.763,6.6a6.618,6.618,0,0,0,3.263,5.826h-.009c3.763,2.222,4.361,7.4-.425,10.036h.018c-.146.08-.292.157-.436.246-4.621,2.9-8.86-.131-8.978-4.5l-.007.011a6.62,6.62,0,1,0-3.351,5.925l-.007.011c3.8-2.149,8.585-.078,8.479,5.376,0,.168.007.337.013.505l-.009-.016c.206,5.458-4.543,7.613-8.386,5.533l.007.009a6.617,6.617,0,0,0-6.661.193c-3.71,2.3-11.133-2.326-11.212-5.819l0,.009a5.3,5.3,0,1,0-2.66,4.7l0,.009c3.032-1.73,10.8,2.235,10.763,6.594,0,.12.007.237.011.357l-.007-.013c.144,4.368-7.582,8.484-10.648,6.8l0,0a5.3,5.3,0,1,0,2.749,4.665l0,0c.016-3.5,7.363-8.255,11.111-6.012l-.007-.013c.049.031.1.064.146.093a6.611,6.611,0,0,0,6.521-.007l-.007.011c3.805-2.146,8.588-.075,8.481,5.383,0,.166,0,.332.013.5l-.011-.013c.206,5.458-4.541,7.613-8.384,5.533l0,.007a6.618,6.618,0,1,0,3.462,5.879l0,0c.042-4.37,4.231-7.478,8.9-4.652l-.009-.018c.073.047.14.1.215.14s.153.073.23.113h-.02c4.831,2.552,4.324,7.742.6,10.03h0a6.6,6.6,0,0,0-3.148,5.872l0-.013c.142,4.368-7.582,8.484-10.65,6.8l0,0a5.3,5.3,0,1,0,2.747,4.665l0,0c.018-3.5,7.363-8.255,11.113-6.012l-.007-.011c.049.029.1.062.146.091s.1.051.155.078h-.016c3.856,2.06,3.557,10.807.569,12.623h0a5.3,5.3,0,1,0,5.414-.049l0,0c-3.019-1.763-3.469-10.506.35-12.632h-.016a6.588,6.588,0,0,0,3.413-5.721v0c.044-4.368,4.231-7.478,8.907-4.652l-.009-.016c.071.047.14.1.215.137s.153.075.23.115h-.02c4.831,2.552,4.324,7.742.6,10.03h0a6.622,6.622,0,1,0,6.82-.06H69c-3.763-2.222-4.361-7.4.423-10.039h-.016c.144-.08.292-.157.434-.246a7.709,7.709,0,0,1,2.016-.91l.011.047a5.521,5.521,0,0,1,3.261-.009,1.307,1.307,0,0,1,.131.047c.078.027.151.058.226.089a5.713,5.713,0,0,1,3.338,5.234l0-.011a6.61,6.61,0,0,0,3.354,5.593c.049.029.1.051.153.078h-.013c3.854,2.06,3.555,10.807.569,12.623h0a5.4,5.4,0,1,0,5.894.27c-.086-.064-.179-.122-.272-.182-.049-.031-.093-.066-.142-.1h0c-3.017-1.768-3.458-10.51.361-12.63h-.013c.051-.029.1-.051.153-.08s.1-.064.144-.1l-.007.011c1.969-1.22,4.977-.492,7.383.983,2.1,1.3,3.719,3.172,3.757,4.793l0-.009a5.3,5.3,0,0,0,1.721,3.79c.1.1.2.182.306.268l.073.06a5.293,5.293,0,0,0,6.707-8.187c-.044-.04-.093-.078-.142-.117s-.115-.093-.173-.135a5.212,5.212,0,0,0-5.832-.379l0-.009c-1.6.915-4.534.235-6.931-1.251-2.106-1.331-3.783-3.285-3.75-5.323l-.007.013A6.588,6.588,0,0,0,88.9,96.717h0c-3.759-2.226-4.353-7.407.436-10.039h-.02c.075-.04.153-.073.228-.117s.142-.1.215-.142l-.009.018a5.976,5.976,0,0,1,5.812-.665,5.759,5.759,0,0,1,3.072,5.117l0-.011a6.688,6.688,0,1,0,3.455-5.872L102.1,85c-3.808,2.144-8.592.066-8.475-5.4l-.009.015c0-.166.011-.332,0-.5-.2-5.456,4.552-7.6,8.391-5.52l-.007-.011a6.608,6.608,0,0,0,6.519-.1c.051-.029.1-.064.144-.093l-.007.011c1.856-1.152,4.638-.569,6.966.738,2.279,1.307,4.1,3.3,4.138,5.019l0-.009a5.3,5.3,0,0,0,1.834,3.887l0,0c.1.091.206.179.319.264a5.3,5.3,0,0,0,7.81-6.869M39.03,73.372a5.1,5.1,0,1,1,5.033-5.165,5.1,5.1,0,0,1-5.033,5.165M49.418,40.854a5.1,5.1,0,1,1-1.812,6.98,5.1,5.1,0,0,1,1.812-6.98M47.186,65.418a5.121,5.121,0,1,1,1.936,6.98,5.12,5.12,0,0,1-1.936-6.98m9.531,27.967a5.1,5.1,0,1,1-1.927-6.949,5.1,5.1,0,0,1,1.927,6.949M63,82.394a5.122,5.122,0,1,1-1.936-6.98A5.122,5.122,0,0,1,63,82.394m0-23.679a5.122,5.122,0,1,1-1.936-6.98A5.122,5.122,0,0,1,63,58.716m10.88-16.136a5.1,5.1,0,1,1,1.927,6.949,5.1,5.1,0,0,1-1.927-6.949m-6.37,11.093a5.121,5.121,0,1,1,1.934,6.98,5.119,5.119,0,0,1-1.934-6.98m1.934,30.472a5.122,5.122,0,1,1,6.98-1.936c-.049.084-.1.164-.155.244a4.284,4.284,0,0,1-2.8,2.126,5.113,5.113,0,0,1-4.022-.434M81.177,95.113a5.1,5.1,0,1,1,1.812-6.982,5.1,5.1,0,0,1-1.812,6.982m2.7-24.837a5.122,5.122,0,1,1-1.936-6.98,5.124,5.124,0,0,1,1.936,6.98M91.7,72.79a5.1,5.1,0,1,1,5.033-5.168A5.1,5.1,0,0,1,91.7,72.79" transform="translate(0.136 6.226)" fill="#c3bfbf"/>
      </g>
      <g id="Group_342" data-name="Group 342" transform="translate(16.202 68.692)">
        <g id="Group_304" data-name="Group 304" transform="translate(0 0)">
          <g id="Group_28" data-name="Group 28" transform="translate(0 0)" clip-path="url(#clip-path-2)">
            <path id="Path_86" data-name="Path 86" d="M71.829,34.314c-.078,0-.155-.007-.233-.007a49.275,49.275,0,0,0-49.267,48.8c.078,0,.155,0,.233,0a49.271,49.271,0,0,0,49.267-48.8" transform="translate(27.132 41.684)" fill="#33b071" fill-rule="evenodd"/>
            <path id="Path_87" data-name="Path 87" d="M0,34.314c.078,0,.155-.007.233-.007A49.275,49.275,0,0,1,49.5,83.109c-.078,0-.155,0-.233,0A49.271,49.271,0,0,1,0,34.314" transform="translate(0 41.684)" fill="#33b071" fill-rule="evenodd"/>
            <path id="Path_88" data-name="Path 88" d="M71.829,11.643c-.078,0-.155-.007-.233-.007a49.275,49.275,0,0,0-49.267,48.8c.078,0,.155,0,.233,0a49.271,49.271,0,0,0,49.267-48.8" transform="translate(27.132 14.138)" fill="#33b071" fill-rule="evenodd"/>
            <path id="Path_89" data-name="Path 89" d="M0,11.643c.078,0,.155-.007.233-.007A49.275,49.275,0,0,1,49.5,60.438c-.078,0-.155,0-.233,0A49.271,49.271,0,0,1,0,11.643" transform="translate(0 14.138)" fill="#33b071" fill-rule="evenodd"/>
            <path id="Path_90" data-name="Path 90" d="M19.774,5.539h0a5.539,5.539,0,1,0,2.769-4.8,5.539,5.539,0,0,0-2.769,4.8" transform="translate(24.026 0.001)" fill="#33b071" fill-rule="evenodd"/>
            <line id="Line_1" data-name="Line 1" y2="125.712" transform="translate(49.481 1.172)" fill="none" stroke="#33b071" stroke-width="1.5"/>
            <path id="Path_91" data-name="Path 91" d="M0,56.311a49.481,49.481,0,0,0,98.961,0Z" transform="translate(0 68.419)" fill="#007ec3" fill-rule="evenodd"/>
            <path id="Path_92" data-name="Path 92" d="M98.961,128.189C98.706,100.76,76.656,78.6,49.479,78.6S.255,100.76,0,128.189Z" transform="translate(0 95.502)" fill="#b81e78" fill-rule="evenodd"/>
          </g>
        </g>
      </g>
    </g>
    <g id="Group_398" data-name="Group 398" transform="translate(-1950.693 -12209.384)">
      <rect id="Rectangle_323" data-name="Rectangle 323" width="99.517" height="98.172" transform="translate(98.172) rotate(90)" fill="#502c7e"/>
      <g id="Group_345" data-name="Group 345" transform="translate(19.391 9.097)">
        <g id="Group_19" data-name="Group 19" transform="translate(0 0)" clip-path="url(#clip-path-3)">
          <path id="Path_52" data-name="Path 52" d="M21.938.944l2.42,4.9a1.7,1.7,0,0,0,1.275.928l5.413.786a1.7,1.7,0,0,1,.939,2.89L28.069,14.27a1.69,1.69,0,0,0-.487,1.5l.924,5.391a1.693,1.693,0,0,1-2.458,1.784L21.207,20.4a1.687,1.687,0,0,0-1.578,0l-4.841,2.543a1.693,1.693,0,0,1-2.458-1.784l.924-5.391a1.69,1.69,0,0,0-.487-1.5L8.851,10.452a1.7,1.7,0,0,1,.939-2.89L15.2,6.777a1.7,1.7,0,0,0,1.275-.928L18.9.944a1.694,1.694,0,0,1,3.039,0" transform="translate(9.958 -0.001)" fill="#fff" fill-rule="evenodd"/>
          <path id="Path_53" data-name="Path 53" d="M29.1,7.408l1.319,2.673a.925.925,0,0,0,.7.507l2.951.428a.923.923,0,0,1,.511,1.575l-2.135,2.08a.929.929,0,0,0-.266.818l.5,2.938a.924.924,0,0,1-1.341.974L28.7,18.013a.926.926,0,0,0-.858,0L25.2,19.4a.923.923,0,0,1-1.339-.974l.5-2.938a.923.923,0,0,0-.266-.818l-2.135-2.08a.923.923,0,0,1,.511-1.575l2.951-.428a.922.922,0,0,0,.7-.507l1.319-2.673a.924.924,0,0,1,1.657,0" transform="translate(25.897 8.232)" fill="#fff" fill-rule="evenodd"/>
          <path id="Path_54" data-name="Path 54" d="M7.413,7.408l1.319,2.673a.925.925,0,0,0,.7.507l2.951.428a.923.923,0,0,1,.511,1.575l-2.135,2.08a.929.929,0,0,0-.266.818l.5,2.938a.924.924,0,0,1-1.341.974l-2.64-1.389a.926.926,0,0,0-.858,0L3.516,19.4a.923.923,0,0,1-1.339-.974l.5-2.938a.923.923,0,0,0-.266-.818L.279,12.591a.923.923,0,0,1,.511-1.575l2.951-.428a.922.922,0,0,0,.7-.507L5.756,7.408a.924.924,0,0,1,1.657,0" transform="translate(-0.001 8.232)" fill="#fff" fill-rule="evenodd"/>
          <path id="Path_55" data-name="Path 55" d="M25.625,17.78a14.5,14.5,0,0,1,4.34-2.853A15.112,15.112,0,0,1,50.954,27.339a14.382,14.382,0,0,1-4.165,11.95c-6.524,6.62-13.133,13.157-19.709,19.722a3.25,3.25,0,0,1-5.582-2.5,3.331,3.331,0,0,1,1.069-2.183q3.686-3.667,7.357-7.346c.2-.206.41-.41.614-.617.511-.518.617-.981.255-1.273-.5-.406-.865-.11-1.229.259-1.227,1.238-2.464,2.466-3.7,3.7-1.483,1.481-2.951,2.978-4.45,4.441a3.24,3.24,0,0,1-5.128-3.84,4.021,4.021,0,0,1,.722-.926q3.95-3.973,7.915-7.932c.044-.044.09-.086.136-.127.366-.336.542-.735.158-1.134s-.783-.235-1.134.118q-1.537,1.547-3.079,3.083c-1.718,1.716-3.43,3.441-5.157,5.143a3.077,3.077,0,0,1-3.388.753,3.093,3.093,0,0,1-2.12-2.613,3.172,3.172,0,0,1,1-2.82q3.966-3.96,7.928-7.919c.623-.623.724-1,.351-1.356s-.715-.252-1.356.386q-3.983,3.983-7.974,7.959a3.085,3.085,0,0,1-3.379.792,3.108,3.108,0,0,1-2.17-2.71,3.033,3.033,0,0,1,.9-2.613q6.02-6.04,12.06-12.062a1.926,1.926,0,0,1,2.967.09c2.192,2.181,4.367,4.378,6.563,6.552a8.571,8.571,0,0,0,10.337,1.3,2.174,2.174,0,0,0,.461-3.645q-5.849-5.862-11.713-11.7a5.238,5.238,0,0,0-.693-.481" transform="translate(5.63 16.367)" fill="#fff"/>
          <path id="Path_56" data-name="Path 56" d="M6.688,39.9a14.591,14.591,0,0,1-3.7-5.334,14.969,14.969,0,0,1,9-19.948C17.868,12.6,23.22,13.862,27.7,18.251c4.222,4.141,8.371,8.354,12.554,12.536.847.845.781,1.26-.287,1.817a7.133,7.133,0,0,1-8.294-1.233C29.4,29.176,27.2,26.92,24.962,24.7a3.087,3.087,0,0,0-3.065-.937,3.808,3.808,0,0,0-1.672.88c-4.092,4.035-8.145,8.11-12.207,12.176A5.035,5.035,0,0,0,6.688,39.9" transform="translate(2.223 16.34)" fill="#fff"/>
        </g>
      </g>
    </g>
    <g id="Group_401" data-name="Group 401" transform="translate(-2148.861 -12109.867)">
      <rect id="Rectangle_322" data-name="Rectangle 322" width="98.479" height="98.479" transform="translate(98.479 0) rotate(90)" fill="#007ec3"/>
      <g id="Group_344" data-name="Group 344" transform="translate(15.783 25.626)">
        <g id="Group_21" data-name="Group 21" transform="translate(0 0)" clip-path="url(#clip-path-4)">
          <path id="Path_57" data-name="Path 57" d="M57.634,17.476c0-.161.013-.319.013-.48A16.991,16.991,0,0,0,48.87,2.119L34.81,16.06v9.461a3.922,3.922,0,1,1-2.478-.059V15.026l14.136-14A17.011,17.011,0,0,0,25.738,8.842,10.168,10.168,0,0,0,9.763,17.191c0,.111,0,.219.009.328a15.529,15.529,0,0,0,5.72,29.95v0H17.9V42.894l-5.211-5.211a3.921,3.921,0,1,1,1.8-1.707l5.891,5.891v5.6h7.083V40.017l-8.985-8.983V23.3a3.926,3.926,0,1,1,2.478-.115v6.818l8.983,8.985v8.479h7.741V38.745l8.464-8.464V21.675a3.927,3.927,0,1,1,2.475.1v9.53L40.15,39.772v7.7h6.317v-5.85l6.484-6.484A3.942,3.942,0,1,1,54.694,36.9l-5.75,5.75v4.825h2.6v-.007c.048,0,.1,0,.143,0a15.587,15.587,0,0,0,5.948-29.994" transform="translate(0 0.001)" fill="#fff"/>
        </g>
      </g>
    </g>
    <g id="Group_399" data-name="Group 399" transform="translate(-1950.979 -12109.867)">
      <path id="Path_413" data-name="Path 413" d="M57.07,32.807h-42a4.083,4.083,0,0,1,0-8.167h42a4.083,4.083,0,0,1,0,8.167" transform="translate(13.3 35.732)" fill="#00a8b0" fill-rule="evenodd"/>
      <path id="Path_414" data-name="Path 414" d="M57.07,39.735h-42a4.083,4.083,0,0,1,0-8.167h42a4.083,4.083,0,0,1,0,8.167" transform="translate(13.3 44.116)" fill="#00a8b0" fill-rule="evenodd"/>
      <path id="Path_415" data-name="Path 415" d="M35.933,45.968H20.926a3.622,3.622,0,1,1,0-7.245H35.933a3.622,3.622,0,1,1,0,7.245" transform="translate(20.941 52.775)" fill="#00a8b0" fill-rule="evenodd"/>
      <path id="Path_412" data-name="Path 412" d="M0,0A49.554,49.554,0,0,0,49.373,49.267,49.553,49.553,0,0,0,98.743,0Z" fill="#00a8b0" fill-rule="evenodd"/>
    </g>
  </g>
</svg>
