<svg id="Element_07" xmlns="http://www.w3.org/2000/svg" xmlns:xlink="http://www.w3.org/1999/xlink" width="768.655" height="737.748" viewBox="0 0 768.655 737.748">
  <defs>
    <clipPath id="clip-path">
      <rect id="Rectangle_50" data-name="Rectangle 50" width="242.483" height="275.664" fill="#00a8b0"/>
    </clipPath>
    <clipPath id="clip-path-2">
      <rect id="Rectangle_49" data-name="Rectangle 49" width="183.673" height="415.175" fill="none"/>
    </clipPath>
    <clipPath id="clip-path-3">
      <rect id="Rectangle_44" data-name="Rectangle 44" width="117.546" height="133.373" fill="none"/>
    </clipPath>
    <clipPath id="clip-path-4">
      <rect id="Rectangle_45" data-name="Rectangle 45" width="113.825" height="143.096" fill="none"/>
    </clipPath>
    <clipPath id="clip-path-5">
      <rect id="Rectangle_46" data-name="Rectangle 46" width="127.367" height="89.878" fill="none"/>
    </clipPath>
    <clipPath id="clip-path-6">
      <rect id="Rectangle_43" data-name="Rectangle 43" width="112.925" height="128.189" fill="none"/>
    </clipPath>
    <clipPath id="clip-path-7">
      <rect id="Rectangle_78" data-name="Rectangle 78" width="116.83" height="125.192" fill="none"/>
    </clipPath>
    <linearGradient id="linear-gradient" x1="-0.082" y1="1.035" x2="1.303" y2="-0.238" gradientUnits="objectBoundingBox">
      <stop offset="0" stop-color="#e81e25"/>
      <stop offset="0.199" stop-color="#b81e78"/>
      <stop offset="0.728" stop-color="#502c7e"/>
      <stop offset="1" stop-color="#007ec3"/>
    </linearGradient>
    <clipPath id="clip-path-8">
      <rect id="Rectangle_42" data-name="Rectangle 42" width="235.535" height="267.766" fill="none"/>
    </clipPath>
  </defs>
  <g id="Group_484" data-name="Group 484" transform="translate(526.172 195.08)">
    <g id="Group_475" data-name="Group 475" transform="translate(0 0)" opacity="0.09">
      <g id="Group_30" data-name="Group 30" clip-path="url(#clip-path)">
        <path id="Path_93" data-name="Path 93" d="M45.759,67.261a9.83,9.83,0,1,0-3.716,13.4,9.834,9.834,0,0,0,3.716-13.4" transform="translate(82.924 193.729)" fill="#00a8b0"/>
        <path id="Path_94" data-name="Path 94" d="M72.316,20.323a9.83,9.83,0,1,0-3.716,13.4,9.836,9.836,0,0,0,3.716-13.4" transform="translate(-52.809 47.698)" fill="#00a8b0"/>
        <path id="Path_95" data-name="Path 95" d="M72.588,51.458a9.832,9.832,0,1,0-3.716,13.4,9.834,9.834,0,0,0,3.716-13.4" transform="translate(-54.199 144.563)" fill="#00a8b0"/>
        <path id="Path_96" data-name="Path 96" d="M28.1,14.674a9.832,9.832,0,1,0,3.716-13.4,9.834,9.834,0,0,0-3.716,13.4" transform="translate(85.697 -0.002)" fill="#00a8b0"/>
        <path id="Path_97" data-name="Path 97" d="M1.547,61.612a9.832,9.832,0,1,0,3.716-13.4,9.834,9.834,0,0,0-3.716,13.4" transform="translate(221.433 146.028)" fill="#00a8b0"/>
        <path id="Path_98" data-name="Path 98" d="M1.276,30.476a9.83,9.83,0,1,0,3.716-13.4,9.831,9.831,0,0,0-3.716,13.4" transform="translate(222.818 49.164)" fill="#00a8b0"/>
        <path id="Path_99" data-name="Path 99" d="M1.468,137.479a9.81,9.81,0,0,1,2.8-3.038,8.96,8.96,0,0,1,1.032-.682,9.809,9.809,0,0,1,9.723.033l-.008-.016c2.96,1.69,8.354.448,12.79-2.282,3.914-2.467,7.03-6.1,6.968-9.879l.012.021c0-.218-.016-.436-.012-.658.21-8.091-14.093-15.684-19.77-12.568l.008-.016A9.821,9.821,0,0,1,5.448,91.237c.078-.049.148-.1.23-.148A9.824,9.824,0,0,1,20.342,99.6l0,0c.033,6.257,12.724,14.7,19.865,11.544.169-.082.337-.16.5-.259.354-.21.719-.4,1.089-.576a12.274,12.274,0,0,1,11.532.312l-.012-.021a11.01,11.01,0,0,0,9.2.933,9.408,9.408,0,0,0,4.218-3.293l.136.045a12.247,12.247,0,0,0,2.191-7.667c-.008-.312.012-.621.025-.933l-.016.029C69.45,89.58,60.636,85.58,53.5,89.441l.008-.012a12.283,12.283,0,1,1,6.426-10.911l0,0c.078,8.111,7.852,13.883,16.527,8.633l-.016.033c.136-.086.263-.177.4-.259s.284-.136.423-.21l-.033,0c8.962-4.732,8.025-14.368,1.114-18.611h0a12.241,12.241,0,0,1-5.842-10.9l-.012.025c.267-8.107-14.072-15.746-19.762-12.629l0-.012a9.83,9.83,0,1,1,5.1-8.654l0-.008c.029,6.491,13.661,15.326,20.626,11.162l-.016.021c.095-.053.177-.115.271-.169s.193-.095.288-.144H79c7.153-3.823,6.6-20.058,1.057-23.429h0a9.832,9.832,0,1,1,10.048.086l.012,0c-5.6,3.268-6.438,19.5.645,23.442h-.025a12.213,12.213,0,0,1,6.331,10.619l0,0c.078,8.107,7.852,13.879,16.527,8.633l-.016.029c.136-.086.263-.177.4-.255s.284-.14.423-.214h-.033c8.962-4.736,8.025-14.368,1.114-18.615h0a12.29,12.29,0,1,1,12.658.111h.016c-6.985,4.123-8.095,13.739.789,18.632h-.033c.271.148.547.292.81.456,8.58,5.386,16.445-.247,16.667-8.35l.012.025a12.276,12.276,0,0,1,6.22-10.385c.095-.053.193-.09.288-.14l-.025,0c7.153-3.819,6.6-20.054,1.052-23.425h.012a9.828,9.828,0,1,1,10.044.086h.008c-5.6,3.272-6.438,19.5.65,23.442h-.025c.189.107.382.206.571.321C172.109,52.1,185.852,43.515,186,37.036l.012.016a9.828,9.828,0,1,1,4.937,8.728l.008.016c-5.628-3.211-20.054,4.148-19.976,12.243a12.283,12.283,0,0,1-6.056,10.812h.016c-6.985,4.123-8.095,13.739.789,18.628H165.7c.271.148.543.292.81.456,8.576,5.386,16.445-.243,16.662-8.346l.012.021a12.287,12.287,0,1,1,6.22,11l.012.021c-7.059-3.988-15.935-.144-15.737,9.978,0,.312-.012.625-.025.937l.016-.029c-.382,10.13,8.432,14.13,15.565,10.27l-.012.016a12.282,12.282,0,0,1,12.362.358c6.886,4.276,20.663-4.317,20.811-10.8l.008.016a9.828,9.828,0,1,1,4.937,8.728l.008.016c-5.628-3.211-20.054,4.148-19.976,12.239,0,.222-.012.44-.021.662l.012-.025c-.267,8.107,14.072,15.746,19.762,12.629l0,.008a9.835,9.835,0,1,1-5.1,8.658l0,0c-.029-6.487-13.665-15.322-20.621-11.158l.012-.025c-.09.058-.177.119-.271.173a12.27,12.27,0,0,1-12.1-.012l.012.021c-7.063-3.984-15.939-.14-15.742,9.99.008.308-.008.617-.025.925l.021-.025c-.382,10.13,8.428,14.13,15.561,10.27l-.008.012a12.283,12.283,0,1,1-6.426,10.911l0,0c-.078-8.111-7.852-13.879-16.527-8.633l.016-.033c-.136.086-.259.181-.4.259s-.284.136-.428.21h.037c-8.966,4.736-8.025,14.368-1.114,18.615h0a12.241,12.241,0,0,1,5.842,10.9l.008-.025c-.263,8.107,14.072,15.746,19.766,12.629l-.008.008a9.837,9.837,0,1,1-5.1,8.658l0,0c-.033-6.487-13.665-15.322-20.626-11.158l.012-.021c-.09.053-.177.115-.271.169s-.189.095-.288.144h.029c-7.157,3.823-6.6,20.058-1.057,23.429H162.3a9.828,9.828,0,1,1-10.048-.09l-.008,0c5.6-3.272,6.438-19.5-.65-23.446h.029a12.228,12.228,0,0,1-6.335-10.619v0c-.082-8.107-7.852-13.879-16.531-8.633l.016-.029c-.132.086-.259.177-.4.255s-.284.14-.428.214h.037c-8.966,4.736-8.025,14.368-1.114,18.615h0a12.29,12.29,0,1,1-12.658-.111h-.021c6.985-4.124,8.095-13.739-.785-18.632h.029c-.267-.148-.543-.292-.806-.456a14.307,14.307,0,0,0-3.741-1.69l-.021.086a10.248,10.248,0,0,0-6.052-.016,2.417,2.417,0,0,0-.243.086c-.144.049-.28.107-.419.164a10.6,10.6,0,0,0-6.2,9.715l-.008-.021a12.268,12.268,0,0,1-6.224,10.381c-.09.053-.189.095-.284.144h.025c-7.153,3.823-6.6,20.058-1.057,23.429h0a10.023,10.023,0,1,1-10.94.5c.16-.119.333-.226.506-.337.09-.058.173-.123.263-.177h-.008c5.6-3.281,6.417-19.507-.67-23.442h.025c-.095-.053-.193-.095-.284-.148s-.177-.119-.267-.177l.012.021c-3.655-2.265-9.238-.913-13.7,1.825-3.893,2.421-6.9,5.887-6.972,8.9l-.008-.016a9.828,9.828,0,0,1-3.194,7.034c-.181.177-.374.337-.567.5l-.136.111A9.823,9.823,0,0,1,40.01,199.286c.082-.074.173-.144.263-.218.107-.082.214-.173.321-.251a9.673,9.673,0,0,1,10.825-.7l-.008-.016c2.976,1.7,8.415.436,12.864-2.323,3.91-2.471,7.022-6.1,6.96-9.879l.012.025a12.227,12.227,0,0,1,6.019-10.8h0c6.977-4.132,8.078-13.748-.81-18.632h.037c-.14-.074-.284-.136-.423-.218s-.263-.177-.4-.263l.016.033c-3.98-2.5-7.807-2.623-10.788-1.233a10.688,10.688,0,0,0-5.7,9.5l-.008-.021a12.413,12.413,0,1,1-6.413-10.9l-.012-.016c7.067,3.98,15.947.123,15.729-10.015l.016.029c-.008-.308-.021-.617-.008-.929.366-10.126-8.448-14.114-15.573-10.245l.012-.021a12.264,12.264,0,0,1-12.1-.185c-.095-.053-.181-.119-.267-.173l.012.021c-3.445-2.138-8.609-1.057-12.93,1.369-4.23,2.426-7.606,6.121-7.68,9.316l-.008-.016a9.839,9.839,0,0,1-3.4,7.215l0,0c-.193.169-.382.333-.592.489a9.829,9.829,0,0,1-14.5-12.749m168.351-5.686a9.465,9.465,0,1,0-9.34-9.587,9.463,9.463,0,0,0,9.34,9.587M150.538,71.438A9.464,9.464,0,1,0,153.9,84.392a9.457,9.457,0,0,0-3.363-12.954m4.144,45.592a9.5,9.5,0,1,0-3.593,12.954,9.5,9.5,0,0,0,3.593-12.954m-17.69,51.907a9.465,9.465,0,1,0,3.577-12.9,9.462,9.462,0,0,0-3.577,12.9m-11.659-20.4a9.506,9.506,0,1,0,3.593-12.954,9.507,9.507,0,0,0-3.593,12.954m0-43.948a9.506,9.506,0,1,0,3.593-12.954,9.507,9.507,0,0,0-3.593,12.954m-20.194-29.95a9.463,9.463,0,1,0-3.577,12.9,9.462,9.462,0,0,0,3.577-12.9m11.824,20.589a9.5,9.5,0,1,0-3.589,12.954,9.5,9.5,0,0,0,3.589-12.954m-3.589,56.557a9.506,9.506,0,1,0-12.954-3.593c.09.156.193.3.288.452a7.95,7.95,0,0,0,5.2,3.947,9.489,9.489,0,0,0,7.466-.806M91.592,172.144a9.466,9.466,0,1,0-3.363-12.958,9.467,9.467,0,0,0,3.363,12.958m-5.016-46.1a9.506,9.506,0,1,0,3.593-12.954,9.51,9.51,0,0,0-3.593,12.954m-14.512,4.666a9.465,9.465,0,1,0-9.34-9.591,9.467,9.467,0,0,0,9.34,9.591" transform="translate(-0.029 15.943)" fill="#00a8b0"/>
      </g>
    </g>
    <g id="Group_476" data-name="Group 476" transform="translate(28.738 127.493)">
      <g id="Group_28" data-name="Group 28" transform="translate(0 0)" clip-path="url(#clip-path-2)">
        <path id="Path_86" data-name="Path 86" d="M22.33,34.319c.144,0,.288-.012.432-.012a91.455,91.455,0,0,1,91.44,90.576c-.144,0-.288.008-.432.008A91.449,91.449,0,0,1,22.33,34.319" transform="translate(-22.33 106.734)" fill="#33b071" fill-rule="evenodd"/>
        <path id="Path_87" data-name="Path 87" d="M91.871,34.319c-.144,0-.288-.012-.432-.012A91.455,91.455,0,0,0,0,124.883c.144,0,.288.008.432.008a91.449,91.449,0,0,0,91.44-90.572" transform="translate(91.802 106.734)" fill="#33b071" fill-rule="evenodd"/>
        <path id="Path_88" data-name="Path 88" d="M22.33,11.648c.144,0,.288-.012.432-.012a91.455,91.455,0,0,1,91.44,90.576c-.144,0-.288.008-.432.008A91.449,91.449,0,0,1,22.33,11.648" transform="translate(-22.33 36.201)" fill="#33b071" fill-rule="evenodd"/>
        <path id="Path_89" data-name="Path 89" d="M91.871,11.648c-.144,0-.288-.012-.432-.012A91.455,91.455,0,0,0,0,102.212c.144,0,.288.008.432.008a91.449,91.449,0,0,0,91.44-90.572" transform="translate(91.802 36.201)" fill="#33b071" fill-rule="evenodd"/>
        <path id="Path_90" data-name="Path 90" d="M40.334,10.28h0a10.28,10.28,0,1,1-5.139-8.9,10.28,10.28,0,0,1,5.139,8.9" transform="translate(62.046 0.002)" fill="#33b071" fill-rule="evenodd"/>
        <line id="Line_1" data-name="Line 1" y2="233.323" transform="translate(91.836 2.174)" fill="none" stroke="#33b071" stroke-width="1.5"/>
        <path id="Path_91" data-name="Path 91" d="M183.673,56.311c-.473,50.69-41.4,91.641-91.839,91.641S.473,107,0,56.311Z" transform="translate(0 175.191)" fill="#007ec3" fill-rule="evenodd"/>
        <path id="Path_92" data-name="Path 92" d="M0,170.637C.473,119.729,41.4,78.6,91.839,78.6s91.362,41.128,91.834,92.036Z" transform="translate(0 244.538)" fill="#b81e78" fill-rule="evenodd"/>
      </g>
    </g>
  </g>
  <rect id="Rectangle_383" data-name="Rectangle 383" width="186.45" height="186.45" transform="translate(556.831 366.79) rotate(90)" fill="#007ec3"/>
  <rect id="Rectangle_384" data-name="Rectangle 384" width="183.931" height="186.45" transform="translate(556.831 553.24) rotate(90)" fill="#502c7e"/>
  <rect id="Rectangle_386" data-name="Rectangle 386" width="186.45" height="186.45" transform="translate(186.45 366.79) rotate(90)" fill="#007ec3"/>
  <g id="Group_478" data-name="Group 478" transform="translate(404.777 393.561)">
    <g id="Group_17" data-name="Group 17" transform="translate(0 0)" clip-path="url(#clip-path-3)">
      <path id="Path_49" data-name="Path 49" d="M58.682,105.307a5.961,5.961,0,1,0-5.961-5.961,5.96,5.96,0,0,0,5.961,5.961m0-84.434A10.436,10.436,0,1,0,48.248,10.434,10.436,10.436,0,0,0,58.682,20.872M91.736,81.758l12.185-7.038a2.809,2.809,0,0,1,2.948.049,5.959,5.959,0,1,0-2.816-5.061l0,.2a2.8,2.8,0,0,1-1.427,2.574L90.445,79.513a2.809,2.809,0,0,1-2.948-.045,5.958,5.958,0,1,0,2.812,5.061c0-.07,0-.136,0-.2a2.8,2.8,0,0,1,1.431-2.569M13.517,73.47l12.264,7.437a2.806,2.806,0,0,1,1.373,2.6c0,.111-.008.218-.008.329a5.951,5.951,0,1,0,2.919-5.131,2.793,2.793,0,0,1-2.944-.012L14.858,71.258a2.791,2.791,0,0,1-1.373-2.6c0-.107.008-.218.008-.329a5.961,5.961,0,1,0-5.961,5.961,5.905,5.905,0,0,0,3.038-.83,2.8,2.8,0,0,1,2.948.012M42.028,31.487l6.389,3.873a2.814,2.814,0,0,1,1.328,2.985,9.208,9.208,0,0,0-.16,1.727,9.1,9.1,0,1,0,18.2,0,9.363,9.363,0,0,0-.127-1.529,2.818,2.818,0,0,1,1.39-2.96l6.237-3.6a2.814,2.814,0,0,1,3.256.28,9.1,9.1,0,1,0-3.293-7.005,8.928,8.928,0,0,0,.132,1.529,2.83,2.83,0,0,1-1.39,2.96l-6.237,3.6a2.813,2.813,0,0,1-3.26-.275,9.1,9.1,0,0,0-11.466-.123,2.815,2.815,0,0,1-3.264.206l-6.389-3.873a2.814,2.814,0,0,1-1.328-2.985,9.209,9.209,0,0,0,.164-1.727,9.106,9.106,0,1,0-3.445,7.129,2.815,2.815,0,0,1,3.264-.206M15.006,44.737l9.287,5.628a2.814,2.814,0,0,1,1.348,2.828,8.127,8.127,0,0,0-.066,1.007,7.531,7.531,0,0,0,11.873,6.154,2.815,2.815,0,0,1,3.133-.111l9.287,5.632A2.808,2.808,0,0,1,51.221,68.7a7.4,7.4,0,0,0-.07,1.007,7.532,7.532,0,0,0,15.063,0,7.207,7.207,0,0,0-.049-.847,2.82,2.82,0,0,1,1.414-2.8l9.168-5.291a2.81,2.81,0,0,1,3.133.177,7.529,7.529,0,0,0,12-6.06,8.161,8.161,0,0,0-.045-.847,2.814,2.814,0,0,1,1.41-2.8l9.168-5.3a2.818,2.818,0,0,1,3.133.177,7.53,7.53,0,1,0-3.063-6.06,7.209,7.209,0,0,0,.049.847,2.81,2.81,0,0,1-1.414,2.8L91.954,49a2.8,2.8,0,0,1-3.133-.177,7.536,7.536,0,0,0-12,6.064,7.258,7.258,0,0,0,.049.847,2.817,2.817,0,0,1-1.414,2.8l-9.168,5.291a2.8,2.8,0,0,1-3.129-.177,7.526,7.526,0,0,0-8.81-.095,2.822,2.822,0,0,1-3.137.111l-9.287-5.632a2.8,2.8,0,0,1-1.348-2.824,8.125,8.125,0,0,0,.066-1.007,7.531,7.531,0,0,0-11.873-6.154,2.807,2.807,0,0,1-3.133.107l-9.287-5.628A2.808,2.808,0,0,1,14.993,39.7a7.415,7.415,0,0,0,.07-1.011,7.538,7.538,0,1,0-3.194,6.158,2.807,2.807,0,0,1,3.137-.111m43.677,88.636a4.388,4.388,0,0,0,4.37-3.975,2.794,2.794,0,0,1,1.418-2.208l15.413-8.913a2.771,2.771,0,0,1,2.627-.123,4.394,4.394,0,1,0-2.537-4.35,2.785,2.785,0,0,1-1.422,2.245l-15.318,8.864a2.8,2.8,0,0,1-2.664.107,4.393,4.393,0,0,0-3.823.021A2.779,2.779,0,0,1,54,124.917l-15.129-9.172a2.791,2.791,0,0,1-1.377-2.376,4.391,4.391,0,1,0-4.391,4.5,4.329,4.329,0,0,0,1.6-.3,2.781,2.781,0,0,1,2.528.218l15.717,9.53a2.775,2.775,0,0,1,1.361,2.142,4.393,4.393,0,0,0,4.366,3.922" transform="translate(0 -0.001)" fill="#fff" fill-rule="evenodd"/>
      <path id="Path_50" data-name="Path 50" d="M30.087,31.546a4.393,4.393,0,1,0-4.395-4.391,4.392,4.392,0,0,0,4.395,4.391" transform="translate(-22.555 70.811)" fill="#fff" fill-rule="evenodd"/>
      <path id="Path_51" data-name="Path 51" d="M5.155,31.879A4.391,4.391,0,1,0,.764,27.489a4.39,4.39,0,0,0,4.391,4.391" transform="translate(104.859 71.86)" fill="#fff" fill-rule="evenodd"/>
    </g>
  </g>
  <g id="Group_483" data-name="Group 483" transform="translate(186.448 366.79)">
    <rect id="Rectangle_385" data-name="Rectangle 385" width="186.45" height="183.931" transform="translate(183.931) rotate(90)" fill="#b81e78"/>
    <g id="Group_479" data-name="Group 479" transform="translate(33.777 17.047)">
      <g id="Group_19" data-name="Group 19" transform="translate(0 0)" clip-path="url(#clip-path-4)">
        <path id="Path_52" data-name="Path 52" d="M28.124,1.769,23.59,10.958A3.185,3.185,0,0,1,21.2,12.7L11.059,14.169A3.175,3.175,0,0,0,9.3,19.583l7.338,7.153a3.167,3.167,0,0,1,.913,2.808l-1.731,10.1a3.171,3.171,0,0,0,4.6,3.342l9.069-4.765a3.16,3.16,0,0,1,2.956,0l9.069,4.765a3.173,3.173,0,0,0,4.6-3.342l-1.731-10.1a3.167,3.167,0,0,1,.913-2.808l7.338-7.153a3.175,3.175,0,0,0-1.76-5.414L40.741,12.7a3.178,3.178,0,0,1-2.389-1.739L33.818,1.769a3.175,3.175,0,0,0-5.694,0" transform="translate(25.941 -0.002)" fill="#fff" fill-rule="evenodd"/>
        <path id="Path_53" data-name="Path 53" d="M32.471,7.858,30,12.866a1.733,1.733,0,0,1-1.3.95l-5.529.8a1.73,1.73,0,0,0-.958,2.952l4,3.9a1.74,1.74,0,0,1,.5,1.533l-.946,5.5a1.732,1.732,0,0,0,2.512,1.825l4.946-2.6a1.735,1.735,0,0,1,1.607,0l4.946,2.6A1.729,1.729,0,0,0,42.28,28.5L41.338,23a1.729,1.729,0,0,1,.5-1.533l4-3.9a1.73,1.73,0,0,0-.958-2.952l-5.529-.8a1.726,1.726,0,0,1-1.3-.95L35.574,7.858a1.73,1.73,0,0,0-3.1,0" transform="translate(-21.683 21.445)" fill="#fff" fill-rule="evenodd"/>
        <path id="Path_54" data-name="Path 54" d="M10.786,7.858,8.315,12.866a1.733,1.733,0,0,1-1.3.95l-5.529.8a1.73,1.73,0,0,0-.958,2.952l4,3.9A1.74,1.74,0,0,1,5.022,23l-.946,5.5A1.732,1.732,0,0,0,6.588,30.33l4.946-2.6a1.735,1.735,0,0,1,1.607,0l4.946,2.6A1.729,1.729,0,0,0,20.595,28.5L19.653,23a1.729,1.729,0,0,1,.5-1.533l4-3.9a1.73,1.73,0,0,0-.958-2.952l-5.529-.8a1.726,1.726,0,0,1-1.3-.95L13.889,7.858a1.73,1.73,0,0,0-3.1,0" transform="translate(89.152 21.445)" fill="#fff" fill-rule="evenodd"/>
        <path id="Path_55" data-name="Path 55" d="M52.325,21.34A27.166,27.166,0,0,0,44.193,16,28.314,28.314,0,0,0,4.87,39.248a26.946,26.946,0,0,0,7.8,22.389C24.9,74.041,37.278,86.288,49.6,98.589a6.09,6.09,0,0,0,10.459-4.683,6.24,6.24,0,0,0-2-4.091q-6.907-6.87-13.785-13.764c-.382-.386-.769-.769-1.151-1.155-.958-.97-1.155-1.838-.477-2.384.933-.761,1.62-.206,2.3.485,2.3,2.319,4.617,4.621,6.927,6.927C54.652,82.7,57.4,85.5,60.21,88.245a6.071,6.071,0,0,0,9.608-7.194,7.535,7.535,0,0,0-1.353-1.735q-7.4-7.443-14.829-14.862c-.082-.082-.169-.16-.255-.238-.687-.629-1.015-1.377-.3-2.125s1.468-.44,2.125.222q2.88,2.9,5.768,5.776C64.2,71.3,67.4,74.534,70.64,77.725a6.086,6.086,0,0,0,10.319-3.486,5.943,5.943,0,0,0-1.875-5.283q-7.431-7.419-14.854-14.837c-1.168-1.168-1.357-1.866-.658-2.541.682-.666,1.34-.473,2.541.724q7.462,7.462,14.94,14.911a6.094,6.094,0,0,0,10.4-3.593,5.682,5.682,0,0,0-1.69-4.9q-11.279-11.316-22.595-22.6c-1.714-1.71-3.774-1.612-5.558.169-4.107,4.086-8.181,8.2-12.3,12.276A16.059,16.059,0,0,1,29.944,51c-2.742-1.6-3.129-4.559-.863-6.829Q40.039,33.187,51.026,22.241a9.813,9.813,0,0,1,1.3-.9" transform="translate(2.941 42.636)" fill="#fff"/>
        <path id="Path_56" data-name="Path 56" d="M65.829,62.806a27.336,27.336,0,0,0,6.931-9.994C78.816,37.56,71.429,20.77,55.905,15.438c-11.022-3.786-21.049-1.418-29.436,6.8C18.56,30,10.785,37.893,2.95,45.729c-1.587,1.583-1.464,2.36.539,3.4a13.364,13.364,0,0,0,15.54-2.31c4.243-4.111,8.378-8.337,12.564-12.506a5.784,5.784,0,0,1,5.743-1.755,7.135,7.135,0,0,1,3.133,1.649c7.667,7.56,15.261,15.195,22.87,22.813a9.432,9.432,0,0,1,2.491,5.784" transform="translate(31.3 42.565)" fill="#fff"/>
      </g>
    </g>
  </g>
  <g id="Group_480" data-name="Group 480" transform="translate(29.199 415.307)">
    <g id="Group_21" data-name="Group 21" transform="translate(0 0)" clip-path="url(#clip-path-5)">
      <path id="Path_57" data-name="Path 57" d="M18.249,33.086c-.008-.3-.025-.6-.025-.909A32.169,32.169,0,0,1,34.842,4.012l26.62,26.393V48.318a7.425,7.425,0,1,0,4.691-.111V28.449L39.389,1.936a32.207,32.207,0,0,1,39.249,14.8,19.25,19.25,0,0,1,30.246,15.807c0,.21-.008.415-.016.621a29.4,29.4,0,0,1-10.829,56.7v0H93.479V81.211l9.867-9.867a7.424,7.424,0,1,0-3.4-3.231L88.792,79.267V89.878H75.382V75.764L92.394,58.756V44.121A7.433,7.433,0,1,0,87.7,43.9V56.812L70.7,73.824V89.878H56.039V73.355L40.014,57.33V41.037a7.434,7.434,0,1,0-4.687.193V59.274L51.352,75.3V89.878H39.393V78.8L27.117,66.526a7.463,7.463,0,1,0-3.3,3.33L34.7,80.743v9.135H29.781v-.012c-.09,0-.181.008-.271.008a29.51,29.51,0,0,1-11.26-56.787" transform="translate(0 0.002)" fill="#fff"/>
    </g>
  </g>
  <g id="Group_481" data-name="Group 481" transform="translate(409.397 579.836)">
    <g id="Group_15" data-name="Group 15" clip-path="url(#clip-path-6)">
      <path id="Path_44" data-name="Path 44" d="M81.133,88.923a7.126,7.126,0,0,0-7.079,6.319,6.459,6.459,0,0,1-3.281,5.011l-5.488,3.166a6.459,6.459,0,0,1-5.982.337,7.122,7.122,0,0,0-5.686,0,6.46,6.46,0,0,1-5.982-.337l-5.488-3.166a6.479,6.479,0,0,1-3.281-5.011,7.108,7.108,0,1,0-4.23,7.334,6.451,6.451,0,0,1,5.978.337l5.488,3.166a6.449,6.449,0,0,1,3.281,5.016,7.123,7.123,0,0,0,14.155,0,6.459,6.459,0,0,1,3.281-5.016l5.488-3.166a6.452,6.452,0,0,1,5.978-.337,7.123,7.123,0,1,0,2.849-13.653M31.791,3.465a7.119,7.119,0,0,0-7.075,6.319A6.463,6.463,0,0,1,21.431,14.8l-5.48,3.17a6.468,6.468,0,0,1-5.986.333A7.123,7.123,0,0,0,2.89,30.557,6.451,6.451,0,0,1,5.583,35.9v6.348a6.451,6.451,0,0,1-2.693,5.34,7.118,7.118,0,1,0,8.465,0,6.451,6.451,0,0,1-2.693-5.34V35.9a6.451,6.451,0,0,1,2.693-5.34A7.134,7.134,0,0,0,14.2,25.632a6.455,6.455,0,0,1,3.277-5.016l5.484-3.166a6.481,6.481,0,0,1,5.986-.337A7.121,7.121,0,1,0,31.791,3.465m49.342,0a7.12,7.12,0,1,0,2.841,13.649,6.472,6.472,0,0,1,5.982.337l5.488,3.17a6.452,6.452,0,0,1,3.281,5.011,7.12,7.12,0,0,0,2.845,4.925,6.451,6.451,0,0,1,2.693,5.34v6.348a6.451,6.451,0,0,1-2.693,5.34,7.123,7.123,0,1,0,8.465,0,6.455,6.455,0,0,1-2.7-5.34V35.9a6.455,6.455,0,0,1,2.7-5.34A7.123,7.123,0,0,0,102.959,18.3a6.46,6.46,0,0,1-5.982-.337l-5.488-3.17A6.452,6.452,0,0,1,88.208,9.78a7.119,7.119,0,0,0-7.075-6.315" transform="translate(0 10.78)" fill="#fff" fill-rule="evenodd"/>
      <path id="Path_45" data-name="Path 45" d="M68.464,31.567a7.062,7.062,0,0,0-2.845.592,6.46,6.46,0,0,1-5.982-.337l-5.484-3.166a6.453,6.453,0,0,1-3.281-5.016,7.123,7.123,0,0,0-14.155,0,6.459,6.459,0,0,1-3.281,5.016l-5.488,3.166a6.452,6.452,0,0,1-5.978.337,7.121,7.121,0,1,0,4.23,7.334,6.459,6.459,0,0,1,3.281-5.011l5.484-3.17a6.473,6.473,0,0,1,5.982-.333,7.187,7.187,0,0,0,5.694,0,6.447,6.447,0,0,1,5.982.333l5.484,3.166a6.459,6.459,0,0,1,3.281,5.016,7.121,7.121,0,1,0,7.075-7.926" transform="translate(-12.002 53.891)" fill="#fff" fill-rule="evenodd"/>
      <path id="Path_46" data-name="Path 46" d="M7.125,10.393A7.123,7.123,0,0,0,2.89,23.244a6.457,6.457,0,0,1,2.693,5.34v6.348a6.451,6.451,0,0,1-2.693,5.34A7.123,7.123,0,0,0,9.965,52.532a6.46,6.46,0,0,1,5.982.337l5.488,3.166a6.466,6.466,0,0,1,3.281,5.016,7.123,7.123,0,1,0,7.075-7.926,7.042,7.042,0,0,0-2.841.592,6.472,6.472,0,0,1-5.982-.337l-5.488-3.17A6.452,6.452,0,0,1,14.2,45.2a7.12,7.12,0,0,0-2.845-4.925,6.451,6.451,0,0,1-2.693-5.34V28.585a6.451,6.451,0,0,1,2.693-5.34,7.123,7.123,0,0,0-4.23-12.851" transform="translate(74.009 32.334)" fill="#fff" fill-rule="evenodd"/>
      <path id="Path_47" data-name="Path 47" d="M43.793,0a7.12,7.12,0,0,0-4.23,12.847,6.464,6.464,0,0,1,2.693,5.344v6.343a6.469,6.469,0,0,1-2.693,5.344A7.1,7.1,0,0,0,36.718,34.8a6.459,6.459,0,0,1-3.281,5.011l-5.484,3.17a6.459,6.459,0,0,1-5.982.333,7.123,7.123,0,1,0,4.23,7.334,6.459,6.459,0,0,1,3.281-5.016l5.484-3.166a6.472,6.472,0,0,1,5.982-.337A7.121,7.121,0,0,0,48.024,29.88a6.469,6.469,0,0,1-2.693-5.344V18.192a6.464,6.464,0,0,1,2.693-5.344A7.12,7.12,0,0,0,43.793,0" transform="translate(12.669 0)" fill="#fff" fill-rule="evenodd"/>
      <path id="Path_48" data-name="Path 48" d="M19.122,13.858a7.12,7.12,0,1,0,7.12,7.12,7.121,7.121,0,0,0-7.12-7.12" transform="translate(37.34 43.114)" fill="#fff" fill-rule="evenodd"/>
    </g>
  </g>
  <path id="Path_544" data-name="Path 544" d="M18.638,39.94H97.323a7.65,7.65,0,0,0,0-15.3H18.638a7.65,7.65,0,0,0,0,15.3" transform="translate(220.571 641.218)" fill="#00a8b0" fill-rule="evenodd"/>
  <path id="Path_545" data-name="Path 545" d="M18.638,46.868H97.323a7.65,7.65,0,0,0,0-15.3H18.638a7.65,7.65,0,0,0,0,15.3" transform="translate(220.571 662.979)" fill="#00a8b0" fill-rule="evenodd"/>
  <path id="Path_546" data-name="Path 546" d="M24.091,52.3H52.207a6.787,6.787,0,1,0,0-13.574H24.091a6.787,6.787,0,1,0,0,13.574" transform="translate(240.402 685.451)" fill="#00a8b0" fill-rule="evenodd"/>
  <path id="Path_547" data-name="Path 547" d="M185,0c-.476,51.057-41.7,92.3-92.5,92.3S.476,51.057,0,0Z" transform="translate(186.05 552.748)" fill="#00a8b0" fill-rule="evenodd"/>
  <g id="Group_482" data-name="Group 482" transform="translate(0.307 553.32)">
    <rect id="Rectangle_71" data-name="Rectangle 71" width="183.931" height="186.45" transform="translate(186.45 0) rotate(90)" fill="#502c7e"/>
    <g id="Group_50" data-name="Group 50" transform="translate(34.967 28.878)">
      <g id="Group_49" data-name="Group 49" transform="translate(0 0)" clip-path="url(#clip-path-7)">
        <path id="Path_169" data-name="Path 169" d="M16.735,25.031A6.6,6.6,0,0,1,26.7,31.609a2.04,2.04,0,0,0,1.06,2.121l12.668,6.462a2.039,2.039,0,0,0,2.409-.308,7.834,7.834,0,0,1,1.24-.94,7.564,7.564,0,1,1-3.5,5.094,2.046,2.046,0,0,0-1.044-2.193L26.862,35.382a2.03,2.03,0,0,0-2.353.256,6.491,6.491,0,0,1-.9.656,6.6,6.6,0,1,1-6.874-11.264" transform="translate(6.933 72.224)" fill="#fff" fill-rule="evenodd"/>
        <path id="Path_170" data-name="Path 170" d="M45.182,45.971a7.723,7.723,0,0,1-11.724-7.1,2.881,2.881,0,0,0-1.577-2.8L22,30.954a2.88,2.88,0,0,0-3.193.324,7.6,7.6,0,0,1-.844.6A7.717,7.717,0,1,1,21.642,25.8a2.875,2.875,0,0,0,1.577,2.8L33.1,33.715a2.88,2.88,0,0,0,3.193-.324,7.1,7.1,0,0,1,.844-.6,7.719,7.719,0,0,1,11.724,7.1,2.885,2.885,0,0,0,1.577,2.8l9.879,5.118a2.879,2.879,0,0,0,3.2-.328,7.959,7.959,0,0,1,.844-.592,7.717,7.717,0,1,1-3.681,6.074,2.882,2.882,0,0,0-1.577-2.8L49.219,45.05a2.88,2.88,0,0,0-3.193.324,7.6,7.6,0,0,1-.844.6" transform="translate(15.83 52.725)" fill="#fff" fill-rule="evenodd"/>
        <path id="Path_171" data-name="Path 171" d="M62.442,47.115a7.259,7.259,0,0,1-11.024-6.674,2.7,2.7,0,0,0-1.48-2.633L40.647,33a2.7,2.7,0,0,0-3,.3,6.306,6.306,0,0,1-.8.56,7.257,7.257,0,0,1-11.02-6.674,2.708,2.708,0,0,0-1.48-2.633l-9.291-4.81a2.709,2.709,0,0,0-3,.3,7.041,7.041,0,0,1-.792.56,7.259,7.259,0,1,1,3.457-5.71A2.721,2.721,0,0,0,16.2,17.533l9.291,4.81a2.7,2.7,0,0,0,3-.308,8.1,8.1,0,0,1,.8-.56,7.256,7.256,0,0,1,11.02,6.674A2.711,2.711,0,0,0,41.8,30.786l9.287,4.81a2.71,2.71,0,0,0,3-.308,7.257,7.257,0,1,1,8.355,11.828" transform="translate(50.01 21.495)" fill="#fff" fill-rule="evenodd"/>
        <path id="Path_172" data-name="Path 172" d="M4.693,71.819l-.008,0a5.73,5.73,0,0,1-.048-9.859,2.679,2.679,0,0,0,1.344-2.373L5.906,45.639a2.686,2.686,0,0,0-1.464-2.413c-.072-.04-.148-.08-.216-.124a5.745,5.745,0,0,1-.692-.48,7.2,7.2,0,1,1,7.879-12.044,2.685,2.685,0,0,0,3,.132L23.343,25.4a2.687,2.687,0,0,0,1.316-2.689,7.7,7.7,0,0,1-.056-.964,7.208,7.208,0,0,1,11.412-5.786,2.691,2.691,0,0,0,3,.132l8.931-5.3A2.683,2.683,0,0,0,49.264,8.1a7.665,7.665,0,0,1-.052-.964,7.206,7.206,0,1,1,3,5.918,2.677,2.677,0,0,0-3-.132l-8.935,5.3a2.7,2.7,0,0,0-1.316,2.693,6.973,6.973,0,0,1,.056.964A7.208,7.208,0,0,1,27.6,27.669a2.691,2.691,0,0,0-3-.136l-8.931,5.306a2.692,2.692,0,0,0-1.32,2.693,6.974,6.974,0,0,1,.056.964c0,.212-.016.424-.036.632.008.056.016.108.028.164a3.676,3.676,0,0,0,1.673,1.857L34.619,49.184A3.667,3.667,0,0,0,38.34,49.1l.012-.008.016-.008.064-.044a7.817,7.817,0,0,1,11.832,6.738A3.662,3.662,0,0,0,52.229,59.1l16.345,8.843a3.664,3.664,0,0,0,3.973-.252c.18-.128.364-.248.556-.364a7.811,7.811,0,0,1,11.82,7.058,3.674,3.674,0,0,0,1.961,3.469l18.154,9.827a3.645,3.645,0,0,0,3.465.052,5.754,5.754,0,1,1-2.365,8.107,5.682,5.682,0,0,1-.78-2.3,3.666,3.666,0,0,0-1.941-2.873L84.871,80.63a3.658,3.658,0,0,0-3.721.088l-.012,0a7.814,7.814,0,0,1-11.828-6.41,3.665,3.665,0,0,0-1.961-3.165L50.608,62.088a3.659,3.659,0,0,0-3.849.168c-.1.06-.192.124-.288.18l-.008,0-.072.048a7.812,7.812,0,0,1-11.824-7.054,3.68,3.68,0,0,0-1.961-3.473l-18.15-9.823a3.871,3.871,0,0,0-1.12-.4,3.228,3.228,0,0,0-1.48.18A7.125,7.125,0,0,1,10.147,43c-.1.064-.2.14-.308.2a2.692,2.692,0,0,0-1.444,2.433l.076,13.616a2.7,2.7,0,0,0,1.561,2.465c.144.068.288.144.428.224a5.722,5.722,0,0,1-.368,10.079A2.7,2.7,0,0,0,8.551,74.5l.08,15.121a2.679,2.679,0,0,0,1.188,2.245,4.219,4.219,0,1,1-4.838.024,2.679,2.679,0,0,0,1.16-2.257L6.058,74.18a2.682,2.682,0,0,0-1.364-2.361" transform="translate(0 -0.001)" fill="#fff" fill-rule="evenodd"/>
        <path id="Path_173" data-name="Path 173" d="M40.351,30.777a7.684,7.684,0,0,1-11.56-7.943,2.07,2.07,0,0,0-1.06-2.229L14.863,14.044a2.074,2.074,0,0,0-2.393.26A6.7,6.7,0,1,1,14.7,10.214a2.075,2.075,0,0,0,1.076,2.153l12.868,6.562a2.076,2.076,0,0,0,2.445-.316,7.888,7.888,0,0,1,1.26-.952,7.682,7.682,0,1,1,8,13.116" transform="translate(67.336 7.651)" fill="#fff" fill-rule="evenodd"/>
      </g>
    </g>
  </g>
  <g id="Group_477" data-name="Group 477" transform="translate(0.175 0)">
    <rect id="Rectangle_18" data-name="Rectangle 18" width="367.862" height="370.381" transform="translate(370.381) rotate(90)" fill="url(#linear-gradient)"/>
    <g id="Group_14" data-name="Group 14" transform="translate(68.289 48.149)">
      <g id="Group_13" data-name="Group 13" transform="translate(0 0)" clip-path="url(#clip-path-8)">
        <path id="Path_43" data-name="Path 43" d="M124.993,253.512a9.549,9.549,0,1,0-3.61,13.016,9.552,9.552,0,0,0,3.61-13.016M15.337,79.089a9.548,9.548,0,1,1,3.61-13.012,9.545,9.545,0,0,1-3.61,13.012M14.252,203.422a9.55,9.55,0,1,1,3.61-13.016,9.553,9.553,0,0,1-3.61,13.016m99.9-202.181a9.549,9.549,0,1,1-3.61,13.012,9.549,9.549,0,0,1,3.61-13.012M220.2,188.676a9.55,9.55,0,1,1-3.61,13.016,9.549,9.549,0,0,1,3.61-13.016M221.28,64.347a9.549,9.549,0,1,1-3.61,13.012,9.546,9.546,0,0,1,3.61-13.012M4.8,162.1a9.547,9.547,0,0,0,10.685-.691c.2-.148.386-.308.571-.469l.008-.008a9.565,9.565,0,0,0,3.305-7.01l.008.016c.07-3.1,3.351-6.693,7.458-9.049,4.2-2.356,9.213-3.4,12.56-1.332l-.012-.016c.086.053.169.115.259.169a11.918,11.918,0,0,0,11.754.177l-.012.021c6.919-3.753,15.482.119,15.125,9.953-.008.3,0,.6.012.9l-.016-.025c.21,9.846-8.415,13.591-15.281,9.727l.012.012a11.746,11.746,0,1,0,6.228,10.59l.012.016a10.372,10.372,0,0,1,5.538-9.221c2.894-1.353,6.611-1.229,10.479,1.2l-.021-.029c.132.082.255.173.391.255s.271.14.407.21l-.033,0c8.633,4.74,7.564,14.081.785,18.093h0a11.9,11.9,0,0,0-5.846,10.492l-.012-.025c.062,3.675-2.96,7.195-6.759,9.6-4.325,2.68-9.608,3.906-12.5,2.257l.012.016a9.534,9.534,0,0,0-9.447-.033,9.129,9.129,0,0,0-1.069.715c-.107.078-.21.16-.312.247-.086.07-.173.136-.255.21a9.542,9.542,0,0,0,12.091,14.759c.045-.033.086-.074.132-.111.189-.152.374-.308.555-.477a9.578,9.578,0,0,0,3.1-6.837l.008.021c.066-2.927,2.989-6.294,6.771-8.646C65.83,205.112,71.257,203.8,74.8,206l-.008-.021c.086.053.169.119.259.173s.185.09.275.14l-.025,0c6.886,3.823,6.089,19.581.654,22.767h.008c-.09.053-.169.115-.259.173-.164.107-.333.214-.489.329a9.384,9.384,0,0,0-2.668,2.9,9.57,9.57,0,1,0,16.65.066,9.454,9.454,0,0,0-3.359-3.457h.008c-5.386-3.272-5.924-19.043,1.024-22.755H86.85c.086-.049.185-.09.275-.14A11.915,11.915,0,0,0,93.169,196.1l.008.021a10.3,10.3,0,0,1,6.019-9.439c.136-.053.267-.111.4-.16.082-.029.16-.058.238-.082a9.974,9.974,0,0,1,5.879.016l.021-.082a14.029,14.029,0,0,1,3.634,1.64c.255.16.522.3.785.444h-.033c8.625,4.752,7.548,14.089.765,18.1h.016a11.938,11.938,0,1,0,12.3.107h0c-6.709-4.123-7.626-13.48,1.081-18.081h-.033c.14-.07.28-.127.415-.206s.259-.169.391-.251l-.016.029c8.424-5.094,15.976.51,16.054,8.387v0a11.887,11.887,0,0,0,6.154,10.315h-.029c6.882,3.832,6.072,19.594.633,22.772h.008a9.543,9.543,0,1,0,9.756.082h.008c-5.386-3.272-5.924-19.043,1.028-22.755h-.025c.09-.049.185-.086.28-.14s.173-.111.259-.164l-.012.021c6.763-4.045,20,4.539,20.038,10.841v-.008a9.551,9.551,0,1,0,4.958-8.407l0-.008c-5.529,3.026-19.458-4.395-19.2-12.268l-.012.021a11.866,11.866,0,0,0-5.673-10.582h.008c-6.713-4.123-7.63-13.485,1.077-18.081h-.033c.14-.074.28-.132.415-.21s.259-.164.391-.247l-.016.029c8.424-5.094,15.976.51,16.054,8.387v0a11.938,11.938,0,1,0,6.241-10.6l.012-.012c-6.931,3.753-15.491-.136-15.121-9.974l-.016.025c.012-.3.033-.6.025-.9-.193-9.838,8.432-13.575,15.289-9.7l-.012-.021a11.925,11.925,0,0,0,11.758.012c.09-.053.173-.115.263-.169l-.012.025c6.759-4.045,20,4.535,20.034,10.841v-.008a9.55,9.55,0,1,0,4.954-8.407l.008-.008c-5.529,3.026-19.454-4.395-19.195-12.268l-.012.021c.008-.214.021-.423.016-.641-.074-7.86,13.937-15.01,19.4-11.889l-.008-.016a9.548,9.548,0,1,0-4.8-8.477l-.008-.012c-.14,6.294-13.522,14.644-20.214,10.488a11.923,11.923,0,0,0-12-.345l.008-.016c-6.927,3.749-15.487-.136-15.117-9.978l-.016.029c.012-.3.033-.6.025-.909-.189-9.834,8.432-13.567,15.289-9.694l-.012-.021A11.937,11.937,0,1,0,177.9,92.816l-.012-.021c-.214,7.869-7.852,13.341-16.186,8.107-.259-.16-.522-.3-.785-.444h.029c-8.625-4.748-7.548-14.089-.765-18.093h-.016a11.933,11.933,0,0,0,5.883-10.5c-.078-7.865,13.937-15.014,19.4-11.894l-.012-.016a9.55,9.55,0,1,0-4.794-8.477l-.008-.016c-.144,6.29-13.493,14.627-20.19,10.5-.181-.111-.37-.206-.555-.308h.025c-6.882-3.832-6.072-19.594-.629-22.772h-.008a9.546,9.546,0,1,0-9.76-.082h-.008c5.386,3.272,5.924,19.043-1.024,22.755h.025c-.095.049-.189.086-.28.14a11.915,11.915,0,0,0-6.043,10.085l-.012-.021c-.214,7.869-7.856,13.337-16.19,8.107-.255-.16-.518-.3-.785-.444h.033c-8.629-4.748-7.552-14.089-.765-18.1h-.021a11.935,11.935,0,1,0-12.292-.107h-.008c6.713,4.123,7.626,13.48-1.077,18.081h.033c-.14.074-.28.132-.415.206s-.259.169-.391.251l.016-.029c-8.424,5.094-15.976-.51-16.054-8.387l0,0a11.871,11.871,0,0,0-6.15-10.315h.025c-6.882-3.832-6.068-19.594-.629-22.772H87.5a9.555,9.555,0,1,0-9.76-.086h-.008c5.386,3.277,5.924,19.047-1.024,22.759h.025c-.095.045-.189.086-.28.14s-.173.111-.263.164l.012-.021c-6.759,4.045-20-4.539-20.034-10.841l0,0a9.547,9.547,0,1,0-4.95,8.411l0,.008C56.736,55.775,70.66,63.2,70.4,71.068l.012-.021A11.881,11.881,0,0,0,76.091,81.63h-.008C82.8,85.753,83.709,95.114,75,99.711h.033c-.136.074-.275.132-.411.21s-.259.164-.391.247l.016-.029c-8.428,5.094-15.976-.51-16.054-8.387l0,0a11.935,11.935,0,1,0-6.241,10.6l-.008.008c6.927-3.749,15.491.14,15.117,9.978l.016-.025c-.012.3-.029.6-.021.909a11.9,11.9,0,0,1-2.13,7.445l-.136-.045a9.136,9.136,0,0,1-4.091,3.2,10.707,10.707,0,0,1-8.934-.909l.008.021a11.921,11.921,0,0,0-11.2-.3c-.362.173-.715.354-1.061.559a5.338,5.338,0,0,1-.481.251c-6.94,3.067-19.265-5.135-19.3-11.215l0,.008a9.542,9.542,0,0,0-14.245-8.272c-.078.045-.148.1-.222.144a9.54,9.54,0,0,0,9.3,16.662l-.012.016c5.517-3.026,19.409,4.35,19.207,12.206-.008.218,0,.432.008.641l-.012-.021c.062,3.675-2.964,7.2-6.767,9.6-4.308,2.652-9.55,3.852-12.424,2.212l.008.016a9.537,9.537,0,0,0-9.443-.033,9.433,9.433,0,0,0-1,.666A9.441,9.441,0,0,0,1.4,149.028,9.548,9.548,0,0,0,4.8,162.1m151.055-27.906a9.193,9.193,0,1,1,9.073,9.316,9.193,9.193,0,0,1-9.073-9.316m-6.389-36.729A9.193,9.193,0,1,1,146.2,84.878a9.195,9.195,0,0,1,3.264,12.584m-2.73,44.285a9.234,9.234,0,1,1,3.49-12.584,9.236,9.236,0,0,1-3.49,12.584m-10.22,25.308a9.195,9.195,0,1,1-3.474,12.531,9.2,9.2,0,0,1,3.474-12.531M125.2,147.186a9.232,9.232,0,1,1-3.49,12.58,9.233,9.233,0,0,1,3.49-12.58m0-42.69a9.234,9.234,0,1,1-3.49,12.584A9.24,9.24,0,0,1,125.2,104.5m-26.578-3.98A9.194,9.194,0,1,1,102.1,87.986a9.191,9.191,0,0,1-3.474,12.531m11.47,20.054a9.234,9.234,0,1,1,3.49-12.584,9.228,9.228,0,0,1-3.49,12.584M102.847,163.7a7.708,7.708,0,0,1-5.053-3.832c-.095-.144-.193-.288-.28-.44a9.256,9.256,0,1,1,5.332,4.271M85.674,170.11A9.195,9.195,0,1,1,88.943,182.7a9.194,9.194,0,0,1-3.268-12.588m1.883-44.77a9.232,9.232,0,1,1-3.49,12.58,9.235,9.235,0,0,1,3.49-12.58m-26.657,7.8a9.193,9.193,0,1,1,9.069,9.316,9.19,9.19,0,0,1-9.069-9.316" transform="translate(0.002 0.002)" fill="#edeeef"/>
      </g>
    </g>
  </g>
</svg>
