<svg id="Element_03" xmlns="http://www.w3.org/2000/svg" xmlns:xlink="http://www.w3.org/1999/xlink" width="868.15" height="833.242" viewBox="0 0 868.15 833.242">
  <defs>
    <clipPath id="clip-path">
      <rect id="Rectangle_50" data-name="Rectangle 50" width="273.87" height="311.346" fill="#00a8b0"/>
    </clipPath>
    <clipPath id="clip-path-2">
      <rect id="Rectangle_49" data-name="Rectangle 49" width="207.448" height="468.915" fill="none"/>
    </clipPath>
    <clipPath id="clip-path-3">
      <rect id="Rectangle_44" data-name="Rectangle 44" width="132.761" height="150.637" fill="none"/>
    </clipPath>
    <clipPath id="clip-path-4">
      <rect id="Rectangle_45" data-name="Rectangle 45" width="128.558" height="161.619" fill="none"/>
    </clipPath>
    <clipPath id="clip-path-5">
      <rect id="Rectangle_46" data-name="Rectangle 46" width="143.853" height="101.511" fill="none"/>
    </clipPath>
    <clipPath id="clip-path-6">
      <rect id="Rectangle_43" data-name="Rectangle 43" width="127.542" height="144.782" fill="none"/>
    </clipPath>
    <clipPath id="clip-path-7">
      <rect id="Rectangle_78" data-name="Rectangle 78" width="131.952" height="141.397" fill="none"/>
    </clipPath>
    <linearGradient id="linear-gradient" x1="-0.082" y1="-0.035" x2="1.303" y2="1.238" gradientUnits="objectBoundingBox">
      <stop offset="0" stop-color="#e81e25"/>
      <stop offset="0.199" stop-color="#b81e78"/>
      <stop offset="0.728" stop-color="#502c7e"/>
      <stop offset="1" stop-color="#007ec3"/>
    </linearGradient>
    <clipPath id="clip-path-8">
      <rect id="Rectangle_42" data-name="Rectangle 42" width="266.023" height="302.426" fill="none"/>
    </clipPath>
  </defs>
  <g id="Group_484" data-name="Group 484" transform="translate(0 220.331)">
    <g id="Group_475" data-name="Group 475" transform="translate(0 0)" opacity="0.09">
      <g id="Group_30" data-name="Group 30" clip-path="url(#clip-path)">
        <path id="Path_93" data-name="Path 93" d="M28.812,67.907a11.1,11.1,0,1,1,4.2,15.132,11.107,11.107,0,0,1-4.2-15.132" transform="translate(99.719 226.865)" fill="#00a8b0"/>
        <path id="Path_94" data-name="Path 94" d="M55.367,20.969a11.1,11.1,0,1,1,4.2,15.132,11.109,11.109,0,0,1-4.2-15.132" transform="translate(196.471 55.857)" fill="#00a8b0"/>
        <path id="Path_95" data-name="Path 95" d="M55.64,52.1a11.1,11.1,0,1,1,4.2,15.132A11.107,11.107,0,0,1,55.64,52.1" transform="translate(197.461 169.29)" fill="#00a8b0"/>
        <path id="Path_96" data-name="Path 96" d="M47.6,16.573A11.1,11.1,0,1,1,43.4,1.441a11.107,11.107,0,0,1,4.2,15.132" transform="translate(97.741 -0.003)" fill="#00a8b0"/>
        <path id="Path_97" data-name="Path 97" d="M21.041,63.511a11.1,11.1,0,1,1-4.2-15.132,11.107,11.107,0,0,1,4.2,15.132" transform="translate(0.987 171.006)" fill="#00a8b0"/>
        <path id="Path_98" data-name="Path 98" d="M20.769,32.375a11.1,11.1,0,1,1-4.2-15.132,11.1,11.1,0,0,1,4.2,15.132" transform="translate(0.001 57.573)" fill="#00a8b0"/>
        <path id="Path_99" data-name="Path 99" d="M271.836,154.611a11.08,11.08,0,0,0-3.167-3.431,10.12,10.12,0,0,0-1.165-.771,11.079,11.079,0,0,0-10.981.037l.009-.019c-3.343,1.908-9.435.506-14.445-2.577-4.42-2.786-7.94-6.886-7.87-11.158l-.014.023c0-.246.019-.492.014-.743-.237-9.138,15.917-17.714,22.33-14.195l-.009-.019a11.093,11.093,0,0,0,10.8-19.376c-.088-.056-.167-.116-.26-.167a11.1,11.1,0,0,0-16.563,9.616l0,0c-.037,7.067-14.371,16.6-22.436,13.038-.19-.093-.381-.181-.562-.293-.4-.237-.813-.45-1.23-.65a13.863,13.863,0,0,0-13.024.353l.014-.023a12.435,12.435,0,0,1-10.387,1.054,10.626,10.626,0,0,1-4.764-3.719l-.153.051a13.833,13.833,0,0,1-2.475-8.66c.009-.353-.014-.7-.028-1.054l.019.033c-.432-11.446,9.523-15.964,17.579-11.6l-.009-.014A13.872,13.872,0,1,0,205.8,88.017l0,0c-.088,9.161-8.869,15.68-18.666,9.751l.019.037c-.153-.1-.3-.2-.455-.293s-.32-.153-.478-.237l.037,0c-10.122-5.344-9.064-16.228-1.258-21.02h0a13.825,13.825,0,0,0,6.6-12.309l.014.028c-.3-9.157,15.894-17.784,22.32-14.264l0-.014a11.1,11.1,0,1,0-5.762-9.774l0-.009c-.033,7.332-15.43,17.31-23.3,12.607l.019.023c-.107-.06-.2-.13-.306-.19s-.218-.107-.325-.163h.028c-8.079-4.318-7.452-22.655-1.193-26.462h0a11.1,11.1,0,1,0-11.348.1l-.014,0c6.329,3.691,7.271,22.018-.729,26.476h.028a13.793,13.793,0,0,0-7.151,11.994l0,0c-.088,9.157-8.869,15.676-18.666,9.751l.019.032c-.153-.1-.3-.2-.455-.288s-.32-.158-.478-.241h.037c-10.122-5.349-9.064-16.228-1.258-21.025h0a13.881,13.881,0,1,0-14.3.125h-.019c7.889,4.657,9.143,15.518-.892,21.043h.037c-.306.167-.618.33-.915.515-9.691,6.083-18.573-.279-18.824-9.431l-.014.028A13.865,13.865,0,0,0,101.1,53.067c-.107-.06-.218-.1-.325-.158l.028,0c-8.079-4.314-7.452-22.65-1.189-26.457H99.6a11.1,11.1,0,1,0-11.344.1h-.009c6.324,3.7,7.271,22.023-.734,26.476h.028c-.214.121-.432.232-.645.362-7.787,4.792-23.309-4.9-23.472-12.216l-.014.019a11.1,11.1,0,1,0-5.577,9.858l-.009.019c6.357-3.626,22.65,4.685,22.562,13.828A13.873,13.873,0,0,0,87.224,77.1h-.019c7.889,4.657,9.143,15.518-.892,21.039h.037c-.306.167-.613.33-.915.515-9.686,6.083-18.573-.274-18.819-9.426l-.014.023a13.877,13.877,0,1,0-7.025,12.421l-.014.023c7.973-4.5,18-.163,17.774,11.269,0,.353.014.706.028,1.059l-.019-.033c.432,11.441-9.523,15.959-17.579,11.6l.014.019a13.872,13.872,0,0,0-13.962.4c-7.777,4.829-23.337-4.875-23.5-12.2l-.009.019a11.1,11.1,0,1,0-5.577,9.858l-.009.019c6.357-3.626,22.65,4.685,22.562,13.823,0,.251.014.5.023.748l-.014-.028c.3,9.157-15.894,17.784-22.32,14.264l0,.009a11.108,11.108,0,1,0,5.762,9.779l0,0c.033-7.327,15.434-17.306,23.291-12.6l-.014-.028c.1.065.2.135.306.2A13.858,13.858,0,0,0,60,149.861l-.014.023c7.977-4.5,18-.158,17.779,11.283-.009.348.009.7.028,1.045l-.023-.028c.432,11.441-9.519,15.959-17.575,11.6l.009.014a13.872,13.872,0,1,0,7.257,12.323l0,0c.088-9.161,8.869-15.676,18.666-9.751l-.019-.037c.153.1.293.2.45.293s.32.153.483.237H87c10.127,5.349,9.064,16.228,1.258,21.025h0a13.825,13.825,0,0,0-6.6,12.309l-.009-.028c.3,9.157-15.894,17.784-22.325,14.264l.009.009a11.111,11.111,0,1,0,5.758,9.779l0,0c.037-7.327,15.434-17.306,23.3-12.6l-.014-.023c.1.06.2.13.306.19s.214.107.325.163h-.033c8.084,4.318,7.457,22.655,1.193,26.462h.009a11.1,11.1,0,1,0,11.348-.1l.009,0c-6.329-3.7-7.271-22.023.734-26.481h-.033a13.811,13.811,0,0,0,7.155-11.994v0c.093-9.157,8.869-15.676,18.671-9.751l-.019-.033c.149.1.293.2.45.288s.32.158.483.241h-.042c10.127,5.349,9.064,16.228,1.258,21.025h0a13.881,13.881,0,1,0,14.3-.125h.023c-7.889-4.657-9.143-15.518.887-21.043h-.033c.3-.167.613-.33.91-.515a16.159,16.159,0,0,1,4.225-1.908l.023.1a11.574,11.574,0,0,1,6.835-.019,2.726,2.726,0,0,1,.274.1c.163.056.316.121.474.186a11.975,11.975,0,0,1,7,10.972l.009-.023a13.856,13.856,0,0,0,7.03,11.724c.1.06.214.107.32.163h-.028c8.079,4.318,7.452,22.655,1.193,26.462h0a11.32,11.32,0,1,0,12.356.566c-.181-.135-.376-.255-.571-.381-.1-.065-.195-.139-.3-.2h.009c-6.324-3.705-7.248-22.032.757-26.476h-.028c.107-.06.218-.107.32-.167s.2-.135.3-.2l-.014.023c4.128-2.559,10.433-1.031,15.476,2.062,4.4,2.735,7.8,6.649,7.875,10.048l.009-.019a11.1,11.1,0,0,0,3.608,7.945c.2.2.423.381.641.562l.153.125a11.1,11.1,0,0,0,14.06-17.162c-.093-.084-.2-.162-.3-.246-.121-.093-.241-.2-.362-.283a10.925,10.925,0,0,0-12.226-.794l.009-.019c-3.362,1.918-9.5.492-14.529-2.623-4.416-2.791-7.931-6.886-7.861-11.158l-.014.028a13.81,13.81,0,0,0-6.8-12.2h0c-7.88-4.667-9.124-15.527.915-21.043h-.042c.158-.084.32-.153.478-.246s.3-.2.45-.3l-.019.037c4.495-2.823,8.818-2.962,12.184-1.393a12.072,12.072,0,0,1,6.44,10.726l.009-.023a14.019,14.019,0,1,0,7.244-12.309l.014-.019c-7.982,4.495-18.011.139-17.765-11.311l-.019.032c.009-.348.023-.7.009-1.049-.413-11.436,9.542-15.94,17.589-11.571l-.014-.023a13.852,13.852,0,0,0,13.665-.209c.107-.06.2-.135.3-.2l-.014.023c3.891-2.415,9.723-1.193,14.6,1.546,4.778,2.74,8.59,6.914,8.674,10.522l.009-.019a11.112,11.112,0,0,0,3.845,8.149l0,0c.218.19.432.376.669.553a11.1,11.1,0,0,0,16.372-14.4M81.694,148.19a10.69,10.69,0,1,1,10.55-10.828,10.688,10.688,0,0,1-10.55,10.828m21.777-68.168a10.689,10.689,0,1,1-3.8,14.631,10.681,10.681,0,0,1,3.8-14.631m-4.68,51.494a10.734,10.734,0,1,1,4.058,14.631,10.733,10.733,0,0,1-4.058-14.631m19.98,58.626a10.69,10.69,0,1,1-4.04-14.566,10.687,10.687,0,0,1,4.04,14.566m13.168-23.04a10.736,10.736,0,1,1-4.058-14.631,10.738,10.738,0,0,1,4.058,14.631m0-49.637a10.736,10.736,0,1,1-4.058-14.631,10.738,10.738,0,0,1,4.058,14.631m22.808-33.826a10.688,10.688,0,1,1,4.04,14.566,10.687,10.687,0,0,1-4.04-14.566m-13.354,23.254a10.734,10.734,0,1,1,4.054,14.631,10.732,10.732,0,0,1-4.054-14.631m4.054,63.878a10.736,10.736,0,1,1,14.631-4.058c-.1.176-.218.344-.325.511a8.979,8.979,0,0,1-5.874,4.458,10.717,10.717,0,0,1-8.432-.91m24.6,22.994a10.692,10.692,0,1,1,3.8-14.636,10.692,10.692,0,0,1-3.8,14.636m5.665-52.065a10.736,10.736,0,1,1-4.058-14.631,10.741,10.741,0,0,1,4.058,14.631m16.391,5.27a10.69,10.69,0,1,1,10.55-10.833,10.692,10.692,0,0,1-10.55,10.833" transform="translate(0.409 18.67)" fill="#00a8b0"/>
      </g>
    </g>
    <g id="Group_476" data-name="Group 476" transform="translate(33.965 143.995)">
      <g id="Group_28" data-name="Group 28" transform="translate(0 0)" clip-path="url(#clip-path-2)">
        <path id="Path_86" data-name="Path 86" d="M126.093,34.321c-.162,0-.325-.014-.488-.014A103.293,103.293,0,0,0,22.33,136.608c.163,0,.325.009.488.009a103.286,103.286,0,0,0,103.276-102.3" transform="translate(81.354 124.99)" fill="#33b071" fill-rule="evenodd"/>
        <path id="Path_87" data-name="Path 87" d="M0,34.321c.163,0,.325-.014.488-.014a103.293,103.293,0,0,1,103.276,102.3c-.163,0-.325.009-.488.009A103.286,103.286,0,0,1,0,34.321" transform="translate(0 124.99)" fill="#33b071" fill-rule="evenodd"/>
        <path id="Path_88" data-name="Path 88" d="M126.093,11.65c-.162,0-.325-.014-.488-.014A103.293,103.293,0,0,0,22.33,113.937c.163,0,.325.009.488.009A103.286,103.286,0,0,0,126.093,11.65" transform="translate(81.354 42.393)" fill="#33b071" fill-rule="evenodd"/>
        <path id="Path_89" data-name="Path 89" d="M0,11.65c.163,0,.325-.014.488-.014a103.293,103.293,0,0,1,103.276,102.3c-.163,0-.325.009-.488.009A103.286,103.286,0,0,1,0,11.65" transform="translate(0 42.393)" fill="#33b071" fill-rule="evenodd"/>
        <path id="Path_90" data-name="Path 90" d="M19.774,11.61h0a11.611,11.611,0,1,0,5.8-10.053,11.61,11.61,0,0,0-5.8,10.053" transform="translate(72.042 0.003)" fill="#33b071" fill-rule="evenodd"/>
        <line id="Line_1" data-name="Line 1" y2="263.525" transform="translate(103.725 2.456)" fill="none" stroke="#33b071" stroke-width="1.5"/>
        <path id="Path_91" data-name="Path 91" d="M0,56.311c.534,57.252,46.758,103.5,103.726,103.5s103.188-46.252,103.722-103.5Z" transform="translate(0 205.157)" fill="#007ec3" fill-rule="evenodd"/>
        <path id="Path_92" data-name="Path 92" d="M207.448,182.55C206.914,125.052,160.69,78.6,103.722,78.6S.534,125.052,0,182.55Z" transform="translate(0 286.365)" fill="#b81e78" fill-rule="evenodd"/>
      </g>
    </g>
  </g>
  <rect id="Rectangle_383" data-name="Rectangle 383" width="210.585" height="210.585" transform="translate(449.827 414.267) rotate(90)" fill="#007ec3"/>
  <rect id="Rectangle_384" data-name="Rectangle 384" width="207.739" height="210.585" transform="translate(449.827 624.852) rotate(90)" fill="#502c7e"/>
  <rect id="Rectangle_386" data-name="Rectangle 386" width="210.585" height="210.585" transform="translate(868.15 414.267) rotate(90)" fill="#007ec3"/>
  <g id="Group_478" data-name="Group 478" transform="translate(278.218 444.503)">
    <g id="Group_17" data-name="Group 17" transform="translate(0 0)" clip-path="url(#clip-path-3)">
      <path id="Path_49" data-name="Path 49" d="M66.482,118.938a6.733,6.733,0,1,1,6.733-6.733,6.732,6.732,0,0,1-6.733,6.733m0-95.364A11.787,11.787,0,1,1,78.267,11.785,11.787,11.787,0,0,1,66.482,23.574M29.151,92.341,15.388,84.392a3.173,3.173,0,0,0-3.329.056,6.73,6.73,0,1,1,3.181-5.716l0,.223a3.159,3.159,0,0,0,1.611,2.907l13.763,7.945a3.172,3.172,0,0,0,3.329-.051,6.729,6.729,0,1,1-3.176,5.716c0-.079,0-.153,0-.228a3.164,3.164,0,0,0-1.616-2.9m88.343-9.361-13.851,8.4a3.17,3.17,0,0,0-1.551,2.939c0,.125.009.246.009.371A6.722,6.722,0,1,1,98.8,88.9a3.154,3.154,0,0,0,3.325-.014l13.851-8.4a3.152,3.152,0,0,0,1.551-2.939c0-.121-.009-.246-.009-.371a6.733,6.733,0,1,1,6.733,6.733,6.67,6.67,0,0,1-3.431-.938,3.162,3.162,0,0,0-3.329.014m-32.2-47.417-7.216,4.374a3.178,3.178,0,0,0-1.5,3.371,10.4,10.4,0,0,1,.181,1.95,10.278,10.278,0,1,1-20.556,0,10.575,10.575,0,0,1,.144-1.727,3.183,3.183,0,0,0-1.569-3.343L47.733,36.12a3.178,3.178,0,0,0-3.677.316,10.279,10.279,0,1,1,3.719-7.912,10.084,10.084,0,0,1-.149,1.727A3.2,3.2,0,0,0,49.2,33.594l7.044,4.063a3.177,3.177,0,0,0,3.682-.311,10.273,10.273,0,0,1,12.95-.139,3.179,3.179,0,0,0,3.687.232l7.216-4.374a3.178,3.178,0,0,0,1.5-3.371,10.4,10.4,0,0,1-.186-1.95A10.285,10.285,0,1,1,88.979,35.8a3.179,3.179,0,0,0-3.687-.232m30.52,14.965-10.489,6.357a3.178,3.178,0,0,0-1.523,3.195,9.179,9.179,0,0,1,.074,1.138,8.506,8.506,0,0,1-13.41,6.951,3.179,3.179,0,0,0-3.538-.125L76.438,74.4a3.171,3.171,0,0,0-1.528,3.19,8.356,8.356,0,0,1,.079,1.138,8.506,8.506,0,0,1-17.013,0,8.14,8.14,0,0,1,.056-.957,3.185,3.185,0,0,0-1.6-3.157L46.08,68.642a3.174,3.174,0,0,0-3.538.2A8.5,8.5,0,0,1,28.988,62a9.218,9.218,0,0,1,.051-.957,3.178,3.178,0,0,0-1.593-3.157L17.092,51.9a3.183,3.183,0,0,0-3.538.2,8.5,8.5,0,1,1,3.459-6.844,8.141,8.141,0,0,1-.056.957,3.174,3.174,0,0,0,1.6,3.157L28.9,55.348a3.165,3.165,0,0,0,3.538-.2A8.512,8.512,0,0,1,46,62a8.2,8.2,0,0,1-.056.957,3.182,3.182,0,0,0,1.6,3.157L57.9,72.087a3.166,3.166,0,0,0,3.534-.2,8.5,8.5,0,0,1,9.951-.107,3.187,3.187,0,0,0,3.543.125l10.489-6.361a3.168,3.168,0,0,0,1.523-3.19,9.176,9.176,0,0,1-.074-1.138,8.506,8.506,0,0,1,13.41-6.951,3.171,3.171,0,0,0,3.538.121L114.3,48.03a3.171,3.171,0,0,0,1.528-3.19,8.375,8.375,0,0,1-.079-1.142,8.514,8.514,0,1,1,3.608,6.956,3.17,3.17,0,0,0-3.543-.125M66.482,150.637a4.956,4.956,0,0,1-4.936-4.49,3.156,3.156,0,0,0-1.6-2.493L42.537,133.587a3.129,3.129,0,0,0-2.967-.139,4.962,4.962,0,1,1,2.865-4.913,3.145,3.145,0,0,0,1.607,2.535l17.3,10.011a3.161,3.161,0,0,0,3.009.121,4.962,4.962,0,0,1,4.318.023,3.138,3.138,0,0,0,3.1-.139l17.087-10.359a3.152,3.152,0,0,0,1.556-2.684,4.96,4.96,0,1,1,4.959,5.08,4.889,4.889,0,0,1-1.811-.344,3.141,3.141,0,0,0-2.856.246L72.951,143.788a3.134,3.134,0,0,0-1.537,2.419,4.962,4.962,0,0,1-4.931,4.43" transform="translate(0 -0.001)" fill="#fff" fill-rule="evenodd"/>
      <path id="Path_50" data-name="Path 50" d="M30.651,32.684a4.961,4.961,0,1,1,4.964-4.959,4.961,4.961,0,0,1-4.964,4.959" transform="translate(93.603 82.923)" fill="#fff" fill-rule="evenodd"/>
      <path id="Path_51" data-name="Path 51" d="M5.723,33.016a4.959,4.959,0,1,1,4.959-4.959,4.958,4.958,0,0,1-4.959,4.959" transform="translate(2.783 84.151)" fill="#fff" fill-rule="evenodd"/>
    </g>
  </g>
  <g id="Group_483" data-name="Group 483" transform="translate(449.829 414.267)">
    <rect id="Rectangle_385" data-name="Rectangle 385" width="210.585" height="207.739" transform="translate(207.739) rotate(90)" fill="#b81e78"/>
    <g id="Group_479" data-name="Group 479" transform="translate(41.031 19.253)">
      <g id="Group_19" data-name="Group 19" transform="translate(0 0)" clip-path="url(#clip-path-4)">
        <path id="Path_52" data-name="Path 52" d="M37.116,2l5.122,10.378a3.6,3.6,0,0,0,2.7,1.964L56.391,16a3.586,3.586,0,0,1,1.987,6.115L50.09,30.2a3.577,3.577,0,0,0-1.031,3.171l1.955,11.409a3.582,3.582,0,0,1-5.2,3.775L35.57,43.17a3.569,3.569,0,0,0-3.339,0L21.989,48.552a3.583,3.583,0,0,1-5.2-3.775l1.955-11.409A3.577,3.577,0,0,0,17.712,30.2L9.424,22.118A3.586,3.586,0,0,1,11.411,16L22.866,14.34a3.59,3.59,0,0,0,2.7-1.964L30.685,2a3.586,3.586,0,0,1,6.431,0" transform="translate(30.378 -0.003)" fill="#fff" fill-rule="evenodd"/>
        <path id="Path_53" data-name="Path 53" d="M37.372,7.983l2.791,5.656a1.958,1.958,0,0,0,1.472,1.073l6.245.905a1.954,1.954,0,0,1,1.082,3.334l-4.518,4.4a1.966,1.966,0,0,0-.562,1.732L44.95,31.3a1.956,1.956,0,0,1-2.837,2.062l-5.586-2.939a1.96,1.96,0,0,0-1.816,0l-5.586,2.939A1.953,1.953,0,0,1,26.294,31.3l1.063-6.217a1.953,1.953,0,0,0-.562-1.732l-4.518-4.4a1.954,1.954,0,0,1,1.082-3.334l6.245-.905a1.95,1.95,0,0,0,1.472-1.073l2.791-5.656a1.954,1.954,0,0,1,3.506,0" transform="translate(79.002 25.113)" fill="#fff" fill-rule="evenodd"/>
        <path id="Path_54" data-name="Path 54" d="M15.687,7.983l2.791,5.656a1.958,1.958,0,0,0,1.472,1.073l6.245.905a1.954,1.954,0,0,1,1.082,3.334l-4.518,4.4a1.966,1.966,0,0,0-.562,1.732L23.265,31.3a1.956,1.956,0,0,1-2.837,2.062l-5.586-2.939a1.96,1.96,0,0,0-1.816,0L7.441,33.363A1.953,1.953,0,0,1,4.609,31.3l1.063-6.217a1.953,1.953,0,0,0-.562-1.732l-4.518-4.4a1.954,1.954,0,0,1,1.082-3.334l6.245-.905a1.95,1.95,0,0,0,1.472-1.073l2.791-5.656a1.954,1.954,0,0,1,3.506,0" transform="translate(-0.002 25.113)" fill="#fff" fill-rule="evenodd"/>
        <path id="Path_55" data-name="Path 55" d="M48.963,22.329a30.682,30.682,0,0,1,9.184-6.036A31.979,31.979,0,0,1,102.56,42.555a30.433,30.433,0,0,1-8.813,25.287c-13.8,14.009-27.79,27.841-41.706,41.734a6.878,6.878,0,0,1-11.812-5.289,7.048,7.048,0,0,1,2.261-4.62q7.8-7.759,15.569-15.546c.432-.436.868-.868,1.3-1.3,1.082-1.1,1.3-2.076.539-2.693-1.054-.859-1.829-.232-2.6.548-2.6,2.619-5.214,5.219-7.824,7.824-3.139,3.134-6.245,6.3-9.417,9.4a6.857,6.857,0,0,1-10.851-8.126,8.51,8.51,0,0,1,1.528-1.959Q39.091,79.4,47.482,71.023c.093-.093.19-.181.288-.269.775-.71,1.147-1.555.334-2.4s-1.658-.5-2.4.251q-3.253,3.274-6.515,6.524c-3.636,3.631-7.257,7.281-10.912,10.884A6.512,6.512,0,0,1,21.108,87.6a6.545,6.545,0,0,1-4.485-5.53,6.712,6.712,0,0,1,2.117-5.967q8.393-8.379,16.776-16.758c1.319-1.319,1.532-2.108.743-2.87-.771-.752-1.514-.534-2.87.817q-8.428,8.428-16.874,16.841a6.528,6.528,0,0,1-7.151,1.676A6.577,6.577,0,0,1,4.773,70.08a6.418,6.418,0,0,1,1.908-5.53Q19.42,51.769,32.2,39.026c1.936-1.932,4.263-1.82,6.278.19,4.639,4.615,9.24,9.263,13.888,13.865a18.137,18.137,0,0,0,21.874,2.744c3.1-1.811,3.534-5.149.975-7.712Q62.839,35.708,50.43,23.346a11.083,11.083,0,0,0-1.467-1.017" transform="translate(17.176 49.929)" fill="#fff"/>
        <path id="Path_56" data-name="Path 56" d="M12.074,69.165A30.875,30.875,0,0,1,4.246,57.877c-6.84-17.227,1.5-36.19,19.037-42.212,12.449-4.276,23.774-1.6,33.246,7.685,8.934,8.762,17.714,17.677,26.564,26.527,1.792,1.788,1.653,2.665-.608,3.845a15.094,15.094,0,0,1-17.552-2.61c-4.792-4.643-9.463-9.417-14.19-14.125A6.533,6.533,0,0,0,44.257,35a8.059,8.059,0,0,0-3.538,1.862c-8.66,8.539-17.236,17.162-25.831,25.766a10.653,10.653,0,0,0-2.814,6.533" transform="translate(6.782 49.846)" fill="#fff"/>
      </g>
    </g>
  </g>
  <g id="Group_480" data-name="Group 480" transform="translate(691.318 469.065)">
    <g id="Group_21" data-name="Group 21" transform="translate(0 0)" clip-path="url(#clip-path-5)">
      <path id="Path_57" data-name="Path 57" d="M123.242,37.369c.009-.344.028-.683.028-1.026A36.333,36.333,0,0,0,104.5,4.532L74.436,34.342V54.572a8.386,8.386,0,1,1-5.3-.125V32.131L99.366,2.187a36.375,36.375,0,0,0-44.329,16.72A21.742,21.742,0,0,0,20.876,36.761c0,.237.009.469.019.7a33.206,33.206,0,0,0,12.23,64.045v0h5.149V91.723L27.131,80.579a8.385,8.385,0,1,1,3.84-3.65l12.6,12.6v11.984H58.714V85.571L39.5,66.362V49.832a8.4,8.4,0,1,1,5.3-.246v14.58L64.008,83.379v18.132H80.561V82.85l18.1-18.1v-18.4a8.4,8.4,0,1,1,5.293.218V66.947l-18.1,18.1v16.465H99.362V89l13.865-13.865a8.43,8.43,0,1,1,3.729,3.761l-12.3,12.3v10.317h5.558V101.5c.1,0,.2.009.306.009a33.33,33.33,0,0,0,12.718-64.138" transform="translate(0 0.002)" fill="#fff"/>
    </g>
  </g>
  <g id="Group_481" data-name="Group 481" transform="translate(278.218 654.89)">
    <g id="Group_15" data-name="Group 15" clip-path="url(#clip-path-6)">
      <path id="Path_44" data-name="Path 44" d="M35.906,99.985a8.049,8.049,0,0,1,8,7.137,7.3,7.3,0,0,0,3.705,5.66l6.2,3.575a7.3,7.3,0,0,0,6.756.381,8.044,8.044,0,0,1,6.422,0,7.3,7.3,0,0,0,6.756-.381l6.2-3.575a7.317,7.317,0,0,0,3.705-5.66,8.028,8.028,0,1,1,4.778,8.284,7.286,7.286,0,0,0-6.751.381l-6.2,3.575a7.284,7.284,0,0,0-3.705,5.665,8.045,8.045,0,0,1-15.987,0,7.3,7.3,0,0,0-3.705-5.665l-6.2-3.575a7.287,7.287,0,0,0-6.751-.381,8.045,8.045,0,1,1-3.218-15.42M91.635,3.465A8.041,8.041,0,0,1,99.626,10.6a7.3,7.3,0,0,0,3.71,5.66l6.189,3.58a7.306,7.306,0,0,0,6.761.376,8.045,8.045,0,0,1,7.991,13.846,7.286,7.286,0,0,0-3.041,6.032v7.169a7.286,7.286,0,0,0,3.041,6.032,8.04,8.04,0,1,1-9.56,0,7.286,7.286,0,0,0,3.041-6.032V40.1a7.286,7.286,0,0,0-3.041-6.032A8.058,8.058,0,0,1,111.5,28.5a7.29,7.29,0,0,0-3.7-5.665l-6.194-3.575a7.32,7.32,0,0,0-6.761-.381A8.043,8.043,0,1,1,91.635,3.465m-55.729,0A8.042,8.042,0,1,1,32.7,18.881a7.31,7.31,0,0,0-6.756.381l-6.2,3.58a7.287,7.287,0,0,0-3.705,5.66,8.041,8.041,0,0,1-3.213,5.563A7.286,7.286,0,0,0,9.783,40.1v7.169A7.286,7.286,0,0,0,12.825,53.3a8.044,8.044,0,1,1-9.561,0A7.291,7.291,0,0,0,6.31,47.265V40.1a7.291,7.291,0,0,0-3.046-6.032,8.045,8.045,0,0,1,7.991-13.846,7.3,7.3,0,0,0,6.756-.381l6.2-3.58a7.287,7.287,0,0,0,3.705-5.66,8.04,8.04,0,0,1,7.991-7.132" transform="translate(0 12.624)" fill="#fff" fill-rule="evenodd"/>
      <path id="Path_45" data-name="Path 45" d="M20.044,33.411a7.976,7.976,0,0,1,3.213.669,7.3,7.3,0,0,0,6.756-.381l6.194-3.575a7.288,7.288,0,0,0,3.705-5.665,8.045,8.045,0,0,1,15.987,0A7.3,7.3,0,0,0,59.6,30.124L65.8,33.7a7.287,7.287,0,0,0,6.751.381,8.043,8.043,0,1,1-4.778,8.284,7.3,7.3,0,0,0-3.705-5.66l-6.194-3.58a7.311,7.311,0,0,0-6.756-.376,8.118,8.118,0,0,1-6.431,0,7.282,7.282,0,0,0-6.756.376L31.741,36.7a7.3,7.3,0,0,0-3.705,5.665,8.042,8.042,0,1,1-7.991-8.952" transform="translate(43.727 63.109)" fill="#fff" fill-rule="evenodd"/>
      <path id="Path_46" data-name="Path 46" d="M35.906,10.393a8.045,8.045,0,0,1,4.783,14.515,7.292,7.292,0,0,0-3.041,6.032v7.169a7.286,7.286,0,0,0,3.041,6.032A8.045,8.045,0,0,1,32.7,57.987a7.3,7.3,0,0,0-6.756.381l-6.2,3.575a7.3,7.3,0,0,0-3.705,5.665,8.045,8.045,0,1,1-7.991-8.952,7.954,7.954,0,0,1,3.209.669,7.31,7.31,0,0,0,6.756-.381l6.2-3.58a7.287,7.287,0,0,0,3.705-5.66,8.041,8.041,0,0,1,3.213-5.563,7.286,7.286,0,0,0,3.041-6.032V30.94a7.286,7.286,0,0,0-3.041-6.032,8.045,8.045,0,0,1,4.778-14.515" transform="translate(0 37.865)" fill="#fff" fill-rule="evenodd"/>
      <path id="Path_47" data-name="Path 47" d="M20.044,0a8.042,8.042,0,0,1,4.778,14.51,7.3,7.3,0,0,0-3.041,6.036v7.165a7.307,7.307,0,0,0,3.041,6.036,8.022,8.022,0,0,1,3.213,5.563,7.3,7.3,0,0,0,3.705,5.66l6.194,3.58a7.3,7.3,0,0,0,6.756.376,8.046,8.046,0,1,1-4.778,8.284,7.3,7.3,0,0,0-3.705-5.665L30.013,47.97a7.31,7.31,0,0,0-6.756-.381,8.042,8.042,0,0,1-7.991-13.842,7.307,7.307,0,0,0,3.041-6.036V20.547a7.3,7.3,0,0,0-3.041-6.036A8.042,8.042,0,0,1,20.044,0" transform="translate(43.727 0)" fill="#fff" fill-rule="evenodd"/>
      <path id="Path_48" data-name="Path 48" d="M20.044,13.858A8.042,8.042,0,1,1,12,21.9a8.043,8.043,0,0,1,8.042-8.042" transform="translate(43.727 50.489)" fill="#fff" fill-rule="evenodd"/>
    </g>
  </g>
  <path id="Path_544" data-name="Path 544" d="M108.5,41.921H19.628a8.64,8.64,0,0,1,0-17.281H108.5a8.64,8.64,0,0,1,0,17.281" transform="translate(489.48 727.407)" fill="#00a8b0" fill-rule="evenodd"/>
  <path id="Path_545" data-name="Path 545" d="M108.5,48.849H19.628a8.64,8.64,0,0,1,0-17.281H108.5a8.64,8.64,0,0,1,0,17.281" transform="translate(489.48 752.882)" fill="#00a8b0" fill-rule="evenodd"/>
  <path id="Path_546" data-name="Path 546" d="M56.725,54.054H24.969a7.665,7.665,0,1,1,0-15.331H56.725a7.665,7.665,0,1,1,0,15.331" transform="translate(512.696 779.189)" fill="#00a8b0" fill-rule="evenodd"/>
  <path id="Path_547" data-name="Path 547" d="M0,0C.538,57.666,47.1,104.252,104.476,104.252S208.41,57.666,208.948,0Z" transform="translate(449.07 624.296)" fill="#00a8b0" fill-rule="evenodd"/>
  <g id="Group_482" data-name="Group 482" transform="translate(657.219 624.942)">
    <rect id="Rectangle_71" data-name="Rectangle 71" width="207.739" height="210.585" transform="translate(210.585 0) rotate(90)" fill="#502c7e"/>
    <g id="Group_50" data-name="Group 50" transform="translate(39.14 32.616)">
      <g id="Group_49" data-name="Group 49" transform="translate(0 0)" clip-path="url(#clip-path-7)">
        <path id="Path_169" data-name="Path 169" d="M57.455,25.156A7.452,7.452,0,0,0,46.2,32.585a2.3,2.3,0,0,1-1.2,2.4l-14.308,7.3a2.3,2.3,0,0,1-2.721-.348,8.848,8.848,0,0,0-1.4-1.062,8.543,8.543,0,1,0,3.954,5.753,2.311,2.311,0,0,1,1.18-2.477l14.312-7.3a2.293,2.293,0,0,1,2.657.289,7.332,7.332,0,0,0,1.017.741,7.452,7.452,0,1,0,7.764-12.722" transform="translate(47.766 84.688)" fill="#fff" fill-rule="evenodd"/>
        <path id="Path_170" data-name="Path 170" d="M41.142,49.647A8.722,8.722,0,0,0,54.384,41.63a3.254,3.254,0,0,1,1.781-3.163l11.162-5.78a3.253,3.253,0,0,1,3.606.366,8.58,8.58,0,0,0,.954.673,8.716,8.716,0,1,0-4.158-6.865,3.247,3.247,0,0,1-1.781,3.163L54.786,35.8a3.253,3.253,0,0,1-3.606-.366,8.025,8.025,0,0,0-.954-.673,8.718,8.718,0,0,0-13.241,8.017A3.258,3.258,0,0,1,35.2,45.946l-11.158,5.78a3.252,3.252,0,0,1-3.611-.371,8.989,8.989,0,0,0-.954-.669,8.716,8.716,0,1,0,4.158,6.86,3.255,3.255,0,0,1,1.781-3.163l11.162-5.776a3.253,3.253,0,0,1,3.606.366,8.581,8.581,0,0,0,.954.673" transform="translate(21.901 61.823)" fill="#fff" fill-rule="evenodd"/>
        <path id="Path_171" data-name="Path 171" d="M4.152,52.286A8.2,8.2,0,0,0,16.6,44.748a3.048,3.048,0,0,1,1.672-2.974l10.494-5.432a3.053,3.053,0,0,1,3.389.343,7.122,7.122,0,0,0,.9.633A8.2,8.2,0,0,0,45.5,29.781a3.059,3.059,0,0,1,1.672-2.974l10.494-5.432a3.059,3.059,0,0,1,3.394.343,7.953,7.953,0,0,0,.895.633,8.2,8.2,0,1,0-3.9-6.449,3.074,3.074,0,0,1-1.677,2.974L45.883,24.308a3.045,3.045,0,0,1-3.389-.348,9.153,9.153,0,0,0-.9-.633,8.195,8.195,0,0,0-12.446,7.538,3.061,3.061,0,0,1-1.677,2.978L16.982,39.275a3.06,3.06,0,0,1-3.394-.348A8.2,8.2,0,1,0,4.152,52.286" transform="translate(0.792 25.204)" fill="#fff" fill-rule="evenodd"/>
        <path id="Path_172" data-name="Path 172" d="M126.652,81.116l.009,0a6.472,6.472,0,0,0,.054-11.135A3.026,3.026,0,0,1,125.2,67.3l.086-15.749a3.033,3.033,0,0,1,1.654-2.725c.081-.045.167-.09.244-.14a6.488,6.488,0,0,0,.782-.542,8.135,8.135,0,1,0-8.9-13.6,3.032,3.032,0,0,1-3.385.149l-10.091-5.992a3.035,3.035,0,0,1-1.487-3.037,8.7,8.7,0,0,0,.063-1.089,8.141,8.141,0,0,0-12.889-6.535,3.039,3.039,0,0,1-3.389.149L77.8,12.193a3.03,3.03,0,0,1-1.487-3.041,8.655,8.655,0,0,0,.059-1.089,8.139,8.139,0,1,0-3.385,6.684,3.024,3.024,0,0,1,3.385-.149l10.091,5.988a3.049,3.049,0,0,1,1.487,3.041,7.875,7.875,0,0,0-.063,1.089,8.141,8.141,0,0,0,12.889,6.535,3.04,3.04,0,0,1,3.389-.154l10.087,5.992a3.041,3.041,0,0,1,1.491,3.041,7.877,7.877,0,0,0-.063,1.089c0,.24.018.479.041.714-.009.063-.018.122-.032.185a4.152,4.152,0,0,1-1.889,2.1L92.853,55.551a4.142,4.142,0,0,1-4.2-.095l-.014-.009-.018-.009-.072-.05A8.829,8.829,0,0,0,75.183,63a4.136,4.136,0,0,1-2.219,3.751L54.5,76.737a4.138,4.138,0,0,1-4.488-.285c-.2-.145-.411-.28-.628-.411a8.822,8.822,0,0,0-13.35,7.972,4.149,4.149,0,0,1-2.214,3.918l-20.5,11.1a4.117,4.117,0,0,1-3.914.059,6.5,6.5,0,1,0,2.671,9.156,6.417,6.417,0,0,0,.881-2.6A4.141,4.141,0,0,1,15.15,102.4L36.1,91.067a4.132,4.132,0,0,1,4.2.1l.014,0a8.826,8.826,0,0,0,13.359-7.24,4.139,4.139,0,0,1,2.214-3.575L74.794,70.125a4.132,4.132,0,0,1,4.347.19c.108.068.217.14.325.2l.009,0,.081.054A8.823,8.823,0,0,0,92.912,62.61a4.156,4.156,0,0,1,2.214-3.923l20.5-11.095a4.372,4.372,0,0,1,1.265-.447,3.646,3.646,0,0,1,1.672.2,8.047,8.047,0,0,0,1.93,1.216c.118.072.23.158.348.221a3.04,3.04,0,0,1,1.631,2.748l-.086,15.379a3.044,3.044,0,0,1-1.762,2.784c-.163.077-.325.163-.484.253a6.463,6.463,0,0,0,.416,11.384,3.054,3.054,0,0,1,1.74,2.806l-.09,17.078a3.026,3.026,0,0,1-1.342,2.535,4.765,4.765,0,1,0,5.464.027,3.026,3.026,0,0,1-1.311-2.549l.095-17.449a3.029,3.029,0,0,1,1.541-2.666" transform="translate(-0.001 -0.001)" fill="#fff" fill-rule="evenodd"/>
        <path id="Path_173" data-name="Path 173" d="M5.523,34.431A8.679,8.679,0,0,0,18.579,25.46a2.338,2.338,0,0,1,1.2-2.517L34.31,15.531a2.342,2.342,0,0,1,2.7.294A7.567,7.567,0,1,0,34.5,11.207a2.344,2.344,0,0,1-1.216,2.431L18.746,21.049a2.345,2.345,0,0,1-2.761-.357,8.91,8.91,0,0,0-1.424-1.076A8.677,8.677,0,1,0,5.523,34.431" transform="translate(4.803 8.971)" fill="#fff" fill-rule="evenodd"/>
      </g>
    </g>
  </g>
  <g id="Group_477" data-name="Group 477" transform="translate(449.629 0)">
    <rect id="Rectangle_18" data-name="Rectangle 18" width="415.478" height="418.323" transform="translate(418.323) rotate(90)" fill="url(#linear-gradient)"/>
    <g id="Group_14" data-name="Group 14" transform="translate(75.172 54.381)">
      <g id="Group_13" data-name="Group 13" transform="translate(0 0)" clip-path="url(#clip-path-8)">
        <path id="Path_43" data-name="Path 43" d="M124.848,286.327a10.785,10.785,0,1,1,4.077,14.7,10.788,10.788,0,0,1-4.077-14.7m123.85-197a10.784,10.784,0,1,0-4.077-14.7,10.781,10.781,0,0,0,4.077,14.7m1.226,140.427a10.786,10.786,0,1,0-4.077-14.7,10.789,10.789,0,0,0,4.077,14.7M137.1,1.4a10.785,10.785,0,1,0,4.077,14.7A10.785,10.785,0,0,0,137.1,1.4M17.319,213.1A10.786,10.786,0,1,0,21.4,227.8a10.785,10.785,0,0,0-4.077-14.7M16.1,72.676a10.785,10.785,0,1,0,4.077,14.7,10.781,10.781,0,0,0-4.077-14.7M260.6,183.079a10.782,10.782,0,0,1-12.068-.78c-.228-.167-.436-.348-.645-.529l-.009-.009a10.8,10.8,0,0,1-3.733-7.917l-.009.019c-.079-3.5-3.784-7.559-8.423-10.22-4.741-2.661-10.406-3.845-14.185-1.5l.014-.019c-.1.06-.19.13-.293.19a13.461,13.461,0,0,1-13.275.2l.014.023c-7.815-4.239-17.487.135-17.083,11.241.009.339,0,.678-.014,1.017l.019-.028c-.237,11.121,9.5,15.351,17.259,10.986l-.014.014a13.267,13.267,0,1,1-7.035,11.961l-.014.019a11.715,11.715,0,0,0-6.255-10.415c-3.269-1.528-7.466-1.388-11.836,1.351l.023-.033c-.149.093-.288.2-.441.288s-.306.158-.46.237l.037,0c-9.751,5.354-8.544,15.9-.887,20.435h0a13.437,13.437,0,0,1,6.6,11.85l.014-.028c-.07,4.151,3.343,8.126,7.634,10.837,4.885,3.027,10.851,4.411,14.116,2.549l-.014.019a10.769,10.769,0,0,1,10.67-.037,10.31,10.31,0,0,1,1.207.808c.121.088.237.181.353.279.1.079.195.153.288.237A10.777,10.777,0,0,1,208.5,252.793c-.051-.037-.1-.084-.149-.125-.214-.172-.423-.348-.627-.539a10.817,10.817,0,0,1-3.5-7.722l-.009.023c-.074-3.306-3.376-7.109-7.647-9.765-4.9-3-11.028-4.49-15.03-2l.009-.023c-.1.06-.19.135-.293.2s-.209.1-.311.158l.028,0c-7.778,4.318-6.877,22.116-.738,25.714h-.009c.1.06.19.13.293.2.186.121.376.241.553.371a10.6,10.6,0,0,1,3.013,3.278,10.808,10.808,0,1,1-18.805.074,10.678,10.678,0,0,1,3.794-3.9h-.009c6.083-3.7,6.691-21.508-1.156-25.7h.023c-.1-.056-.209-.1-.311-.158a13.457,13.457,0,0,1-6.826-11.39l-.009.023a11.637,11.637,0,0,0-6.8-10.661c-.153-.06-.3-.125-.455-.181-.093-.032-.181-.065-.269-.093a11.265,11.265,0,0,0-6.64.019l-.023-.093a15.845,15.845,0,0,0-4.1,1.853c-.288.181-.59.339-.887.5h.037c-9.742,5.368-8.525,15.912-.864,20.44h-.019a13.483,13.483,0,1,1-13.888.121h0c7.578-4.657,8.613-15.225-1.221-20.421h.037c-.158-.079-.316-.144-.469-.232s-.293-.19-.441-.283l.019.033c-9.514-5.753-18.044.576-18.132,9.472v0a13.425,13.425,0,0,1-6.951,11.65h.033c-7.773,4.328-6.858,22.13-.715,25.719h-.009A10.778,10.778,0,1,1,88,259.433h-.009c6.083-3.7,6.691-21.508-1.161-25.7h.028c-.1-.056-.209-.1-.316-.158s-.2-.125-.293-.186l.014.023c-7.638-4.569-22.594,5.126-22.631,12.244v-.009a10.787,10.787,0,1,1-5.6-9.5l0-.009C64.271,239.56,80,231.179,79.71,222.287l.014.023a13.4,13.4,0,0,1,6.408-11.952h-.009c7.582-4.657,8.618-15.23-1.217-20.421h.037c-.158-.084-.316-.149-.469-.237s-.293-.186-.441-.279l.019.033c-9.514-5.753-18.044.576-18.132,9.472v0a13.483,13.483,0,1,1-7.048-11.97l-.014-.014c7.829,4.239,17.5-.153,17.078-11.265l.019.028c-.014-.339-.037-.678-.028-1.017.218-11.111-9.523-15.332-17.268-10.958l.014-.023a13.468,13.468,0,0,1-13.28.014c-.1-.06-.2-.13-.3-.19l.014.028c-7.634-4.569-22.59,5.122-22.627,12.244v-.009a10.786,10.786,0,1,1-5.6-9.5l-.009-.009c6.245,3.417,21.972-4.964,21.679-13.856l.014.023c-.009-.241-.023-.478-.019-.724.084-8.878-15.741-16.953-21.916-13.428l.009-.019a10.784,10.784,0,1,1,5.419-9.574l.009-.014c.158,7.109,15.272,16.539,22.831,11.845a13.467,13.467,0,0,1,13.558-.39l-.009-.019c7.824,4.235,17.491-.153,17.073-11.269l.019.033c-.014-.344-.037-.683-.028-1.026.214-11.107-9.523-15.323-17.268-10.949l.014-.023a13.482,13.482,0,1,1,6.826-12.063l.014-.023c.241,8.887,8.869,15.067,18.281,9.157.293-.181.59-.334.887-.5h-.033c9.742-5.363,8.525-15.913.864-20.435h.019a13.478,13.478,0,0,1-6.645-11.859c.088-8.883-15.741-16.957-21.916-13.433l.014-.019a10.786,10.786,0,1,1,5.414-9.574L62,58.124c.163,7.1,15.239,16.521,22.8,11.864.2-.125.418-.232.627-.348H85.4c7.773-4.328,6.858-22.13.71-25.719h.009a10.781,10.781,0,1,1,11.023-.093h.009c-6.083,3.7-6.691,21.508,1.156,25.7h-.028c.107.056.214.1.316.158a13.457,13.457,0,0,1,6.826,11.39l.014-.023c.241,8.887,8.873,15.063,18.285,9.157.288-.181.585-.339.887-.5h-.037c9.746-5.363,8.53-15.913.864-20.44h.023a13.48,13.48,0,1,1,13.883-.121h.009c-7.582,4.657-8.613,15.225,1.217,20.421h-.037c.158.084.316.149.469.232s.293.19.441.283l-.019-.033c9.514,5.753,18.044-.576,18.132-9.472l0,0a13.408,13.408,0,0,1,6.946-11.65h-.028c7.773-4.328,6.853-22.13.71-25.719h.009a10.792,10.792,0,1,1,11.023-.1h.009c-6.083,3.7-6.691,21.512,1.156,25.705h-.028c.107.051.214.1.316.158s.195.125.3.186l-.014-.023c7.634,4.569,22.59-5.126,22.627-12.244l0,0a10.783,10.783,0,1,1,5.59,9.5l0,.009c-6.241-3.417-21.967,4.964-21.675,13.856l-.014-.023A13.419,13.419,0,0,1,180.079,92.2h.009c-7.583,4.657-8.613,15.23,1.221,20.421h-.037c.153.084.311.149.464.237s.292.186.441.279l-.019-.033c9.519,5.753,18.044-.576,18.132-9.472l0,0a13.479,13.479,0,1,1,7.049,11.97l.009.009c-7.824-4.235-17.5.158-17.073,11.269l-.019-.028c.014.344.032.683.023,1.026a13.441,13.441,0,0,0,2.405,8.409l.153-.051a10.318,10.318,0,0,0,4.62,3.617,12.093,12.093,0,0,0,10.09-1.026l-.009.023a13.464,13.464,0,0,1,12.648-.344c.409.2.808.4,1.2.631a6.028,6.028,0,0,0,.543.283c7.838,3.464,21.758-5.8,21.8-12.667l0,.009a10.777,10.777,0,0,1,16.089-9.342c.088.051.167.111.251.163a10.775,10.775,0,0,1-10.5,18.819l.014.019c-6.231-3.417-21.921,4.913-21.693,13.786.009.246,0,.488-.009.724l.014-.023c-.07,4.151,3.348,8.13,7.643,10.842,4.866,2.995,10.786,4.351,14.032,2.5l-.009.019a10.771,10.771,0,0,1,10.666-.037,12.344,12.344,0,0,1,4.207,4.086,10.784,10.784,0,0,1-3.835,14.761M90,151.56a10.383,10.383,0,1,0-10.248,10.522A10.383,10.383,0,0,0,90,151.56m7.216-41.483A10.383,10.383,0,1,0,100.9,95.864a10.385,10.385,0,0,0-3.687,14.213m3.083,50.017a10.43,10.43,0,1,0-3.942-14.213,10.432,10.432,0,0,0,3.942,14.213m11.543,28.584a10.385,10.385,0,1,0,3.924,14.153,10.386,10.386,0,0,0-3.924-14.153m12.774-22.441a10.428,10.428,0,1,0,3.942,14.208,10.428,10.428,0,0,0-3.942-14.208m0-48.216a10.43,10.43,0,1,0,3.942,14.213,10.436,10.436,0,0,0-3.942-14.213m30.019-4.495a10.384,10.384,0,1,0-3.924-14.153,10.381,10.381,0,0,0,3.924,14.153m-12.955,22.65a10.43,10.43,0,1,0-3.942-14.213,10.422,10.422,0,0,0,3.942,14.213m8.186,48.717a8.706,8.706,0,0,0,5.707-4.328c.107-.163.218-.325.316-.5a10.454,10.454,0,1,0-6.022,4.824m19.395,7.234a10.385,10.385,0,1,0-3.691,14.218,10.385,10.385,0,0,0,3.691-14.218m-2.127-50.565a10.428,10.428,0,1,0,3.942,14.208,10.43,10.43,0,0,0-3.942-14.208m30.107,8.808a10.383,10.383,0,1,0-10.243,10.522,10.38,10.38,0,0,0,10.243-10.522" transform="translate(0.001 0.002)" fill="#edeeef"/>
      </g>
    </g>
  </g>
</svg>
