<svg id="element_02" xmlns="http://www.w3.org/2000/svg" xmlns:xlink="http://www.w3.org/1999/xlink" width="628.114" height="417.925" viewBox="0 0 628.114 417.925">
  <defs>
    <clipPath id="clip-path">
      <rect id="Rectangle_246" data-name="Rectangle 246" width="126.657" height="143.712" fill="none"/>
    </clipPath>
    <clipPath id="clip-path-2">
      <rect id="Rectangle_248" data-name="Rectangle 248" width="125.886" height="134.897" fill="none"/>
    </clipPath>
    <clipPath id="clip-path-3">
      <rect id="Rectangle_254" data-name="Rectangle 254" width="203.133" height="210.871" fill="#33b071"/>
    </clipPath>
  </defs>
  <g id="Group_486" data-name="Group 486" transform="translate(207.327 0)">
    <g id="Group_258" data-name="Group 258" transform="translate(210.394 0)">
      <g id="Group_257" data-name="Group 257" transform="translate(0 0)">
        <rect id="Rectangle_245" data-name="Rectangle 245" width="208.962" height="210.394" transform="translate(210.394) rotate(90)" fill="#502c7e"/>
        <g id="Group_256" data-name="Group 256" transform="translate(41.869 32.625)">
          <g id="Group_255" data-name="Group 255" transform="translate(0 0)">
            <g id="Group_254" data-name="Group 254" clip-path="url(#clip-path)">
              <path id="Path_301" data-name="Path 301" d="M63.426,113.469a6.423,6.423,0,1,1,6.423-6.423,6.422,6.422,0,0,1-6.423,6.423m0-90.979A11.245,11.245,0,1,1,74.669,11.243,11.245,11.245,0,0,1,63.426,22.49M27.81,88.1,14.68,80.512a3.027,3.027,0,0,0-3.176.053,6.421,6.421,0,1,1,3.034-5.453l0,.213A3.014,3.014,0,0,0,16.071,78.1L29.2,85.677a3.026,3.026,0,0,0,3.176-.049,6.42,6.42,0,1,1-3.03,5.453c0-.075,0-.146,0-.217A3.019,3.019,0,0,0,27.81,88.1m84.281-8.93L98.878,87.178a3.024,3.024,0,0,0-1.48,2.8c0,.12.009.235.009.354a6.412,6.412,0,1,1-3.145-5.528,3.009,3.009,0,0,0,3.172-.013l13.214-8.014a3.007,3.007,0,0,0,1.48-2.8c0-.115-.009-.235-.009-.354a6.423,6.423,0,1,1,6.423,6.423,6.363,6.363,0,0,1-3.274-.895,3.017,3.017,0,0,0-3.176.013M81.371,33.928,74.487,38.1a3.032,3.032,0,0,0-1.431,3.216,9.922,9.922,0,0,1,.173,1.861,9.805,9.805,0,1,1-19.611,0,10.088,10.088,0,0,1,.137-1.648,3.037,3.037,0,0,0-1.5-3.189l-6.72-3.881a3.032,3.032,0,0,0-3.508.3,9.806,9.806,0,1,1,3.548-7.548,9.62,9.62,0,0,1-.142,1.648,3.05,3.05,0,0,0,1.5,3.189l6.72,3.876a3.031,3.031,0,0,0,3.513-.3A9.8,9.8,0,0,1,69.521,35.5a3.033,3.033,0,0,0,3.517.221l6.884-4.173a3.032,3.032,0,0,0,1.431-3.216,9.923,9.923,0,0,1-.177-1.861,9.812,9.812,0,1,1,3.712,7.681,3.033,3.033,0,0,0-3.517-.221m29.117,14.277-10.007,6.064a3.032,3.032,0,0,0-1.453,3.048A8.757,8.757,0,0,1,99.1,58.4a8.115,8.115,0,0,1-12.793,6.631,3.033,3.033,0,0,0-3.376-.12L72.923,70.983a3.025,3.025,0,0,0-1.457,3.043,7.973,7.973,0,0,1,.075,1.085,8.115,8.115,0,0,1-16.231,0,7.766,7.766,0,0,1,.053-.913,3.039,3.039,0,0,0-1.524-3.012l-9.878-5.7a3.028,3.028,0,0,0-3.376.19,8.112,8.112,0,0,1-12.931-6.53,8.8,8.8,0,0,1,.049-.913,3.032,3.032,0,0,0-1.519-3.012l-9.878-5.706a3.036,3.036,0,0,0-3.376.19,8.113,8.113,0,1,1,3.3-6.53,7.766,7.766,0,0,1-.053.913A3.028,3.028,0,0,0,17.7,47.1l9.874,5.7a3.019,3.019,0,0,0,3.376-.19,8.12,8.12,0,0,1,12.935,6.534,7.822,7.822,0,0,1-.053.913,3.035,3.035,0,0,0,1.524,3.012l9.878,5.7a3.021,3.021,0,0,0,3.371-.19,8.109,8.109,0,0,1,9.493-.1,3.041,3.041,0,0,0,3.38.12l10.007-6.069a3.022,3.022,0,0,0,1.453-3.043,8.755,8.755,0,0,1-.071-1.085,8.115,8.115,0,0,1,12.793-6.631,3.025,3.025,0,0,0,3.376.115l10.007-6.064a3.025,3.025,0,0,0,1.457-3.043,7.987,7.987,0,0,1-.075-1.09,8.122,8.122,0,1,1,3.442,6.636,3.025,3.025,0,0,0-3.38-.12M63.426,143.712a4.728,4.728,0,0,1-4.709-4.284,3.011,3.011,0,0,0-1.528-2.379l-16.607-9.6a2.986,2.986,0,0,0-2.831-.133,4.734,4.734,0,1,1,2.733-4.687,3,3,0,0,0,1.533,2.419L58.522,134.6a3.016,3.016,0,0,0,2.871.115,4.733,4.733,0,0,1,4.12.022,2.994,2.994,0,0,0,2.955-.133l16.3-9.883a3.007,3.007,0,0,0,1.484-2.56A4.732,4.732,0,1,1,90.984,127a4.664,4.664,0,0,1-1.728-.328,3,3,0,0,0-2.724.235L69.6,137.178a2.99,2.99,0,0,0-1.466,2.308,4.734,4.734,0,0,1-4.7,4.226" transform="translate(0 -0.001)" fill="#fff" fill-rule="evenodd"/>
              <path id="Path_302" data-name="Path 302" d="M30.423,32.227A4.733,4.733,0,1,1,35.158,27.5a4.733,4.733,0,0,1-4.735,4.731" transform="translate(88.118 78.064)" fill="#fff" fill-rule="evenodd"/>
              <path id="Path_303" data-name="Path 303" d="M5.5,32.56a4.731,4.731,0,1,1,4.731-4.731A4.73,4.73,0,0,1,5.5,32.56" transform="translate(2.62 79.22)" fill="#fff" fill-rule="evenodd"/>
            </g>
          </g>
        </g>
      </g>
    </g>
    <g id="Group_263" data-name="Group 263" transform="translate(0 208.962)">
      <g id="Group_259" data-name="Group 259" transform="translate(0 0)">
        <rect id="Rectangle_247" data-name="Rectangle 247" width="208.962" height="210.394" transform="translate(210.394) rotate(90)" fill="#007ec3"/>
      </g>
      <g id="Group_262" data-name="Group 262" transform="translate(42.254 37.033)">
        <g id="Group_261" data-name="Group 261" transform="translate(0 0)">
          <g id="Group_260" data-name="Group 260" transform="translate(0 0)" clip-path="url(#clip-path-2)">
            <path id="Path_304" data-name="Path 304" d="M55.437,25.106A7.109,7.109,0,0,0,44.7,32.194a2.2,2.2,0,0,1-1.143,2.285L29.9,41.442a2.2,2.2,0,0,1-2.6-.332A8.44,8.44,0,0,0,25.973,40.1a8.15,8.15,0,1,0,3.773,5.488,2.2,2.2,0,0,1,1.125-2.363l13.654-6.963a2.188,2.188,0,0,1,2.535.276,6.992,6.992,0,0,0,.97.707,7.109,7.109,0,1,0,7.407-12.137" transform="translate(44.946 79.688)" fill="#fff" fill-rule="evenodd"/>
            <path id="Path_305" data-name="Path 305" d="M39.537,48.172a8.321,8.321,0,0,0,12.633-7.649,3.1,3.1,0,0,1,1.7-3.018l10.649-5.514a3.1,3.1,0,0,1,3.441.349,8.184,8.184,0,0,0,.91.642A8.316,8.316,0,1,0,64.9,26.434a3.1,3.1,0,0,1-1.7,3.018L52.553,34.966a3.1,3.1,0,0,1-3.441-.349,7.655,7.655,0,0,0-.91-.642A8.317,8.317,0,0,0,35.57,41.623a3.108,3.108,0,0,1-1.7,3.018L23.227,50.156a3.1,3.1,0,0,1-3.445-.354,8.576,8.576,0,0,0-.91-.638,8.315,8.315,0,1,0,3.967,6.545,3.105,3.105,0,0,1,1.7-3.018l10.649-5.51a3.1,3.1,0,0,1,3.441.349,8.186,8.186,0,0,0,.91.642" transform="translate(20.608 58.173)" fill="#fff" fill-rule="evenodd"/>
            <path id="Path_306" data-name="Path 306" d="M3.972,50.212A7.821,7.821,0,0,0,15.85,43.02a2.908,2.908,0,0,1,1.6-2.837L27.456,35a2.913,2.913,0,0,1,3.234.328,6.8,6.8,0,0,0,.858.6,7.82,7.82,0,0,0,11.874-7.191,2.918,2.918,0,0,1,1.6-2.837l10.011-5.182a2.919,2.919,0,0,1,3.238.328,7.588,7.588,0,0,0,.854.6A7.821,7.821,0,1,0,55.394,15.5a2.932,2.932,0,0,1-1.6,2.837L43.783,23.52a2.9,2.9,0,0,1-3.234-.332,8.731,8.731,0,0,0-.858-.6,7.818,7.818,0,0,0-11.874,7.191,2.921,2.921,0,0,1-1.6,2.841L16.212,37.8a2.92,2.92,0,0,1-3.238-.332,7.819,7.819,0,1,0-9,12.745" transform="translate(0.745 23.716)" fill="#fff" fill-rule="evenodd"/>
            <path id="Path_307" data-name="Path 307" d="M120.829,77.386l.009,0a6.174,6.174,0,0,0,.052-10.623,2.887,2.887,0,0,1-1.449-2.557l.082-15.025a2.894,2.894,0,0,1,1.578-2.6c.078-.043.16-.086.233-.134a6.189,6.189,0,0,0,.746-.517,7.761,7.761,0,1,0-8.489-12.977,2.893,2.893,0,0,1-3.229.142l-9.627-5.717a2.9,2.9,0,0,1-1.418-2.9,8.3,8.3,0,0,0,.06-1.039,7.767,7.767,0,0,0-12.3-6.234,2.9,2.9,0,0,1-3.234.142l-9.623-5.713a2.891,2.891,0,0,1-1.418-2.9,8.256,8.256,0,0,0,.056-1.039,7.764,7.764,0,1,0-3.229,6.377,2.885,2.885,0,0,1,3.229-.142l9.627,5.713a2.908,2.908,0,0,1,1.418,2.9,7.514,7.514,0,0,0-.06,1.039,7.767,7.767,0,0,0,12.3,6.234,2.9,2.9,0,0,1,3.234-.147L109,35.384a2.9,2.9,0,0,1,1.423,2.9,7.518,7.518,0,0,0-.06,1.039c0,.229.017.457.039.681-.009.06-.017.116-.03.177a3.961,3.961,0,0,1-1.8,2L88.584,53a3.952,3.952,0,0,1-4.01-.091l-.013-.009-.017-.009-.069-.047A8.423,8.423,0,0,0,71.726,60.1a3.946,3.946,0,0,1-2.117,3.579L52,73.209a3.948,3.948,0,0,1-4.281-.272c-.194-.138-.392-.267-.6-.392A8.416,8.416,0,0,0,34.381,80.15a3.959,3.959,0,0,1-2.113,3.738L12.707,94.477a3.927,3.927,0,0,1-3.734.056,6.2,6.2,0,1,0,2.548,8.735,6.122,6.122,0,0,0,.841-2.479,3.95,3.95,0,0,1,2.091-3.1L34.437,86.88a3.942,3.942,0,0,1,4.01.095l.013,0A8.42,8.42,0,0,0,51.2,80.072a3.949,3.949,0,0,1,2.113-3.41L71.356,66.9a3.942,3.942,0,0,1,4.148.181c.1.065.207.134.31.194l.009,0,.078.052a8.418,8.418,0,0,0,12.74-7.6,3.965,3.965,0,0,1,2.113-3.742L110.31,45.4a4.171,4.171,0,0,1,1.207-.427,3.479,3.479,0,0,1,1.6.194,7.677,7.677,0,0,0,1.841,1.16c.112.069.22.151.332.211a2.9,2.9,0,0,1,1.556,2.621l-.082,14.672a2.9,2.9,0,0,1-1.681,2.656c-.155.073-.31.155-.461.241a6.166,6.166,0,0,0,.4,10.861,2.913,2.913,0,0,1,1.66,2.677l-.086,16.293a2.887,2.887,0,0,1-1.281,2.419,4.546,4.546,0,1,0,5.213.026,2.887,2.887,0,0,1-1.25-2.432l.091-16.646a2.89,2.89,0,0,1,1.47-2.544" transform="translate(-0.001 -0.001)" fill="#fff" fill-rule="evenodd"/>
            <path id="Path_308" data-name="Path 308" d="M5.332,32.965a8.28,8.28,0,0,0,12.456-8.558,2.231,2.231,0,0,1,1.143-2.4L32.8,14.935a2.234,2.234,0,0,1,2.578.28,7.22,7.22,0,1,0-2.4-4.406,2.236,2.236,0,0,1-1.16,2.32L17.947,20.2a2.237,2.237,0,0,1-2.634-.341,8.5,8.5,0,0,0-1.358-1.026A8.278,8.278,0,0,0,5.332,32.965" transform="translate(4.52 8.442)" fill="#fff" fill-rule="evenodd"/>
          </g>
        </g>
      </g>
    </g>
  </g>
  <g id="Group_487" data-name="Group 487" transform="translate(0 3.751)">
    <g id="Group_275" data-name="Group 275" clip-path="url(#clip-path-3)">
      <path id="Path_317" data-name="Path 317" d="M14.167,7.086A7.083,7.083,0,1,1,7.083,0a7.084,7.084,0,0,1,7.083,7.085" transform="translate(0 0)" fill="#33b071" fill-rule="evenodd"/>
      <path id="Path_318" data-name="Path 318" d="M103.078,7.086A7.083,7.083,0,1,1,95.994,0a7.084,7.084,0,0,1,7.083,7.085" transform="translate(-40.517 0)" fill="#33b071" fill-rule="evenodd"/>
      <path id="Path_319" data-name="Path 319" d="M189.166,7.086A7.083,7.083,0,1,1,182.082,0a7.084,7.084,0,0,1,7.083,7.085" transform="translate(-79.748 0)" fill="#33b071" fill-rule="evenodd"/>
      <path id="Path_320" data-name="Path 320" d="M14.167,97.432a7.083,7.083,0,1,1-7.083-7.085,7.084,7.084,0,0,1,7.083,7.085" transform="translate(0 -41.172)" fill="#33b071" fill-rule="evenodd"/>
      <path id="Path_321" data-name="Path 321" d="M103.078,97.432a7.083,7.083,0,1,1-7.083-7.085,7.084,7.084,0,0,1,7.083,7.085" transform="translate(-40.517 -41.172)" fill="#33b071" fill-rule="evenodd"/>
      <path id="Path_322" data-name="Path 322" d="M189.166,97.432a7.083,7.083,0,1,1-7.083-7.085,7.084,7.084,0,0,1,7.083,7.085" transform="translate(-79.748 -41.172)" fill="#33b071" fill-rule="evenodd"/>
      <path id="Path_323" data-name="Path 323" d="M14.167,187.779a7.083,7.083,0,1,1-7.083-7.085,7.084,7.084,0,0,1,7.083,7.085" transform="translate(0 -82.343)" fill="#33b071" fill-rule="evenodd"/>
      <path id="Path_324" data-name="Path 324" d="M103.078,187.779a7.083,7.083,0,1,1-7.083-7.085,7.084,7.084,0,0,1,7.083,7.085" transform="translate(-40.517 -82.343)" fill="#33b071" fill-rule="evenodd"/>
      <path id="Path_325" data-name="Path 325" d="M189.166,187.779a7.083,7.083,0,1,1-7.083-7.085,7.084,7.084,0,0,1,7.083,7.085" transform="translate(-79.748 -82.343)" fill="#33b071" fill-rule="evenodd"/>
      <path id="Path_326" data-name="Path 326" d="M14.167,278.125a7.083,7.083,0,1,1-7.083-7.085,7.084,7.084,0,0,1,7.083,7.085" transform="translate(0 -123.514)" fill="#33b071" fill-rule="evenodd"/>
      <path id="Path_327" data-name="Path 327" d="M103.078,278.125a7.083,7.083,0,1,1-7.083-7.085,7.084,7.084,0,0,1,7.083,7.085" transform="translate(-40.517 -123.514)" fill="#33b071" fill-rule="evenodd"/>
      <path id="Path_328" data-name="Path 328" d="M189.166,278.125a7.083,7.083,0,1,1-7.083-7.085,7.084,7.084,0,0,1,7.083,7.085" transform="translate(-79.748 -123.514)" fill="#33b071" fill-rule="evenodd"/>
      <path id="Path_329" data-name="Path 329" d="M14.167,368.472a7.083,7.083,0,1,1-7.083-7.085,7.084,7.084,0,0,1,7.083,7.085" transform="translate(0 -164.686)" fill="#33b071" fill-rule="evenodd"/>
      <path id="Path_330" data-name="Path 330" d="M103.078,368.472a7.083,7.083,0,1,1-7.083-7.085,7.084,7.084,0,0,1,7.083,7.085" transform="translate(-40.517 -164.686)" fill="#33b071" fill-rule="evenodd"/>
      <path id="Path_331" data-name="Path 331" d="M189.166,368.472a7.083,7.083,0,1,1-7.083-7.085,7.084,7.084,0,0,1,7.083,7.085" transform="translate(-79.748 -164.686)" fill="#33b071" fill-rule="evenodd"/>
      <path id="Path_332" data-name="Path 332" d="M275.255,7.086A7.083,7.083,0,1,1,268.171,0a7.084,7.084,0,0,1,7.084,7.085" transform="translate(-118.979 0)" fill="#33b071" fill-rule="evenodd"/>
      <path id="Path_333" data-name="Path 333" d="M361.343,7.086A7.083,7.083,0,1,1,354.259,0a7.084,7.084,0,0,1,7.083,7.085" transform="translate(-158.21 0)" fill="#33b071" fill-rule="evenodd"/>
      <path id="Path_334" data-name="Path 334" d="M275.255,97.432a7.083,7.083,0,1,1-7.084-7.085,7.084,7.084,0,0,1,7.084,7.085" transform="translate(-118.979 -41.172)" fill="#33b071" fill-rule="evenodd"/>
      <path id="Path_335" data-name="Path 335" d="M361.343,97.432a7.083,7.083,0,1,1-7.083-7.085,7.084,7.084,0,0,1,7.083,7.085" transform="translate(-158.21 -41.172)" fill="#33b071" fill-rule="evenodd"/>
      <path id="Path_336" data-name="Path 336" d="M275.255,187.779a7.083,7.083,0,1,1-7.084-7.085,7.085,7.085,0,0,1,7.084,7.085" transform="translate(-118.979 -82.343)" fill="#33b071" fill-rule="evenodd"/>
      <path id="Path_337" data-name="Path 337" d="M361.343,187.779a7.083,7.083,0,1,1-7.083-7.085,7.085,7.085,0,0,1,7.083,7.085" transform="translate(-158.21 -82.343)" fill="#33b071" fill-rule="evenodd"/>
      <path id="Path_338" data-name="Path 338" d="M275.255,278.125a7.083,7.083,0,1,1-7.084-7.085,7.085,7.085,0,0,1,7.084,7.085" transform="translate(-118.979 -123.514)" fill="#33b071" fill-rule="evenodd"/>
      <path id="Path_339" data-name="Path 339" d="M361.343,278.125a7.083,7.083,0,1,1-7.083-7.085,7.085,7.085,0,0,1,7.083,7.085" transform="translate(-158.21 -123.514)" fill="#33b071" fill-rule="evenodd"/>
      <path id="Path_340" data-name="Path 340" d="M275.255,368.472a7.083,7.083,0,1,1-7.084-7.085,7.085,7.085,0,0,1,7.084,7.085" transform="translate(-118.979 -164.686)" fill="#33b071" fill-rule="evenodd"/>
      <path id="Path_341" data-name="Path 341" d="M361.343,368.472a7.083,7.083,0,1,1-7.083-7.085,7.085,7.085,0,0,1,7.083,7.085" transform="translate(-158.21 -164.686)" fill="#33b071" fill-rule="evenodd"/>
    </g>
  </g>
</svg>
