<svg xmlns="http://www.w3.org/2000/svg" xmlns:xlink="http://www.w3.org/1999/xlink" width="1197.941" height="636.005" viewBox="0 0 1197.941 636.005">
  <defs>
    <clipPath id="clip-path">
      <rect id="Rectangle_463" data-name="Rectangle 463" width="278.194" height="316.212"/>
    </clipPath>
    <clipPath id="clip-path-2">
      <rect id="Rectangle_462" data-name="Rectangle 462" width="210.543" height="317.265" fill="none"/>
    </clipPath>
    <clipPath id="clip-path-3">
      <rect id="Rectangle_467" data-name="Rectangle 467" width="210.233" height="105.652" fill="#a30b65"/>
    </clipPath>
    <clipPath id="clip-path-4">
      <rect id="Rectangle_467-2" data-name="Rectangle 467" width="210.233" height="105.652" fill="none"/>
    </clipPath>
    <clipPath id="clip-path-5">
      <rect id="Rectangle_468" data-name="Rectangle 468" width="216.617" height="108.348" fill="none"/>
    </clipPath>
    <clipPath id="clip-path-6">
      <rect id="Rectangle_476" data-name="Rectangle 476" width="107.798" height="82.455" fill="none"/>
    </clipPath>
    <clipPath id="clip-path-7">
      <rect id="Rectangle_477" data-name="Rectangle 477" width="155.275" height="146.594" fill="none"/>
    </clipPath>
    <clipPath id="clip-path-8">
      <rect id="Rectangle_478" data-name="Rectangle 478" width="344.569" height="366.483" fill="none"/>
    </clipPath>
    <clipPath id="clip-path-9">
      <rect id="Rectangle_464" data-name="Rectangle 464" width="202.204" height="82.27" fill="none"/>
    </clipPath>
    <clipPath id="clip-path-10">
      <rect id="Rectangle_466" data-name="Rectangle 466" width="103.126" height="129.647" fill="#fff"/>
    </clipPath>
    <clipPath id="clip-path-11">
      <rect id="Rectangle_465" data-name="Rectangle 465" width="153.544" height="108.346" fill="none"/>
    </clipPath>
  </defs>
  <g id="Home_Element" data-name="Home Element" transform="translate(-2551.059 -1533.645)">
    <rect id="Rectangle_510" data-name="Rectangle 510" width="214" height="214" transform="translate(3113 1948)" fill="#007ec4"/>
    <g id="Flower-_integration" data-name="Flower- integration" transform="translate(3294.715 1533.645)" opacity="0.266">
      <g id="Group_592" data-name="Group 592" clip-path="url(#clip-path)">
        <path id="Path_634" data-name="Path 634" d="M65.919,152.367a11.278,11.278,0,1,1,4.264,15.368,11.281,11.281,0,0,1-4.264-15.368" transform="translate(64.641 147.014)"/>
        <path id="Path_635" data-name="Path 635" d="M128.458,41.832A11.278,11.278,0,1,1,132.721,57.2a11.28,11.28,0,0,1-4.262-15.368" transform="translate(127.359 36.199)"/>
        <path id="Path_636" data-name="Path 636" d="M129.1,115.151a11.279,11.279,0,1,1,4.262,15.37,11.278,11.278,0,0,1-4.262-15.37" transform="translate(128 109.704)"/>
        <path id="Path_637" data-name="Path 637" d="M84.274,16.831A11.278,11.278,0,1,1,80.012,1.464a11.279,11.279,0,0,1,4.262,15.368" transform="translate(63.358 0)"/>
        <path id="Path_638" data-name="Path 638" d="M21.736,127.366A11.279,11.279,0,1,1,17.474,112a11.278,11.278,0,0,1,4.262,15.368" transform="translate(0.64 110.815)"/>
        <path id="Path_639" data-name="Path 639" d="M21.1,54.045a11.278,11.278,0,1,1-4.262-15.368A11.276,11.276,0,0,1,21.1,54.045" transform="translate(0 37.309)"/>
        <path id="Path_640" data-name="Path 640" d="M276.277,163.889a11.239,11.239,0,0,0-3.215-3.482,10.728,10.728,0,0,0-1.184-.785,11.266,11.266,0,0,0-11.156.038l.012-.02c-3.4,1.938-9.586.519-14.677-2.613-4.488-2.834-8.064-6.995-7.991-11.334l-.014.026c0-.252.018-.5.01-.759-.24-9.278,16.169-17.989,22.685-14.414l-.012-.02a11.267,11.267,0,0,0,10.978-19.679c-.09-.052-.17-.114-.262-.166a11.269,11.269,0,0,0-16.826,9.766l0-.008c-.036,7.179-14.6,16.861-22.793,13.245-.192-.094-.387-.188-.571-.3a13.785,13.785,0,0,0-1.25-.659,14.081,14.081,0,0,0-13.229.356l.012-.024a12.629,12.629,0,0,1-10.551,1.071,10.786,10.786,0,0,1-4.835-3.781l-.158.054a14.027,14.027,0,0,1-2.514-8.793c.008-.358-.012-.715-.028-1.071l.018.03c-.437-11.619,9.676-16.211,17.858-11.781l-.008-.016A14.089,14.089,0,1,0,209.2,96.257l0-.006c-.09,9.306-9.009,15.924-18.963,9.9l.02.036c-.156-.1-.3-.2-.461-.292s-.326-.162-.489-.246l.04,0c-10.285-5.427-9.205-16.481-1.278-21.349h-.006a14.037,14.037,0,0,0,6.7-12.5l.014.028c-.306-9.3,16.143-18.061,22.671-14.488l-.006-.012a11.276,11.276,0,1,0-5.848-9.927l0-.008c-.038,7.441-15.679,17.578-23.664,12.8l.016.024c-.106-.064-.2-.134-.31-.2s-.22-.1-.328-.164h.028c-8.206-4.384-7.573-23.007-1.212-26.874h-.008a11.276,11.276,0,1,0-11.527.1h-.012c6.427,3.753,7.387,22.362-.743,26.89h.028a14.027,14.027,0,0,0-7.264,12.183l0-.006c-.088,9.3-9.009,15.916-18.961,9.9l.02.034c-.156-.1-.3-.2-.461-.3s-.324-.156-.489-.242h.04c-10.285-5.433-9.205-16.483-1.278-21.351h-.006a14.1,14.1,0,1,0-14.521.126h-.02c8.012,4.73,9.285,15.76-.905,21.371h.038c-.314.17-.627.334-.929.525C119.273,88.4,110.248,81.94,110,72.645l-.014.026a14.08,14.08,0,0,0-7.138-11.909c-.108-.06-.22-.106-.328-.162l.028,0c-8.206-4.382-7.573-23.005-1.212-26.87h-.008a11.277,11.277,0,1,0-11.527.1h-.01c6.427,3.755,7.387,22.366-.745,26.892h.03c-.218.122-.441.232-.655.362-7.911,4.868-23.678-4.976-23.846-12.4l-.01.018A11.28,11.28,0,1,0,58.9,58.7l-.01.022c6.455-3.683,23.007,4.76,22.915,14.046a14.086,14.086,0,0,0,6.952,12.4h-.022c8.014,4.73,9.285,15.758-.9,21.369h.038c-.314.168-.627.334-.929.525-9.842,6.178-18.867-.282-19.119-9.576l-.014.022a14.1,14.1,0,1,0-7.138,12.616l-.012.022c8.1-4.572,18.28-.162,18.056,11.447-.008.358.014.717.03,1.075l-.02-.032c.441,11.621-9.672,16.211-17.856,11.779l.012.02a14.086,14.086,0,0,0-14.18.411c-7.905,4.9-23.708-4.95-23.876-12.388l-.008.016a11.279,11.279,0,1,0-5.666,10.013l-.01.02c6.455-3.687,23.007,4.758,22.917,14.038,0,.258.014.509.022.759l-.014-.024c.306,9.294-16.141,18.057-22.671,14.484l.006.01a11.279,11.279,0,1,0,5.85,9.931l0,.006c.038-7.441,15.679-17.58,23.662-12.8l-.016-.028c.106.062.2.138.312.2a14.082,14.082,0,0,0,13.886-.012l-.014.022c8.1-4.572,18.286-.158,18.056,11.457-.008.356.014.713.028,1.067l-.018-.032c.439,11.621-9.674,16.211-17.856,11.779l.01.018a14.092,14.092,0,1,0,7.371,12.514l0,0c.09-9.306,9.009-15.92,18.961-9.9l-.02-.034c.158.1.3.2.461.292s.326.16.489.244h-.038c10.283,5.429,9.205,16.483,1.274,21.351h.006a14.039,14.039,0,0,0-6.7,12.5l-.014-.024c.3,9.3-16.145,18.061-22.673,14.486l0,.006a11.278,11.278,0,1,0,5.852,9.931l0,.01c.038-7.441,15.681-17.578,23.662-12.8l-.012-.022c.1.06.2.134.308.2s.22.1.33.164l-.03,0c8.208,4.382,7.573,23.005,1.212,26.87h.008a11.277,11.277,0,1,0,11.527-.1h.01c-6.427-3.755-7.385-22.364.745-26.894h-.032a14.024,14.024,0,0,0,7.266-12.179l0,0c.094-9.3,9.009-15.918,18.963-9.9l-.02-.032c.156.1.3.2.461.292s.326.162.491.246h-.042c10.287,5.431,9.207,16.481,1.278,21.349h.006a14.1,14.1,0,1,0,14.523-.126l.02,0c-8.012-4.732-9.285-15.762.9-21.373h-.036c.31-.168.625-.334.925-.523a16.6,16.6,0,0,1,4.292-1.94l.024.1a11.8,11.8,0,0,1,6.942-.018c.094.03.188.066.28.1.164.056.32.124.481.188a12.171,12.171,0,0,1,7.106,11.146l.012-.022a14.077,14.077,0,0,0,7.138,11.907c.106.06.22.1.326.162h-.028c8.206,4.386,7.573,23.009,1.21,26.874h.008a11.5,11.5,0,1,0,12.552.577c-.186-.138-.387-.26-.583-.39-.1-.062-.2-.142-.3-.2h.01c-6.423-3.763-7.363-22.372.771-26.89l-.028,0c.106-.056.218-.1.324-.168s.2-.138.308-.2l-.016.022c4.19-2.6,10.6-1.045,15.721,2.1,4.466,2.774,7.919,6.749,8,10.2l.01-.022a11.291,11.291,0,0,0,3.663,8.072c.21.2.429.384.653.565.054.042.1.09.156.132a11.269,11.269,0,0,0,14.283-17.43c-.1-.086-.2-.164-.3-.25-.124-.1-.244-.2-.371-.288a11,11,0,0,0-1.262-.845,11.261,11.261,0,0,0-11.156.04l.01-.024c-3.413,1.949-9.652.5-14.759-2.661-4.484-2.834-8.054-6.993-7.981-11.328l-.016.026a14.027,14.027,0,0,0-6.9-12.39h0c-8.005-4.742-9.267-15.77.927-21.371h-.04c.16-.086.324-.156.485-.25s.3-.2.457-.3l-.02.036c4.569-2.866,8.957-3.008,12.376-1.416a12.26,12.26,0,0,1,6.541,10.894l.014-.022a14.24,14.24,0,1,0,7.357-12.5l.012-.016c-8.108,4.564-18.294.14-18.046-11.489l-.018.034c.008-.354.024-.711.01-1.067-.419-11.611,9.692-16.189,17.866-11.751l-.014-.024a14.077,14.077,0,0,0,13.884-.212c.106-.062.2-.138.306-.2l-.014.024c3.95-2.451,9.872-1.214,14.829,1.57,4.855,2.782,8.729,7.027,8.811,10.69l.012-.022a11.275,11.275,0,0,0,3.9,8.279l.006.006c.222.19.441.382.679.559a11.276,11.276,0,0,0,16.63-14.625M83.135,157.37a10.857,10.857,0,1,1,10.713-11,10.859,10.859,0,0,1-10.713,11m22.118-69.236a10.857,10.857,0,1,1-3.86,14.859,10.856,10.856,0,0,1,3.86-14.859m-4.755,52.3a10.9,10.9,0,1,1,4.122,14.861,10.906,10.906,0,0,1-4.122-14.861m20.3,59.544a10.858,10.858,0,1,1-4.1-14.8,10.858,10.858,0,0,1,4.1,14.8m13.377-23.4a10.9,10.9,0,1,1-4.122-14.855,10.906,10.906,0,0,1,4.122,14.855m0-50.408a10.9,10.9,0,1,1-4.122-14.859,10.908,10.908,0,0,1,4.122,14.859m23.167-34.358a10.858,10.858,0,1,1,4.1,14.8,10.861,10.861,0,0,1-4.1-14.8m-13.566,23.62a10.9,10.9,0,1,1,4.122,14.859,10.9,10.9,0,0,1-4.122-14.859m4.122,64.87a10.9,10.9,0,1,1,14.861-4.119c-.1.182-.22.35-.332.521a9.116,9.116,0,0,1-5.967,4.524,10.845,10.845,0,0,1-8.562-.925m24.984,23.356a10.858,10.858,0,1,1,3.86-14.865,10.859,10.859,0,0,1-3.86,14.865m5.756-52.881a10.9,10.9,0,1,1-4.12-14.857,10.9,10.9,0,0,1,4.12,14.857m16.65,5.357a10.858,10.858,0,1,1,10.713-11,10.859,10.859,0,0,1-10.713,11" transform="translate(0.264 12.099)"/>
      </g>
    </g>
    <g id="Plant-_green" data-name="Plant- green" transform="translate(3328.766 1681.211)">
      <g id="Group_591" data-name="Group 591" clip-path="url(#clip-path-2)">
        <path id="Path_629" data-name="Path 629" d="M155.36,101.524c-.166,0-.33-.013-.5-.013A104.827,104.827,0,0,0,50.051,205.334c.166,0,.328.013.494.013A104.827,104.827,0,0,0,155.36,101.524" transform="translate(55.183 60.919)" fill="#3ba35d" fill-rule="evenodd"/>
        <path id="Path_630" data-name="Path 630" d="M0,101.524c.166,0,.33-.013.5-.013A104.827,104.827,0,0,1,105.309,205.334c-.166,0-.328.013-.494.013A104.827,104.827,0,0,1,0,101.524" transform="translate(0 60.919)" fill="#3ba35d" fill-rule="evenodd"/>
        <path id="Path_631" data-name="Path 631" d="M155.36,50.676c-.166,0-.33-.013-.5-.013A104.827,104.827,0,0,0,50.051,154.486c.166,0,.328.013.494.013A104.827,104.827,0,0,0,155.36,50.676" transform="translate(55.183 4.857)" fill="#3ba35d" fill-rule="evenodd"/>
        <path id="Path_632" data-name="Path 632" d="M0,50.676c.166,0,.33-.013.5-.013A104.827,104.827,0,0,1,105.309,154.486c-.166,0-.328.013-.494.013A104.827,104.827,0,0,1,0,50.676" transform="translate(0 4.857)" fill="#3ba35d" fill-rule="evenodd"/>
        <path id="Path_716" data-name="Path 716" d="M0,16V256.406" transform="translate(106.055 4.668)" fill="none" stroke="#3ba35d" stroke-width="2.124"/>
        <path id="Path_633" data-name="Path 633" d="M70.782,13.345A13.344,13.344,0,1,1,57.438,0,13.346,13.346,0,0,1,70.782,13.345" transform="translate(48.616 0)" fill="#3ba35d" fill-rule="evenodd"/>
      </g>
    </g>
    <rect id="Rectangle_509" data-name="Rectangle 509" width="210" height="210" transform="translate(3539 1738)" fill="#502c7e"/>
    <g id="Semi_circle-_1" data-name="Semi circle- 1" transform="translate(3328.766 1948)">
      <g id="Group_596" data-name="Group 596" clip-path="url(#clip-path-3)">
        <path id="Path_648" data-name="Path 648" d="M0,4.662C2.013,60.773,48.268,105.652,105.068,105.652c58.081,0,105.165-46.919,105.165-104.794,0-.289-.021-.572-.023-.859H0Z" transform="translate(0 0)" fill="#a30b65" fill-rule="evenodd"/>
      </g>
    </g>
    <g id="Semi_circle-_1-2" data-name="Semi circle- 1" transform="translate(3538.766 1948)">
      <g id="Group_596-2" data-name="Group 596" clip-path="url(#clip-path-4)">
        <path id="Path_648-2" data-name="Path 648" d="M0,4.662C2.013,60.773,48.268,105.652,105.068,105.652c58.081,0,105.165-46.919,105.165-104.794,0-.289-.021-.572-.023-.859H0Z" transform="translate(0 0)" fill="#006cb7" fill-rule="evenodd"/>
      </g>
    </g>
    <g id="Semi_circle-_2" data-name="Semi circle- 2" transform="translate(3328 2053.652)">
      <g id="Group_597" data-name="Group 597" clip-path="url(#clip-path-5)">
        <path id="Path_649" data-name="Path 649" d="M216.617,103.567C214.543,46.024,166.883,0,108.358,0,48.514,0,0,48.116,0,107.467c0,.3.022.586.024.88H216.617Z" transform="translate(0 0)" fill="#3ba35d" fill-rule="evenodd"/>
      </g>
    </g>
    <g id="Lines" transform="translate(3592.715 2077.332)">
      <g id="Group_611" data-name="Group 611" clip-path="url(#clip-path-6)">
        <path id="Path_663" data-name="Path 663" d="M99.024,17.55H8.775A8.775,8.775,0,0,1,8.775,0H99.024a8.775,8.775,0,1,1,0,17.55" transform="translate(0 0.001)" fill="#006cb7" fill-rule="evenodd"/>
        <path id="Path_664" data-name="Path 664" d="M99.024,33.078H8.775a8.775,8.775,0,1,1,0-17.55H99.024a8.775,8.775,0,1,1,0,17.55" transform="translate(0 17.377)" fill="#006cb7" fill-rule="evenodd"/>
        <path id="Path_665" data-name="Path 665" d="M54.188,47.135H21.936a7.785,7.785,0,0,1,0-15.571H54.188a7.785,7.785,0,1,1,0,15.571" transform="translate(15.837 35.321)" fill="#006cb7" fill-rule="evenodd"/>
      </g>
    </g>
    <g id="Sun" transform="translate(3000.492 1741.572)">
      <g id="Group_612" data-name="Group 612" clip-path="url(#clip-path-7)">
        <path id="Path_666" data-name="Path 666" d="M74.9,10.7A47.387,47.387,0,0,0,11.883,32.5a46.585,46.585,0,0,0,22,62.444,47.383,47.383,0,0,0,63.014-21.8A46.583,46.583,0,0,0,74.9,10.7" transform="translate(23.519 19.567)" fill="#0f9aa1" fill-rule="evenodd"/>
        <path id="Path_667" data-name="Path 667" d="M32.095,26.071,50.21,17.092V35.05Z" transform="translate(105.064 55.299)" fill="#0f9aa1" fill-rule="evenodd"/>
        <path id="Path_668" data-name="Path 668" d="M18.116,26.071,0,17.092V35.05Z" transform="translate(0.001 55.299)" fill="#0f9aa1" fill-rule="evenodd"/>
        <path id="Path_669" data-name="Path 669" d="M22.046,27.058,3.93,36.037l14.492,10.77Z" transform="translate(12.865 87.54)" fill="#0f9aa1" fill-rule="evenodd"/>
        <path id="Path_670" data-name="Path 670" d="M28.27,22.195l19.218-6.349L34.677,3.149Z" transform="translate(92.545 10.189)" fill="#0f9aa1" fill-rule="evenodd"/>
        <path id="Path_671" data-name="Path 671" d="M21.836,22.193,12.776,4.24,1.908,18.6Z" transform="translate(6.246 13.718)" fill="#0f9aa1" fill-rule="evenodd"/>
        <path id="Path_672" data-name="Path 672" d="M28.43,28.183l7.735,18.555,11.88-13.553Z" transform="translate(93.068 91.18)" fill="#0f9aa1" fill-rule="evenodd"/>
        <path id="Path_673" data-name="Path 673" d="M25.171,17.953,16.111,0H34.23Z" transform="translate(52.739 0.003)" fill="#0f9aa1" fill-rule="evenodd"/>
        <path id="Path_674" data-name="Path 674" d="M25.171,30.373l-9.06,17.953H34.23Z" transform="translate(52.739 98.266)" fill="#0f9aa1" fill-rule="evenodd"/>
      </g>
    </g>
    <g id="Windmills" transform="translate(2739.715 1803.166)">
      <g id="Group_613" data-name="Group 613" clip-path="url(#clip-path-8)">
        <path id="Path_675" data-name="Path 675" d="M57.543,7.292A7.155,7.155,0,0,0,43.5,5.226l-11,35.3Q27.22,57.471,21.927,74.4a8.173,8.173,0,0,0,.879,7.093c.289.456.573.919.862,1.379l.008-.073,12.559,20.051a23.894,23.894,0,0,1,21.312.252Z" transform="translate(58.924 4)" fill="#006cb7"/>
        <path id="Path_676" data-name="Path 676" d="M123.049,86.812,73.824,33.475a7.562,7.562,0,0,0-5.9-2.546l-6.772.22c-4.515.142-9.033.289-13.544.472l-.765.016c-.834,0-.976-.11-1.017-.142l-1.265-.817H41.043a24.14,24.14,0,0,1-9.822,19.372l2.623,1.55,80.5,46.488a7.572,7.572,0,0,0,3.778,1.029,7.03,7.03,0,0,0,6.817-5.178,7.173,7.173,0,0,0-1.887-7.126" transform="translate(88.76 98.091)" fill="#006cb7"/>
        <path id="Path_677" data-name="Path 677" d="M88.367,31.313l-.191-.561-4.856,2.6L3.8,79.261A7.109,7.109,0,0,0,.508,88.172a6.985,6.985,0,0,0,6.638,4.515,8.3,8.3,0,0,0,1.826-.207l29.145-6.536,41.818-9.432a7.6,7.6,0,0,0,5.275-4L96.819,52.678,98.612,50.2A24.011,24.011,0,0,1,88.367,31.313" transform="translate(-7 98.321)" fill="#006cb7"/>
        <path id="Path_678" data-name="Path 678" d="M36.744,27.693A12.073,12.073,0,1,1,24.709,39.9a12.111,12.111,0,0,1,12.035-12.21" transform="translate(67.786 88.939)" fill="#006cb7"/>
        <path id="Path_679" data-name="Path 679" d="M87.464,31.908a6.146,6.146,0,0,0-5.157-6.162,5.972,5.972,0,0,0-.96-.073,6.141,6.141,0,0,0-5.893,4.466l-9.407,30.19Q61.538,74.812,57.01,89.291a6.991,6.991,0,0,0,.752,6.068c.248.39.492.785.736,1.175l.008-.057,10.737,17.143a20.438,20.438,0,0,1,18.225.216Z" transform="translate(173.72 70.743)" fill="#006cb7"/>
        <path id="Path_680" data-name="Path 680" d="M143.477,99.9,101.387,54.3a6.469,6.469,0,0,0-5.047-2.176l-5.792.187c-3.86.122-7.724.248-11.579.4l-.655.016c-.712,0-.834-.094-.866-.122l-1.086-.7H73.356a20.644,20.644,0,0,1-8.4,16.566L67.2,69.8l68.832,39.752a6.5,6.5,0,0,0,3.229.879A6.015,6.015,0,0,0,145.092,106a6.133,6.133,0,0,0-1.615-6.093" transform="translate(199.233 151.198)" fill="#006cb7"/>
        <path id="Path_681" data-name="Path 681" d="M113.825,52.448l-.167-.48-4.153,2.225L41.515,93.445a6.08,6.08,0,0,0-2.819,7.622,5.98,5.98,0,0,0,5.678,3.86,7.1,7.1,0,0,0,1.558-.179l24.924-5.588,35.758-8.065a6.485,6.485,0,0,0,4.506-3.416l9.932-16.96,1.529-2.123a20.523,20.523,0,0,1-8.757-16.147" transform="translate(117.352 151.394)" fill="#006cb7"/>
        <path id="Path_682" data-name="Path 682" d="M69.568,49.389a10.176,10.176,0,1,1-10.143,10.29,10.207,10.207,0,0,1,10.143-10.29" transform="translate(182.266 143.484)" fill="#006cb7"/>
        <path id="Path_683" data-name="Path 683" d="M83.441,124.238c-.842-24.765-1.712-50.376-2.57-66.3l-.077-1.415A20.841,20.841,0,0,1,72,58.5a20.563,20.563,0,0,1-8.1-1.635L58.635,193.128H86.149l-.134-2.554c-.862-15.911-1.733-41.546-2.574-66.335" transform="translate(179.843 165.356)" fill="#006cb7"/>
        <path id="Path_684" data-name="Path 684" d="M57.738,139.78c-1.184-37.89-2.4-77.077-3.6-101.443l-.126-2.493a24,24,0,0,1-8.122,2.79c-.362.069-.728.122-1.1.171-.15.016-.3.02-.451.033a19.755,19.755,0,0,1-2.152.179c-.708,0-1.4-.094-2.091-.163-.167-.02-.342-.02-.508-.041-.366-.045-.728-.1-1.09-.163a23.722,23.722,0,0,1-8.151-2.81L22.939,245.176h38.6l-.191-3.909c-1.2-24.342-2.428-63.561-3.608-101.488" transform="translate(63.357 113.927)" fill="#006cb7"/>
      </g>
    </g>
    <g id="Cloud" transform="translate(2551.059 1834.197)">
      <g id="Group_593" data-name="Group 593" clip-path="url(#clip-path-9)">
        <path id="Path_641" data-name="Path 641" d="M0,82.271A40.216,40.216,0,0,1,40.19,42.486l.2,0a63.336,63.336,0,0,1,120.957,4.351A41.558,41.558,0,0,1,202.2,82.271Z" transform="translate(0 0.001)" fill="#006cb7"/>
      </g>
    </g>
    <g id="Customer_Experience" data-name="Customer Experience" transform="translate(3593.303 1778.059)">
      <g id="Group_595" data-name="Group 595" clip-path="url(#clip-path-10)">
        <path id="Path_643" data-name="Path 643" d="M42.248,1.6l4.108,8.325A2.876,2.876,0,0,0,48.522,11.5l9.189,1.335a2.875,2.875,0,0,1,1.593,4.9l-6.648,6.481a2.882,2.882,0,0,0-.828,2.546l1.57,9.15a2.876,2.876,0,0,1-4.173,3.032l-8.216-4.32a2.875,2.875,0,0,0-2.677,0l-8.218,4.32a2.875,2.875,0,0,1-4.171-3.032l1.569-9.15a2.876,2.876,0,0,0-.826-2.546l-6.648-6.481a2.875,2.875,0,0,1,1.593-4.9L30.817,11.5a2.874,2.874,0,0,0,2.165-1.574L37.092,1.6a2.875,2.875,0,0,1,5.157,0" transform="translate(11.894 0)" fill="#fff" fill-rule="evenodd"/>
        <path id="Path_644" data-name="Path 644" d="M62.424,16.717l2.24,4.538a1.568,1.568,0,0,0,1.18.859l5.009.728a1.567,1.567,0,0,1,.869,2.672L68.1,29.046a1.572,1.572,0,0,0-.452,1.387l.856,4.988a1.567,1.567,0,0,1-2.274,1.653L61.748,34.72a1.559,1.559,0,0,0-1.459,0l-4.481,2.355a1.568,1.568,0,0,1-2.274-1.653l.856-4.988a1.567,1.567,0,0,0-.451-1.387l-3.624-3.533a1.566,1.566,0,0,1,.869-2.672l5.008-.728a1.568,1.568,0,0,0,1.18-.859l2.24-4.538a1.568,1.568,0,0,1,2.812,0" transform="translate(30.93 9.832)" fill="#fff" fill-rule="evenodd"/>
        <path id="Path_645" data-name="Path 645" d="M12.584,16.717l2.24,4.538a1.568,1.568,0,0,0,1.18.859l5.009.728a1.567,1.567,0,0,1,.869,2.672l-3.624,3.533a1.572,1.572,0,0,0-.452,1.387l.856,4.988a1.567,1.567,0,0,1-2.274,1.653L11.908,34.72a1.559,1.559,0,0,0-1.459,0L5.968,37.074a1.568,1.568,0,0,1-2.274-1.653l.856-4.988A1.567,1.567,0,0,0,4.1,29.046L.476,25.513a1.566,1.566,0,0,1,.869-2.672l5.008-.728a1.568,1.568,0,0,0,1.18-.859l2.24-4.538a1.568,1.568,0,0,1,2.812,0" transform="translate(0 9.832)" fill="#fff" fill-rule="evenodd"/>
        <path id="Path_646" data-name="Path 646" d="M46.332,38.415A24.639,24.639,0,0,1,53.7,33.574,25.652,25.652,0,0,1,89.326,54.639a24.419,24.419,0,0,1-7.069,20.286C71.183,86.162,59.966,97.257,48.8,108.4a5.516,5.516,0,0,1-9.472-4.243,5.625,5.625,0,0,1,1.813-3.706q6.252-6.225,12.485-12.47c.35-.348.7-.7,1.045-1.047.869-.88,1.045-1.666.433-2.162-.846-.687-1.468-.183-2.086.441-2.082,2.1-4.184,4.186-6.277,6.277-2.517,2.515-5.009,5.053-7.555,7.537a5.5,5.5,0,0,1-8.7-6.516,6.824,6.824,0,0,1,1.227-1.572q6.7-6.746,13.435-13.464c.075-.075.152-.146.23-.217.622-.57.92-1.249.271-1.925s-1.332-.4-1.928.2q-2.608,2.621-5.226,5.233c-2.915,2.912-5.818,5.837-8.753,8.73a5.229,5.229,0,0,1-5.75,1.277,5.253,5.253,0,0,1-3.6-4.437,5.381,5.381,0,0,1,1.7-4.784q6.726-6.721,13.456-13.443c1.058-1.058,1.228-1.694.6-2.306s-1.217-.428-2.3.658Q27.076,73.223,20.3,79.975a5.233,5.233,0,0,1-5.735,1.345,5.277,5.277,0,0,1-3.685-4.6,5.153,5.153,0,0,1,1.533-4.437Q22.633,62.03,32.885,51.807c1.554-1.548,3.418-1.457,5.037.156,3.718,3.7,7.409,7.43,11.14,11.12a14.547,14.547,0,0,0,17.548,2.2,3.69,3.69,0,0,0,.78-6.187Q57.462,49.15,47.506,39.23a8.712,8.712,0,0,0-1.175-.815" transform="translate(6.725 19.547)" fill="#fff"/>
        <path id="Path_647" data-name="Path 647" d="M12.471,75.953A24.766,24.766,0,0,1,6.191,66.9C.706,53.08,7.4,37.867,21.464,33.036,31.45,29.605,40.531,31.753,48.13,39.2,55.3,46.228,62.341,53.383,69.441,60.479c1.436,1.436,1.326,2.139-.489,3.082a12.1,12.1,0,0,1-14.08-2.091c-3.842-3.726-7.589-7.552-11.38-11.331a5.242,5.242,0,0,0-5.2-1.588,6.432,6.432,0,0,0-2.839,1.491C28.5,56.891,21.622,63.809,14.728,70.712a8.534,8.534,0,0,0-2.257,5.241" transform="translate(2.656 19.515)" fill="#fff"/>
      </g>
    </g>
    <g id="Tech_Cloud" data-name="Tech Cloud" transform="translate(3143.229 2000.828)">
      <g id="Group_594" data-name="Group 594" clip-path="url(#clip-path-11)">
        <path id="Path_642" data-name="Path 642" d="M131.542,39.883c.013-.364.031-.727.031-1.093A38.771,38.771,0,0,0,111.54,4.838L79.45,36.653v21.59a8.953,8.953,0,1,1-5.651-.133V34.294L106.062,2.333A38.838,38.838,0,0,0,58.743,20.177,23.21,23.21,0,0,0,22.282,39.236c0,.25.011.5.02.749a35.439,35.439,0,0,0,13.057,68.352v.007h5.492V97.9L28.955,86a8.946,8.946,0,1,1,4.1-3.894L46.5,95.554v12.79H62.669V91.332L42.163,70.826V53.185a8.966,8.966,0,1,1,5.653-.265V68.485L68.321,88.991v19.353H85.986V88.427l19.32-19.317V49.468a8.961,8.961,0,1,1,5.651.234v21.75L91.641,90.769v17.575h14.414V94.99l14.8-14.8a8.977,8.977,0,1,1,3.976,4.016L111.706,97.332v11.012h5.936v-.013c.11,0,.219.009.329.009a35.574,35.574,0,0,0,13.572-68.456" transform="translate(0 0.001)" fill="#fff"/>
      </g>
    </g>
  </g>
</svg>
