<svg xmlns="http://www.w3.org/2000/svg" xmlns:xlink="http://www.w3.org/1999/xlink" width="495.85" height="830.803" viewBox="0 0 495.85 830.803">
  <defs>
    <clipPath id="clip-path">
      <rect id="Rectangle_463" data-name="Rectangle 463" width="278.194" height="316.212"/>
    </clipPath>
    <clipPath id="clip-path-2">
      <rect id="Rectangle_462" data-name="Rectangle 462" width="210.543" height="317.265" fill="none"/>
    </clipPath>
    <clipPath id="clip-path-3">
      <rect id="Rectangle_467" data-name="Rectangle 467" width="210.233" height="105.652" fill="#a30b65"/>
    </clipPath>
    <clipPath id="clip-path-4">
      <rect id="Rectangle_468" data-name="Rectangle 468" width="216.617" height="108.348" fill="#0e9aa1"/>
    </clipPath>
    <clipPath id="clip-path-5">
      <rect id="Rectangle_464" data-name="Rectangle 464" width="202.204" height="82.27" fill="none"/>
    </clipPath>
  </defs>
  <g id="Element_2" transform="translate(0)">
    <g id="Flower-_integration" data-name="Flower- integration" transform="translate(0 202.447)" opacity="0.266">
      <g id="Group_592" data-name="Group 592" clip-path="url(#clip-path)">
        <path id="Path_634" data-name="Path 634" d="M65.919,152.367a11.278,11.278,0,1,1,4.264,15.368,11.281,11.281,0,0,1-4.264-15.368" transform="translate(64.641 147.014)"/>
        <path id="Path_635" data-name="Path 635" d="M128.458,41.832A11.278,11.278,0,1,1,132.721,57.2a11.28,11.28,0,0,1-4.262-15.368" transform="translate(127.359 36.199)"/>
        <path id="Path_636" data-name="Path 636" d="M129.1,115.151a11.279,11.279,0,1,1,4.262,15.37,11.278,11.278,0,0,1-4.262-15.37" transform="translate(128 109.704)"/>
        <path id="Path_637" data-name="Path 637" d="M84.274,16.831A11.278,11.278,0,1,1,80.012,1.464a11.279,11.279,0,0,1,4.262,15.368" transform="translate(63.358 0)"/>
        <path id="Path_638" data-name="Path 638" d="M21.736,127.366A11.279,11.279,0,1,1,17.474,112a11.278,11.278,0,0,1,4.262,15.368" transform="translate(0.64 110.815)"/>
        <path id="Path_639" data-name="Path 639" d="M21.1,54.045a11.278,11.278,0,1,1-4.262-15.368A11.276,11.276,0,0,1,21.1,54.045" transform="translate(0 37.309)"/>
        <path id="Path_640" data-name="Path 640" d="M276.277,163.889a11.239,11.239,0,0,0-3.215-3.482,10.728,10.728,0,0,0-1.184-.785,11.266,11.266,0,0,0-11.156.038l.012-.02c-3.4,1.938-9.586.519-14.677-2.613-4.488-2.834-8.064-6.995-7.991-11.334l-.014.026c0-.252.018-.5.01-.759-.24-9.278,16.169-17.989,22.685-14.414l-.012-.02a11.267,11.267,0,0,0,10.978-19.679c-.09-.052-.17-.114-.262-.166a11.269,11.269,0,0,0-16.826,9.766l0-.008c-.036,7.179-14.6,16.861-22.793,13.245-.192-.094-.387-.188-.571-.3a13.785,13.785,0,0,0-1.25-.659,14.081,14.081,0,0,0-13.229.356l.012-.024a12.629,12.629,0,0,1-10.551,1.071,10.786,10.786,0,0,1-4.835-3.781l-.158.054a14.027,14.027,0,0,1-2.514-8.793c.008-.358-.012-.715-.028-1.071l.018.03c-.437-11.619,9.676-16.211,17.858-11.781l-.008-.016A14.089,14.089,0,1,0,209.2,96.257l0-.006c-.09,9.306-9.009,15.924-18.963,9.9l.02.036c-.156-.1-.3-.2-.461-.292s-.326-.162-.489-.246l.04,0c-10.285-5.427-9.205-16.481-1.278-21.349h-.006a14.037,14.037,0,0,0,6.7-12.5l.014.028c-.306-9.3,16.143-18.061,22.671-14.488l-.006-.012a11.276,11.276,0,1,0-5.848-9.927l0-.008c-.038,7.441-15.679,17.578-23.664,12.8l.016.024c-.106-.064-.2-.134-.31-.2s-.22-.1-.328-.164h.028c-8.206-4.384-7.573-23.007-1.212-26.874h-.008a11.276,11.276,0,1,0-11.527.1h-.012c6.427,3.753,7.387,22.362-.743,26.89h.028a14.027,14.027,0,0,0-7.264,12.183l0-.006c-.088,9.3-9.009,15.916-18.961,9.9l.02.034c-.156-.1-.3-.2-.461-.3s-.324-.156-.489-.242h.04c-10.285-5.433-9.205-16.483-1.278-21.351h-.006a14.1,14.1,0,1,0-14.521.126h-.02c8.012,4.73,9.285,15.76-.905,21.371h.038c-.314.17-.627.334-.929.525C119.273,88.4,110.248,81.94,110,72.645l-.014.026a14.08,14.08,0,0,0-7.138-11.909c-.108-.06-.22-.106-.328-.162l.028,0c-8.206-4.382-7.573-23.005-1.212-26.87h-.008a11.277,11.277,0,1,0-11.527.1h-.01c6.427,3.755,7.387,22.366-.745,26.892h.03c-.218.122-.441.232-.655.362-7.911,4.868-23.678-4.976-23.846-12.4l-.01.018A11.28,11.28,0,1,0,58.9,58.7l-.01.022c6.455-3.683,23.007,4.76,22.915,14.046a14.086,14.086,0,0,0,6.952,12.4h-.022c8.014,4.73,9.285,15.758-.9,21.369h.038c-.314.168-.627.334-.929.525-9.842,6.178-18.867-.282-19.119-9.576l-.014.022a14.1,14.1,0,1,0-7.138,12.616l-.012.022c8.1-4.572,18.28-.162,18.056,11.447-.008.358.014.717.03,1.075l-.02-.032c.441,11.621-9.672,16.211-17.856,11.779l.012.02a14.086,14.086,0,0,0-14.18.411c-7.905,4.9-23.708-4.95-23.876-12.388l-.008.016a11.279,11.279,0,1,0-5.666,10.013l-.01.02c6.455-3.687,23.007,4.758,22.917,14.038,0,.258.014.509.022.759l-.014-.024c.306,9.294-16.141,18.057-22.671,14.484l.006.01a11.279,11.279,0,1,0,5.85,9.931l0,.006c.038-7.441,15.679-17.58,23.662-12.8l-.016-.028c.106.062.2.138.312.2a14.082,14.082,0,0,0,13.886-.012l-.014.022c8.1-4.572,18.286-.158,18.056,11.457-.008.356.014.713.028,1.067l-.018-.032c.439,11.621-9.674,16.211-17.856,11.779l.01.018a14.092,14.092,0,1,0,7.371,12.514l0,0c.09-9.306,9.009-15.92,18.961-9.9l-.02-.034c.158.1.3.2.461.292s.326.16.489.244h-.038c10.283,5.429,9.205,16.483,1.274,21.351h.006a14.039,14.039,0,0,0-6.7,12.5l-.014-.024c.3,9.3-16.145,18.061-22.673,14.486l0,.006a11.278,11.278,0,1,0,5.852,9.931l0,.01c.038-7.441,15.681-17.578,23.662-12.8l-.012-.022c.1.06.2.134.308.2s.22.1.33.164l-.03,0c8.208,4.382,7.573,23.005,1.212,26.87h.008a11.277,11.277,0,1,0,11.527-.1h.01c-6.427-3.755-7.385-22.364.745-26.894h-.032a14.024,14.024,0,0,0,7.266-12.179l0,0c.094-9.3,9.009-15.918,18.963-9.9l-.02-.032c.156.1.3.2.461.292s.326.162.491.246h-.042c10.287,5.431,9.207,16.481,1.278,21.349h.006a14.1,14.1,0,1,0,14.523-.126l.02,0c-8.012-4.732-9.285-15.762.9-21.373h-.036c.31-.168.625-.334.925-.523a16.6,16.6,0,0,1,4.292-1.94l.024.1a11.8,11.8,0,0,1,6.942-.018c.094.03.188.066.28.1.164.056.32.124.481.188a12.171,12.171,0,0,1,7.106,11.146l.012-.022a14.077,14.077,0,0,0,7.138,11.907c.106.06.22.1.326.162h-.028c8.206,4.386,7.573,23.009,1.21,26.874h.008a11.5,11.5,0,1,0,12.552.577c-.186-.138-.387-.26-.583-.39-.1-.062-.2-.142-.3-.2h.01c-6.423-3.763-7.363-22.372.771-26.89l-.028,0c.106-.056.218-.1.324-.168s.2-.138.308-.2l-.016.022c4.19-2.6,10.6-1.045,15.721,2.1,4.466,2.774,7.919,6.749,8,10.2l.01-.022a11.291,11.291,0,0,0,3.663,8.072c.21.2.429.384.653.565.054.042.1.09.156.132a11.269,11.269,0,0,0,14.283-17.43c-.1-.086-.2-.164-.3-.25-.124-.1-.244-.2-.371-.288a11,11,0,0,0-1.262-.845,11.261,11.261,0,0,0-11.156.04l.01-.024c-3.413,1.949-9.652.5-14.759-2.661-4.484-2.834-8.054-6.993-7.981-11.328l-.016.026a14.027,14.027,0,0,0-6.9-12.39h0c-8.005-4.742-9.267-15.77.927-21.371h-.04c.16-.086.324-.156.485-.25s.3-.2.457-.3l-.02.036c4.569-2.866,8.957-3.008,12.376-1.416a12.26,12.26,0,0,1,6.541,10.894l.014-.022a14.24,14.24,0,1,0,7.357-12.5l.012-.016c-8.108,4.564-18.294.14-18.046-11.489l-.018.034c.008-.354.024-.711.01-1.067-.419-11.611,9.692-16.189,17.866-11.751l-.014-.024a14.077,14.077,0,0,0,13.884-.212c.106-.062.2-.138.306-.2l-.014.024c3.95-2.451,9.872-1.214,14.829,1.57,4.855,2.782,8.729,7.027,8.811,10.69l.012-.022a11.275,11.275,0,0,0,3.9,8.279l.006.006c.222.19.441.382.679.559a11.276,11.276,0,0,0,16.63-14.625M83.135,157.37a10.857,10.857,0,1,1,10.713-11,10.859,10.859,0,0,1-10.713,11m22.118-69.236a10.857,10.857,0,1,1-3.86,14.859,10.856,10.856,0,0,1,3.86-14.859m-4.755,52.3a10.9,10.9,0,1,1,4.122,14.861,10.906,10.906,0,0,1-4.122-14.861m20.3,59.544a10.858,10.858,0,1,1-4.1-14.8,10.858,10.858,0,0,1,4.1,14.8m13.377-23.4a10.9,10.9,0,1,1-4.122-14.855,10.906,10.906,0,0,1,4.122,14.855m0-50.408a10.9,10.9,0,1,1-4.122-14.859,10.908,10.908,0,0,1,4.122,14.859m23.167-34.358a10.858,10.858,0,1,1,4.1,14.8,10.861,10.861,0,0,1-4.1-14.8m-13.566,23.62a10.9,10.9,0,1,1,4.122,14.859,10.9,10.9,0,0,1-4.122-14.859m4.122,64.87a10.9,10.9,0,1,1,14.861-4.119c-.1.182-.22.35-.332.521a9.116,9.116,0,0,1-5.967,4.524,10.845,10.845,0,0,1-8.562-.925m24.984,23.356a10.858,10.858,0,1,1,3.86-14.865,10.859,10.859,0,0,1-3.86,14.865m5.756-52.881a10.9,10.9,0,1,1-4.12-14.857,10.9,10.9,0,0,1,4.12,14.857m16.65,5.357a10.858,10.858,0,1,1,10.713-11,10.859,10.859,0,0,1-10.713,11" transform="translate(0.264 12.099)"/>
      </g>
    </g>
    <g id="Plant-_green" data-name="Plant- green" transform="translate(33.599 350.014)">
      <g id="Group_591" data-name="Group 591" clip-path="url(#clip-path-2)">
        <path id="Path_629" data-name="Path 629" d="M155.36,101.524c-.166,0-.33-.013-.5-.013A104.827,104.827,0,0,0,50.051,205.334c.166,0,.328.013.494.013A104.827,104.827,0,0,0,155.36,101.524" transform="translate(55.183 60.919)" fill="#3ba35d" fill-rule="evenodd"/>
        <path id="Path_630" data-name="Path 630" d="M0,101.524c.166,0,.33-.013.5-.013A104.827,104.827,0,0,1,105.309,205.334c-.166,0-.328.013-.494.013A104.827,104.827,0,0,1,0,101.524" transform="translate(0 60.919)" fill="#3ba35d" fill-rule="evenodd"/>
        <path id="Path_631" data-name="Path 631" d="M155.36,50.676c-.166,0-.33-.013-.5-.013A104.827,104.827,0,0,0,50.051,154.486c.166,0,.328.013.494.013A104.827,104.827,0,0,0,155.36,50.676" transform="translate(55.183 4.857)" fill="#3ba35d" fill-rule="evenodd"/>
        <path id="Path_632" data-name="Path 632" d="M0,50.676c.166,0,.33-.013.5-.013A104.827,104.827,0,0,1,105.309,154.486c-.166,0-.328.013-.494.013A104.827,104.827,0,0,1,0,50.676" transform="translate(0 4.857)" fill="#3ba35d" fill-rule="evenodd"/>
        <path id="Path_716" data-name="Path 716" d="M0,16V256.406" transform="translate(106.055 4.668)" fill="none" stroke="#3ba35d" stroke-width="2.124"/>
        <path id="Path_633" data-name="Path 633" d="M70.782,13.345A13.344,13.344,0,1,1,57.438,0,13.346,13.346,0,0,1,70.782,13.345" transform="translate(48.616 0)" fill="#3ba35d" fill-rule="evenodd"/>
      </g>
    </g>
    <g id="Semi_circle-_1" data-name="Semi circle- 1" transform="translate(33.908 616.803)">
      <g id="Group_596" data-name="Group 596" clip-path="url(#clip-path-3)">
        <path id="Path_648" data-name="Path 648" d="M0,4.662C2.013,60.773,48.268,105.652,105.068,105.652c58.081,0,105.165-46.919,105.165-104.794,0-.289-.021-.572-.023-.859H0Z" transform="translate(0 0)" fill="#a30b65" fill-rule="evenodd"/>
      </g>
    </g>
    <g id="Semi_circle-_2" data-name="Semi circle- 2" transform="translate(28.291 722.455)">
      <g id="Group_597" data-name="Group 597" clip-path="url(#clip-path-4)">
        <path id="Path_649" data-name="Path 649" d="M216.617,103.567C214.543,46.024,166.883,0,108.358,0,48.514,0,0,48.116,0,107.467c0,.3.022.586.024.88H216.617Z" transform="translate(0 0)" fill="#0e9aa1" fill-rule="evenodd"/>
      </g>
    </g>
    <g id="Cloud" transform="translate(293.646 140)">
      <g id="Group_593" data-name="Group 593" clip-path="url(#clip-path-5)">
        <path id="Path_641" data-name="Path 641" d="M0,82.271A40.216,40.216,0,0,1,40.19,42.486l.2,0a63.336,63.336,0,0,1,120.957,4.351A41.558,41.558,0,0,1,202.2,82.271Z" transform="translate(0 0.001)" fill="#006cb7"/>
      </g>
    </g>
    <g id="Cloud-2" data-name="Cloud" transform="translate(75.99)">
      <g id="Group_593-2" data-name="Group 593" clip-path="url(#clip-path-5)">
        <path id="Path_641-2" data-name="Path 641" d="M0,82.271A40.216,40.216,0,0,1,40.19,42.486l.2,0a63.336,63.336,0,0,1,120.957,4.351A41.558,41.558,0,0,1,202.2,82.271Z" transform="translate(0 0.001)" fill="#006cb7"/>
      </g>
    </g>
  </g>
</svg>
